<ttFont>
    <TTGlyph name="A" xMin="8" yMin="0" xMax="1702" yMax="1440">
      <contour>
        <pt x="8" y="0" on="1"/>
        <pt x="14" y="25" on="0"/>
        <pt x="20" y="98" on="0"/>
        <pt x="20" y="137" on="1"/>
        <pt x="20" y="173" on="0"/>
        <pt x="15" y="236" on="0"/>
        <pt x="10" y="260" on="1"/>
        <pt x="61" y="262" on="0"/>
        <pt x="133" y="295" on="0"/>
        <pt x="156" y="315" on="1"/>
        <pt x="180" y="352" on="0"/>
        <pt x="230" y="444" on="0"/>
        <pt x="271" y="541" on="0"/>
        <pt x="297" y="638" on="0"/>
        <pt x="297" y="680" on="1"/>
        <pt x="297" y="697" on="0"/>
        <pt x="287" y="731" on="0"/>
        <pt x="275" y="735" on="1"/>
        <pt x="305" y="743" on="0"/>
        <pt x="365" y="815" on="0"/>
        <pt x="421" y="921" on="0"/>
        <pt x="469" y="1051" on="0"/>
        <pt x="505" y="1184" on="0"/>
        <pt x="525" y="1310" on="0"/>
        <pt x="525" y="1359" on="1"/>
        <pt x="525" y="1376" on="0"/>
        <pt x="521" y="1408" on="0"/>
        <pt x="521" y="1419" on="1"/>
        <pt x="521" y="1424" on="0"/>
        <pt x="522" y="1432" on="0"/>
        <pt x="522" y="1440" on="1"/>
        <pt x="545" y="1431" on="0"/>
        <pt x="614" y="1418" on="0"/>
        <pt x="700" y="1409" on="0"/>
        <pt x="798" y="1405" on="0"/>
        <pt x="851" y="1405" on="1"/>
        <pt x="897" y="1405" on="0"/>
        <pt x="993" y="1409" on="0"/>
        <pt x="1083" y="1418" on="0"/>
        <pt x="1161" y="1431" on="0"/>
        <pt x="1187" y="1440" on="1"/>
        <pt x="1187" y="1436" on="1"/>
        <pt x="1187" y="1427" on="1"/>
        <pt x="1187" y="1416" on="0"/>
        <pt x="1182" y="1383" on="0"/>
        <pt x="1182" y="1363" on="1"/>
        <pt x="1182" y="1317" on="0"/>
        <pt x="1199" y="1193" on="0"/>
        <pt x="1229" y="1060" on="0"/>
        <pt x="1272" y="929" on="0"/>
        <pt x="1324" y="820" on="0"/>
        <pt x="1384" y="745" on="0"/>
        <pt x="1417" y="735" on="1"/>
        <pt x="1403" y="730" on="0"/>
        <pt x="1392" y="701" on="0"/>
        <pt x="1392" y="680" on="1"/>
        <pt x="1392" y="638" on="0"/>
        <pt x="1417" y="541" on="0"/>
        <pt x="1458" y="444" on="0"/>
        <pt x="1507" y="354" on="0"/>
        <pt x="1531" y="318" on="1"/>
        <pt x="1546" y="309" on="0"/>
        <pt x="1588" y="289" on="0"/>
        <pt x="1634" y="271" on="0"/>
        <pt x="1680" y="260" on="0"/>
        <pt x="1700" y="260" on="1"/>
        <pt x="1695" y="236" on="0"/>
        <pt x="1690" y="173" on="0"/>
        <pt x="1690" y="137" on="1"/>
        <pt x="1690" y="98" on="0"/>
        <pt x="1696" y="25" on="0"/>
        <pt x="1702" y="0" on="1"/>
        <pt x="1666" y="4" on="0"/>
        <pt x="1572" y="13" on="0"/>
        <pt x="1464" y="20" on="0"/>
        <pt x="1348" y="25" on="0"/>
        <pt x="1290" y="25" on="1"/>
        <pt x="1184" y="25" on="0"/>
        <pt x="993" y="12" on="0"/>
        <pt x="927" y="0" on="1"/>
        <pt x="930" y="17" on="0"/>
        <pt x="935" y="90" on="0"/>
        <pt x="935" y="135" on="1"/>
        <pt x="935" y="154" on="0"/>
        <pt x="933" y="193" on="0"/>
        <pt x="931" y="227" on="0"/>
        <pt x="928" y="254" on="0"/>
        <pt x="927" y="260" on="1"/>
        <pt x="945" y="260" on="0"/>
        <pt x="985" y="263" on="0"/>
        <pt x="1024" y="271" on="0"/>
        <pt x="1060" y="285" on="0"/>
        <pt x="1074" y="297" on="1"/>
        <pt x="1072" y="337" on="0"/>
        <pt x="1050" y="394" on="0"/>
        <pt x="989" y="432" on="0"/>
        <pt x="880" y="450" on="0"/>
        <pt x="792" y="450" on="1"/>
        <pt x="713" y="450" on="0"/>
        <pt x="608" y="438" on="0"/>
        <pt x="543" y="405" on="0"/>
        <pt x="512" y="346" on="0"/>
        <pt x="508" y="298" on="1"/>
        <pt x="523" y="286" on="0"/>
        <pt x="565" y="272" on="0"/>
        <pt x="610" y="263" on="0"/>
        <pt x="655" y="260" on="0"/>
        <pt x="673" y="260" on="1"/>
        <pt x="671" y="254" on="0"/>
        <pt x="668" y="228" on="0"/>
        <pt x="666" y="193" on="0"/>
        <pt x="665" y="153" on="0"/>
        <pt x="665" y="135" on="1"/>
        <pt x="665" y="90" on="0"/>
        <pt x="670" y="17" on="0"/>
        <pt x="673" y="0" on="1"/>
        <pt x="597" y="14" on="0"/>
        <pt x="441" y="25" on="0"/>
        <pt x="360" y="25" on="1"/>
        <pt x="266" y="25" on="0"/>
        <pt x="89" y="14" on="0"/>
      </contour>
      <contour>
        <pt x="648" y="743" on="1"/>
        <pt x="648" y="714" on="0"/>
        <pt x="661" y="676" on="0"/>
        <pt x="694" y="654" on="0"/>
        <pt x="751" y="645" on="0"/>
        <pt x="795" y="645" on="1"/>
        <pt x="839" y="645" on="0"/>
        <pt x="896" y="654" on="0"/>
        <pt x="929" y="676" on="0"/>
        <pt x="942" y="714" on="0"/>
        <pt x="942" y="743" on="1"/>
        <pt x="942" y="778" on="0"/>
        <pt x="906" y="880" on="0"/>
        <pt x="858" y="992" on="0"/>
        <pt x="808" y="1104" on="0"/>
        <pt x="795" y="1149" on="1"/>
        <pt x="780" y="1104" on="0"/>
        <pt x="730" y="992" on="0"/>
        <pt x="683" y="880" on="0"/>
        <pt x="648" y="778" on="0"/>
      </contour>
    </TTGlyph>
    <TTGlyph name="AE" xMin="8" yMin="0" xMax="2256" yMax="1440">
      <contour>
        <pt x="8" y="0" on="1"/>
        <pt x="14" y="25" on="0"/>
        <pt x="20" y="98" on="0"/>
        <pt x="20" y="137" on="1"/>
        <pt x="20" y="173" on="0"/>
        <pt x="15" y="236" on="0"/>
        <pt x="10" y="260" on="1"/>
        <pt x="73" y="262" on="0"/>
        <pt x="174" y="295" on="0"/>
        <pt x="203" y="315" on="1"/>
        <pt x="242" y="352" on="0"/>
        <pt x="321" y="444" on="0"/>
        <pt x="384" y="541" on="0"/>
        <pt x="424" y="638" on="0"/>
        <pt x="424" y="680" on="1"/>
        <pt x="424" y="697" on="0"/>
        <pt x="414" y="731" on="0"/>
        <pt x="402" y="735" on="1"/>
        <pt x="450" y="747" on="0"/>
        <pt x="559" y="835" on="0"/>
        <pt x="670" y="961" on="0"/>
        <pt x="774" y="1111" on="0"/>
        <pt x="860" y="1260" on="0"/>
        <pt x="919" y="1393" on="0"/>
        <pt x="929" y="1440" on="1"/>
        <pt x="942" y="1431" on="0"/>
        <pt x="990" y="1417" on="0"/>
        <pt x="1046" y="1409" on="0"/>
        <pt x="1104" y="1405" on="0"/>
        <pt x="1128" y="1405" on="1"/>
        <pt x="1146" y="1405" on="0"/>
        <pt x="1202" y="1409" on="0"/>
        <pt x="1259" y="1417" on="0"/>
        <pt x="1306" y="1431" on="0"/>
        <pt x="1314" y="1440" on="1"/>
        <pt x="1333" y="1428" on="0"/>
        <pt x="1397" y="1415" on="0"/>
        <pt x="1480" y="1407" on="0"/>
        <pt x="1579" y="1405" on="0"/>
        <pt x="1633" y="1405" on="1"/>
        <pt x="1669" y="1405" on="0"/>
        <pt x="1778" y="1407" on="0"/>
        <pt x="1903" y="1412" on="0"/>
        <pt x="2034" y="1418" on="0"/>
        <pt x="2148" y="1426" on="0"/>
        <pt x="2236" y="1435" on="0"/>
        <pt x="2256" y="1440" on="1"/>
        <pt x="2248" y="1398" on="0"/>
        <pt x="2231" y="1269" on="0"/>
        <pt x="2231" y="1197" on="1"/>
        <pt x="2231" y="1155" on="0"/>
        <pt x="2237" y="1074" on="0"/>
        <pt x="2244" y="1007" on="0"/>
        <pt x="2253" y="957" on="0"/>
        <pt x="2256" y="945" on="1"/>
        <pt x="2226" y="956" on="0"/>
        <pt x="2133" y="970" on="0"/>
        <pt x="2081" y="970" on="1"/>
        <pt x="2035" y="970" on="0"/>
        <pt x="1943" y="959" on="0"/>
        <pt x="1901" y="945" on="1"/>
        <pt x="1907" y="966" on="0"/>
        <pt x="1916" y="1029" on="0"/>
        <pt x="1916" y="1061" on="1"/>
        <pt x="1916" y="1111" on="0"/>
        <pt x="1881" y="1170" on="0"/>
        <pt x="1827" y="1201" on="0"/>
        <pt x="1763" y="1210" on="0"/>
        <pt x="1735" y="1210" on="1"/>
        <pt x="1712" y="1210" on="0"/>
        <pt x="1661" y="1207" on="0"/>
        <pt x="1608" y="1196" on="0"/>
        <pt x="1556" y="1177" on="0"/>
        <pt x="1534" y="1161" on="1"/>
        <pt x="1530" y="1138" on="0"/>
        <pt x="1524" y="1078" on="0"/>
        <pt x="1524" y="1033" on="1"/>
        <pt x="1524" y="966" on="0"/>
        <pt x="1529" y="891" on="0"/>
        <pt x="1533" y="871" on="1"/>
        <pt x="1560" y="859" on="0"/>
        <pt x="1632" y="849" on="0"/>
        <pt x="1670" y="849" on="1"/>
        <pt x="1727" y="849" on="0"/>
        <pt x="1829" y="867" on="0"/>
        <pt x="1852" y="879" on="1"/>
        <pt x="1844" y="857" on="0"/>
        <pt x="1837" y="779" on="0"/>
        <pt x="1837" y="736" on="1"/>
        <pt x="1837" y="712" on="0"/>
        <pt x="1839" y="665" on="0"/>
        <pt x="1844" y="626" on="0"/>
        <pt x="1849" y="597" on="0"/>
        <pt x="1852" y="590" on="1"/>
        <pt x="1843" y="595" on="0"/>
        <pt x="1803" y="606" on="0"/>
        <pt x="1750" y="616" on="0"/>
        <pt x="1687" y="623" on="0"/>
        <pt x="1654" y="623" on="1"/>
        <pt x="1620" y="623" on="0"/>
        <pt x="1558" y="615" on="0"/>
        <pt x="1533" y="604" on="1"/>
        <pt x="1531" y="592" on="0"/>
        <pt x="1528" y="561" on="0"/>
        <pt x="1525" y="514" on="0"/>
        <pt x="1524" y="450" on="0"/>
        <pt x="1524" y="407" on="1"/>
        <pt x="1524" y="355" on="0"/>
        <pt x="1531" y="287" on="0"/>
        <pt x="1536" y="262" on="1"/>
        <pt x="1560" y="249" on="0"/>
        <pt x="1614" y="233" on="0"/>
        <pt x="1669" y="224" on="0"/>
        <pt x="1722" y="220" on="0"/>
        <pt x="1745" y="220" on="1"/>
        <pt x="1774" y="220" on="0"/>
        <pt x="1835" y="235" on="0"/>
        <pt x="1885" y="276" on="0"/>
        <pt x="1917" y="349" on="0"/>
        <pt x="1917" y="406" on="1"/>
        <pt x="1917" y="442" on="0"/>
        <pt x="1908" y="512" on="0"/>
        <pt x="1901" y="535" on="1"/>
        <pt x="1943" y="521" on="0"/>
        <pt x="2035" y="510" on="0"/>
        <pt x="2081" y="510" on="1"/>
        <pt x="2133" y="510" on="0"/>
        <pt x="2226" y="524" on="0"/>
        <pt x="2256" y="535" on="1"/>
        <pt x="2253" y="522" on="0"/>
        <pt x="2244" y="468" on="0"/>
        <pt x="2237" y="395" on="0"/>
        <pt x="2231" y="308" on="0"/>
        <pt x="2231" y="263" on="1"/>
        <pt x="2231" y="185" on="0"/>
        <pt x="2247" y="45" on="0"/>
        <pt x="2256" y="0" on="1"/>
        <pt x="2236" y="4" on="0"/>
        <pt x="2148" y="11" on="0"/>
        <pt x="2034" y="16" on="0"/>
        <pt x="1903" y="21" on="0"/>
        <pt x="1778" y="24" on="0"/>
        <pt x="1669" y="25" on="0"/>
        <pt x="1633" y="25" on="1"/>
        <pt x="1597" y="25" on="0"/>
        <pt x="1478" y="24" on="0"/>
        <pt x="1339" y="21" on="0"/>
        <pt x="1193" y="16" on="0"/>
        <pt x="1064" y="11" on="0"/>
        <pt x="967" y="4" on="0"/>
        <pt x="947" y="0" on="1"/>
        <pt x="950" y="17" on="0"/>
        <pt x="955" y="90" on="0"/>
        <pt x="955" y="135" on="1"/>
        <pt x="955" y="154" on="0"/>
        <pt x="953" y="193" on="0"/>
        <pt x="951" y="227" on="0"/>
        <pt x="948" y="254" on="0"/>
        <pt x="947" y="260" on="1"/>
        <pt x="965" y="260" on="0"/>
        <pt x="1007" y="263" on="0"/>
        <pt x="1049" y="270" on="0"/>
        <pt x="1087" y="285" on="0"/>
        <pt x="1102" y="297" on="1"/>
        <pt x="1101" y="337" on="0"/>
        <pt x="1086" y="394" on="0"/>
        <pt x="1046" y="432" on="0"/>
        <pt x="976" y="450" on="0"/>
        <pt x="919" y="450" on="1"/>
        <pt x="840" y="450" on="0"/>
        <pt x="710" y="427" on="0"/>
        <pt x="613" y="386" on="0"/>
        <pt x="551" y="328" on="0"/>
        <pt x="540" y="294" on="1"/>
        <pt x="553" y="283" on="0"/>
        <pt x="593" y="270" on="0"/>
        <pt x="635" y="263" on="0"/>
        <pt x="677" y="260" on="0"/>
        <pt x="693" y="260" on="1"/>
        <pt x="691" y="254" on="0"/>
        <pt x="688" y="228" on="0"/>
        <pt x="686" y="193" on="0"/>
        <pt x="685" y="153" on="0"/>
        <pt x="685" y="135" on="1"/>
        <pt x="685" y="90" on="0"/>
        <pt x="690" y="17" on="0"/>
        <pt x="693" y="0" on="1"/>
        <pt x="612" y="14" on="0"/>
        <pt x="447" y="25" on="0"/>
        <pt x="360" y="25" on="1"/>
        <pt x="266" y="25" on="0"/>
        <pt x="89" y="14" on="0"/>
      </contour>
      <contour>
        <pt x="825" y="743" on="1"/>
        <pt x="825" y="714" on="0"/>
        <pt x="847" y="676" on="0"/>
        <pt x="887" y="654" on="0"/>
        <pt x="940" y="645" on="0"/>
        <pt x="972" y="645" on="1"/>
        <pt x="1022" y="645" on="0"/>
        <pt x="1081" y="663" on="0"/>
        <pt x="1111" y="697" on="0"/>
        <pt x="1119" y="744" on="0"/>
        <pt x="1119" y="773" on="1"/>
        <pt x="1119" y="806" on="0"/>
        <pt x="1118" y="906" on="0"/>
        <pt x="1116" y="1017" on="0"/>
        <pt x="1113" y="1130" on="0"/>
        <pt x="1112" y="1177" on="1"/>
        <pt x="1093" y="1146" on="0"/>
        <pt x="1036" y="1070" on="0"/>
        <pt x="972" y="989" on="0"/>
        <pt x="908" y="906" on="0"/>
        <pt x="857" y="831" on="0"/>
        <pt x="825" y="766" on="0"/>
      </contour>
    </TTGlyph>
    <TTGlyph name="AEacute" xMin="8" yMin="0" xMax="2256" yMax="2010">
      <component glyphName="AE" x="0" y="0" flags="0x1204"/>
      <component glyphName="acute.cap" x="995" y="0" flags="0x1004"/>
    </TTGlyph>
    <TTGlyph name="Aacute" xMin="8" yMin="0" xMax="1702" yMax="2010">
      <component glyphName="A" x="0" y="0" flags="0x1204"/>
      <component glyphName="acute.cap" x="404" y="0" flags="0x1004"/>
    </TTGlyph>
    <TTGlyph name="Abreve" xMin="8" yMin="0" xMax="1702" yMax="1988">
      <component glyphName="A" x="0" y="0" flags="0x1204"/>
      <component glyphName="breve.cap" x="501" y="0" flags="0x1004"/>
    </TTGlyph>
    <TTGlyph name="Acircumflex" xMin="8" yMin="0" xMax="1702" yMax="2010">
      <component glyphName="A" x="0" y="0" flags="0x1204"/>
      <component glyphName="circumflex.cap" x="414" y="0" flags="0x1004"/>
    </TTGlyph>
    <TTGlyph name="Adieresis" xMin="8" yMin="0" xMax="1702" yMax="2010">
      <component glyphName="A" x="0" y="0" flags="0x1204"/>
      <component glyphName="dieresis.cap" x="345" y="0" flags="0x1004"/>
    </TTGlyph>
    <TTGlyph name="Agrave" xMin="8" yMin="0" xMax="1702" yMax="2010">
      <component glyphName="A" x="0" y="0" flags="0x1204"/>
      <component glyphName="grave.cap" x="443" y="0" flags="0x1004"/>
    </TTGlyph>
    <TTGlyph name="Amacron" xMin="8" yMin="0" xMax="1702" yMax="1860">
      <component glyphName="A" x="0" y="0" flags="0x1204"/>
      <component glyphName="macron.cap" x="324" y="0" flags="0x1004"/>
    </TTGlyph>
    <TTGlyph name="Aogonek" xMin="8" yMin="-550" xMax="1702" yMax="1440">
      <contour>
        <pt x="8" y="0" on="1"/>
        <pt x="14" y="25" on="0"/>
        <pt x="20" y="98" on="0"/>
        <pt x="20" y="137" on="1"/>
        <pt x="20" y="173" on="0"/>
        <pt x="15" y="236" on="0"/>
        <pt x="10" y="260" on="1"/>
        <pt x="61" y="262" on="0"/>
        <pt x="140" y="295" on="0"/>
        <pt x="163" y="315" on="1"/>
        <pt x="187" y="352" on="0"/>
        <pt x="237" y="444" on="0"/>
        <pt x="278" y="541" on="0"/>
        <pt x="304" y="638" on="0"/>
        <pt x="304" y="680" on="1"/>
        <pt x="304" y="697" on="0"/>
        <pt x="294" y="731" on="0"/>
        <pt x="282" y="735" on="1"/>
        <pt x="312" y="743" on="0"/>
        <pt x="372" y="815" on="0"/>
        <pt x="428" y="921" on="0"/>
        <pt x="476" y="1051" on="0"/>
        <pt x="512" y="1184" on="0"/>
        <pt x="532" y="1310" on="0"/>
        <pt x="532" y="1359" on="1"/>
        <pt x="532" y="1376" on="0"/>
        <pt x="528" y="1408" on="0"/>
        <pt x="528" y="1419" on="1"/>
        <pt x="528" y="1424" on="0"/>
        <pt x="529" y="1432" on="0"/>
        <pt x="529" y="1440" on="1"/>
        <pt x="552" y="1431" on="0"/>
        <pt x="621" y="1418" on="0"/>
        <pt x="707" y="1409" on="0"/>
        <pt x="805" y="1405" on="0"/>
        <pt x="858" y="1405" on="1"/>
        <pt x="904" y="1405" on="0"/>
        <pt x="1000" y="1409" on="0"/>
        <pt x="1090" y="1418" on="0"/>
        <pt x="1168" y="1431" on="0"/>
        <pt x="1194" y="1440" on="1"/>
        <pt x="1194" y="1436" on="1"/>
        <pt x="1194" y="1427" on="1"/>
        <pt x="1194" y="1416" on="0"/>
        <pt x="1189" y="1383" on="0"/>
        <pt x="1189" y="1363" on="1"/>
        <pt x="1189" y="1317" on="0"/>
        <pt x="1206" y="1193" on="0"/>
        <pt x="1236" y="1060" on="0"/>
        <pt x="1279" y="929" on="0"/>
        <pt x="1331" y="820" on="0"/>
        <pt x="1391" y="745" on="0"/>
        <pt x="1424" y="735" on="1"/>
        <pt x="1410" y="730" on="0"/>
        <pt x="1399" y="701" on="0"/>
        <pt x="1399" y="680" on="1"/>
        <pt x="1399" y="638" on="0"/>
        <pt x="1424" y="541" on="0"/>
        <pt x="1465" y="444" on="0"/>
        <pt x="1514" y="354" on="0"/>
        <pt x="1538" y="318" on="1"/>
        <pt x="1553" y="309" on="0"/>
        <pt x="1593" y="289" on="0"/>
        <pt x="1636" y="271" on="0"/>
        <pt x="1680" y="260" on="0"/>
        <pt x="1700" y="260" on="1"/>
        <pt x="1695" y="236" on="0"/>
        <pt x="1690" y="173" on="0"/>
        <pt x="1690" y="137" on="1"/>
        <pt x="1690" y="98" on="0"/>
        <pt x="1696" y="25" on="0"/>
        <pt x="1702" y="0" on="1"/>
        <pt x="1646" y="10" on="0"/>
        <pt x="1549" y="20" on="0"/>
        <pt x="1506" y="20" on="1"/>
        <pt x="1414" y="20" on="0"/>
        <pt x="1287" y="-22" on="0"/>
        <pt x="1206" y="-95" on="0"/>
        <pt x="1170" y="-197" on="0"/>
        <pt x="1170" y="-257" on="1"/>
        <pt x="1170" y="-281" on="0"/>
        <pt x="1190" y="-322" on="0"/>
        <pt x="1224" y="-352" on="0"/>
        <pt x="1268" y="-369" on="0"/>
        <pt x="1292" y="-369" on="1"/>
        <pt x="1316" y="-369" on="0"/>
        <pt x="1362" y="-350" on="0"/>
        <pt x="1398" y="-303" on="0"/>
        <pt x="1420" y="-227" on="0"/>
        <pt x="1420" y="-170" on="1"/>
        <pt x="1465" y="-183" on="0"/>
        <pt x="1532" y="-183" on="1"/>
        <pt x="1574" y="-183" on="0"/>
        <pt x="1655" y="-177" on="0"/>
        <pt x="1693" y="-170" on="1"/>
        <pt x="1690" y="-178" on="0"/>
        <pt x="1685" y="-208" on="0"/>
        <pt x="1682" y="-245" on="0"/>
        <pt x="1680" y="-284" on="0"/>
        <pt x="1680" y="-300" on="1"/>
        <pt x="1680" y="-335" on="0"/>
        <pt x="1682" y="-394" on="0"/>
        <pt x="1686" y="-408" on="1"/>
        <pt x="1645" y="-408" on="0"/>
        <pt x="1576" y="-439" on="0"/>
        <pt x="1521" y="-483" on="0"/>
        <pt x="1482" y="-532" on="0"/>
        <pt x="1472" y="-550" on="1"/>
        <pt x="1444" y="-534" on="0"/>
        <pt x="1340" y="-514" on="0"/>
        <pt x="1259" y="-514" on="1"/>
        <pt x="1236" y="-514" on="0"/>
        <pt x="1181" y="-520" on="0"/>
        <pt x="1131" y="-529" on="0"/>
        <pt x="1092" y="-543" on="0"/>
        <pt x="1085" y="-550" on="1"/>
        <pt x="1078" y="-531" on="0"/>
        <pt x="1025" y="-492" on="0"/>
        <pt x="950" y="-460" on="0"/>
        <pt x="860" y="-439" on="0"/>
        <pt x="816" y="-439" on="1"/>
        <pt x="825" y="-416" on="0"/>
        <pt x="836" y="-326" on="0"/>
        <pt x="836" y="-269" on="1"/>
        <pt x="836" y="-251" on="0"/>
        <pt x="834" y="-205" on="0"/>
        <pt x="829" y="-160" on="0"/>
        <pt x="821" y="-120" on="0"/>
        <pt x="816" y="-108" on="1"/>
        <pt x="899" y="-90" on="0"/>
        <pt x="1003" y="-16" on="0"/>
        <pt x="1061" y="85" on="0"/>
        <pt x="1082" y="207" on="0"/>
        <pt x="1082" y="273" on="1"/>
        <pt x="1082" y="316" on="0"/>
        <pt x="1064" y="382" on="0"/>
        <pt x="1006" y="427" on="0"/>
        <pt x="893" y="450" on="0"/>
        <pt x="799" y="450" on="1"/>
        <pt x="719" y="450" on="0"/>
        <pt x="614" y="438" on="0"/>
        <pt x="549" y="405" on="0"/>
        <pt x="519" y="345" on="0"/>
        <pt x="515" y="297" on="1"/>
        <pt x="529" y="286" on="0"/>
        <pt x="569" y="272" on="0"/>
        <pt x="613" y="263" on="0"/>
        <pt x="656" y="260" on="0"/>
        <pt x="673" y="260" on="1"/>
        <pt x="671" y="254" on="0"/>
        <pt x="668" y="228" on="0"/>
        <pt x="666" y="193" on="0"/>
        <pt x="665" y="153" on="0"/>
        <pt x="665" y="135" on="1"/>
        <pt x="665" y="90" on="0"/>
        <pt x="670" y="17" on="0"/>
        <pt x="673" y="0" on="1"/>
        <pt x="597" y="14" on="0"/>
        <pt x="441" y="25" on="0"/>
        <pt x="360" y="25" on="1"/>
        <pt x="266" y="25" on="0"/>
        <pt x="89" y="14" on="0"/>
      </contour>
      <contour>
        <pt x="655" y="743" on="1"/>
        <pt x="655" y="714" on="0"/>
        <pt x="668" y="676" on="0"/>
        <pt x="701" y="654" on="0"/>
        <pt x="758" y="645" on="0"/>
        <pt x="802" y="645" on="1"/>
        <pt x="846" y="645" on="0"/>
        <pt x="903" y="654" on="0"/>
        <pt x="936" y="676" on="0"/>
        <pt x="949" y="714" on="0"/>
        <pt x="949" y="743" on="1"/>
        <pt x="949" y="778" on="0"/>
        <pt x="913" y="880" on="0"/>
        <pt x="865" y="992" on="0"/>
        <pt x="815" y="1104" on="0"/>
        <pt x="802" y="1149" on="1"/>
        <pt x="787" y="1104" on="0"/>
        <pt x="737" y="992" on="0"/>
        <pt x="690" y="880" on="0"/>
        <pt x="655" y="778" on="0"/>
      </contour>
    </TTGlyph>
    <TTGlyph name="Aring" xMin="8" yMin="0" xMax="1702" yMax="2010">
      <component glyphName="A" x="0" y="0" flags="0x1204"/>
      <component glyphName="ring.cap" x="345" y="0" flags="0x1004"/>
    </TTGlyph>
    <TTGlyph name="Atilde" xMin="8" yMin="0" xMax="1702" yMax="2010">
      <component glyphName="A" x="0" y="0" flags="0x1204"/>
      <component glyphName="tilde.cap" x="175" y="0" flags="0x1004"/>
    </TTGlyph>
    <TTGlyph name="B" xMin="100" yMin="0" xMax="1515" yMax="1440">
      <contour>
        <pt x="100" y="0" on="1"/>
        <pt x="106" y="25" on="0"/>
        <pt x="115" y="96" on="0"/>
        <pt x="115" y="134" on="1"/>
        <pt x="115" y="169" on="0"/>
        <pt x="105" y="236" on="0"/>
        <pt x="100" y="260" on="1"/>
        <pt x="145" y="260" on="0"/>
        <pt x="213" y="274" on="0"/>
        <pt x="259" y="307" on="0"/>
        <pt x="282" y="364" on="0"/>
        <pt x="282" y="407" on="1"/>
        <pt x="282" y="491" on="0"/>
        <pt x="273" y="611" on="0"/>
        <pt x="256" y="689" on="0"/>
        <pt x="230" y="730" on="0"/>
        <pt x="213" y="735" on="1"/>
        <pt x="231" y="741" on="0"/>
        <pt x="257" y="767" on="0"/>
        <pt x="274" y="830" on="0"/>
        <pt x="282" y="941" on="0"/>
        <pt x="282" y="1033" on="1"/>
        <pt x="282" y="1076" on="0"/>
        <pt x="259" y="1133" on="0"/>
        <pt x="213" y="1166" on="0"/>
        <pt x="145" y="1180" on="0"/>
        <pt x="100" y="1180" on="1"/>
        <pt x="105" y="1204" on="0"/>
        <pt x="115" y="1271" on="0"/>
        <pt x="115" y="1306" on="1"/>
        <pt x="115" y="1344" on="0"/>
        <pt x="106" y="1415" on="0"/>
        <pt x="100" y="1440" on="1"/>
        <pt x="113" y="1435" on="0"/>
        <pt x="189" y="1425" on="0"/>
        <pt x="292" y="1418" on="0"/>
        <pt x="412" y="1412" on="0"/>
        <pt x="528" y="1407" on="0"/>
        <pt x="629" y="1405" on="0"/>
        <pt x="662" y="1405" on="1"/>
        <pt x="745" y="1405" on="0"/>
        <pt x="904" y="1408" on="0"/>
        <pt x="1038" y="1416" on="0"/>
        <pt x="1138" y="1430" on="0"/>
        <pt x="1161" y="1440" on="1"/>
        <pt x="1162" y="1419" on="0"/>
        <pt x="1192" y="1372" on="0"/>
        <pt x="1241" y="1325" on="0"/>
        <pt x="1301" y="1281" on="0"/>
        <pt x="1363" y="1246" on="0"/>
        <pt x="1421" y="1225" on="0"/>
        <pt x="1443" y="1224" on="1"/>
        <pt x="1436" y="1211" on="0"/>
        <pt x="1425" y="1162" on="0"/>
        <pt x="1417" y="1100" on="0"/>
        <pt x="1413" y="1034" on="0"/>
        <pt x="1413" y="1004" on="1"/>
        <pt x="1413" y="940" on="0"/>
        <pt x="1426" y="829" on="0"/>
        <pt x="1443" y="800" on="1"/>
        <pt x="1401" y="792" on="0"/>
        <pt x="1317" y="744" on="0"/>
        <pt x="1280" y="711" on="1"/>
        <pt x="1334" y="679" on="0"/>
        <pt x="1460" y="638" on="0"/>
        <pt x="1515" y="630" on="1"/>
        <pt x="1507" y="617" on="0"/>
        <pt x="1495" y="575" on="0"/>
        <pt x="1488" y="523" on="0"/>
        <pt x="1485" y="465" on="0"/>
        <pt x="1485" y="436" on="1"/>
        <pt x="1485" y="406" on="0"/>
        <pt x="1488" y="339" on="0"/>
        <pt x="1496" y="278" on="0"/>
        <pt x="1507" y="228" on="0"/>
        <pt x="1515" y="216" on="1"/>
        <pt x="1487" y="215" on="0"/>
        <pt x="1414" y="195" on="0"/>
        <pt x="1337" y="162" on="0"/>
        <pt x="1262" y="120" on="0"/>
        <pt x="1200" y="72" on="0"/>
        <pt x="1158" y="23" on="0"/>
        <pt x="1153" y="0" on="1"/>
        <pt x="1141" y="6" on="0"/>
        <pt x="1047" y="15" on="0"/>
        <pt x="910" y="22" on="0"/>
        <pt x="745" y="25" on="0"/>
        <pt x="662" y="25" on="1"/>
        <pt x="630" y="25" on="0"/>
        <pt x="526" y="23" on="0"/>
        <pt x="406" y="19" on="0"/>
        <pt x="283" y="15" on="0"/>
        <pt x="180" y="9" on="0"/>
        <pt x="108" y="3" on="0"/>
      </contour>
      <contour>
        <pt x="685" y="844" on="1"/>
        <pt x="699" y="839" on="0"/>
        <pt x="728" y="832" on="0"/>
        <pt x="765" y="827" on="0"/>
        <pt x="813" y="825" on="0"/>
        <pt x="845" y="825" on="1"/>
        <pt x="895" y="825" on="0"/>
        <pt x="960" y="855" on="0"/>
        <pt x="997" y="907" on="0"/>
        <pt x="1012" y="978" on="0"/>
        <pt x="1012" y="1019" on="1"/>
        <pt x="1012" y="1054" on="0"/>
        <pt x="1004" y="1119" on="0"/>
        <pt x="972" y="1170" on="0"/>
        <pt x="910" y="1200" on="0"/>
        <pt x="855" y="1200" on="1"/>
        <pt x="810" y="1200" on="0"/>
        <pt x="720" y="1188" on="0"/>
        <pt x="683" y="1172" on="1"/>
        <pt x="679" y="1144" on="0"/>
        <pt x="676" y="1077" on="0"/>
        <pt x="676" y="1042" on="1"/>
        <pt x="676" y="989" on="0"/>
        <pt x="681" y="886" on="0"/>
      </contour>
      <contour>
        <pt x="683" y="244" on="1"/>
        <pt x="731" y="231" on="0"/>
        <pt x="834" y="220" on="0"/>
        <pt x="895" y="220" on="1"/>
        <pt x="952" y="220" on="0"/>
        <pt x="1027" y="253" on="0"/>
        <pt x="1073" y="309" on="0"/>
        <pt x="1092" y="385" on="0"/>
        <pt x="1092" y="429" on="1"/>
        <pt x="1092" y="468" on="0"/>
        <pt x="1081" y="540" on="0"/>
        <pt x="1042" y="596" on="0"/>
        <pt x="968" y="630" on="0"/>
        <pt x="905" y="630" on="1"/>
        <pt x="822" y="630" on="0"/>
        <pt x="720" y="617" on="0"/>
        <pt x="684" y="601" on="1"/>
        <pt x="679" y="567" on="0"/>
        <pt x="675" y="485" on="0"/>
        <pt x="675" y="440" on="1"/>
        <pt x="675" y="388" on="0"/>
        <pt x="680" y="287" on="0"/>
      </contour>
    </TTGlyph>
    <TTGlyph name="C" xMin="91" yMin="-20" xMax="1583" yMax="1460">
      <contour>
        <pt x="106" y="268" on="1"/>
        <pt x="125" y="294" on="0"/>
        <pt x="157" y="455" on="0"/>
        <pt x="157" y="594" on="1"/>
        <pt x="157" y="657" on="0"/>
        <pt x="123" y="724" on="0"/>
        <pt x="91" y="735" on="1"/>
        <pt x="109" y="740" on="0"/>
        <pt x="135" y="776" on="0"/>
        <pt x="153" y="828" on="0"/>
        <pt x="161" y="891" on="0"/>
        <pt x="161" y="924" on="1"/>
        <pt x="161" y="1010" on="0"/>
        <pt x="132" y="1143" on="0"/>
        <pt x="106" y="1172" on="1"/>
        <pt x="114" y="1172" on="1"/>
        <pt x="147" y="1172" on="0"/>
        <pt x="229" y="1202" on="0"/>
        <pt x="313" y="1251" on="0"/>
        <pt x="392" y="1312" on="0"/>
        <pt x="455" y="1376" on="0"/>
        <pt x="495" y="1437" on="0"/>
        <pt x="497" y="1460" on="1"/>
        <pt x="530" y="1442" on="0"/>
        <pt x="695" y="1405" on="0"/>
        <pt x="830" y="1405" on="1"/>
        <pt x="862" y="1405" on="0"/>
        <pt x="935" y="1413" on="0"/>
        <pt x="1004" y="1428" on="0"/>
        <pt x="1064" y="1448" on="0"/>
        <pt x="1083" y="1460" on="1"/>
        <pt x="1093" y="1429" on="0"/>
        <pt x="1133" y="1364" on="0"/>
        <pt x="1162" y="1341" on="1"/>
        <pt x="1190" y="1363" on="0"/>
        <pt x="1215" y="1419" on="0"/>
        <pt x="1220" y="1440" on="1"/>
        <pt x="1229" y="1435" on="0"/>
        <pt x="1267" y="1428" on="0"/>
        <pt x="1317" y="1423" on="0"/>
        <pt x="1375" y="1420" on="0"/>
        <pt x="1405" y="1420" on="1"/>
        <pt x="1423" y="1420" on="0"/>
        <pt x="1471" y="1423" on="0"/>
        <pt x="1520" y="1428" on="0"/>
        <pt x="1566" y="1435" on="0"/>
        <pt x="1583" y="1440" on="1"/>
        <pt x="1581" y="1432" on="0"/>
        <pt x="1572" y="1386" on="0"/>
        <pt x="1564" y="1326" on="0"/>
        <pt x="1558" y="1258" on="0"/>
        <pt x="1558" y="1227" on="1"/>
        <pt x="1558" y="1163" on="0"/>
        <pt x="1564" y="1049" on="0"/>
        <pt x="1571" y="957" on="0"/>
        <pt x="1580" y="891" on="0"/>
        <pt x="1583" y="875" on="1"/>
        <pt x="1559" y="879" on="0"/>
        <pt x="1504" y="884" on="0"/>
        <pt x="1447" y="888" on="0"/>
        <pt x="1393" y="890" on="0"/>
        <pt x="1372" y="890" on="1"/>
        <pt x="1250" y="890" on="0"/>
        <pt x="1153" y="875" on="1"/>
        <pt x="1153" y="943" on="0"/>
        <pt x="1117" y="1065" on="0"/>
        <pt x="1049" y="1156" on="0"/>
        <pt x="949" y="1210" on="0"/>
        <pt x="885" y="1210" on="1"/>
        <pt x="850" y="1210" on="0"/>
        <pt x="780" y="1198" on="0"/>
        <pt x="715" y="1161" on="0"/>
        <pt x="660" y="1093" on="0"/>
        <pt x="619" y="980" on="0"/>
        <pt x="596" y="816" on="0"/>
        <pt x="596" y="702" on="1"/>
        <pt x="596" y="557" on="0"/>
        <pt x="641" y="370" on="0"/>
        <pt x="719" y="262" on="0"/>
        <pt x="824" y="220" on="0"/>
        <pt x="885" y="220" on="1"/>
        <pt x="946" y="220" on="0"/>
        <pt x="1039" y="271" on="0"/>
        <pt x="1102" y="361" on="0"/>
        <pt x="1134" y="485" on="0"/>
        <pt x="1134" y="559" on="1"/>
        <pt x="1134" y="568" on="0"/>
        <pt x="1133" y="586" on="0"/>
        <pt x="1133" y="595" on="1"/>
        <pt x="1167" y="588" on="0"/>
        <pt x="1223" y="578" on="0"/>
        <pt x="1277" y="572" on="0"/>
        <pt x="1336" y="570" on="0"/>
        <pt x="1373" y="570" on="1"/>
        <pt x="1437" y="570" on="0"/>
        <pt x="1547" y="584" on="0"/>
        <pt x="1583" y="595" on="1"/>
        <pt x="1577" y="583" on="0"/>
        <pt x="1568" y="535" on="0"/>
        <pt x="1561" y="473" on="0"/>
        <pt x="1558" y="404" on="0"/>
        <pt x="1558" y="371" on="1"/>
        <pt x="1558" y="331" on="0"/>
        <pt x="1573" y="243" on="0"/>
        <pt x="1583" y="203" on="1"/>
        <pt x="1495" y="202" on="0"/>
        <pt x="1361" y="149" on="0"/>
        <pt x="1268" y="78" on="0"/>
        <pt x="1215" y="8" on="0"/>
        <pt x="1208" y="-10" on="1"/>
        <pt x="1187" y="-2" on="0"/>
        <pt x="1131" y="11" on="0"/>
        <pt x="1056" y="20" on="0"/>
        <pt x="958" y="25" on="0"/>
        <pt x="895" y="25" on="1"/>
        <pt x="828" y="25" on="0"/>
        <pt x="697" y="18" on="0"/>
        <pt x="587" y="5" on="0"/>
        <pt x="507" y="-11" on="0"/>
        <pt x="491" y="-20" on="1"/>
        <pt x="479" y="26" on="0"/>
        <pt x="396" y="124" on="0"/>
        <pt x="285" y="206" on="0"/>
        <pt x="160" y="262" on="0"/>
      </contour>
    </TTGlyph>
    <TTGlyph name="Cacute" xMin="91" yMin="-20" xMax="1583" yMax="2010">
      <component glyphName="C" x="0" y="0" flags="0x1204"/>
      <component glyphName="acute.cap" x="443" y="0" flags="0x1004"/>
    </TTGlyph>
    <TTGlyph name="Ccaron" xMin="91" yMin="-20" xMax="1583" yMax="2010">
      <component glyphName="C" x="0" y="0" flags="0x1204"/>
      <component glyphName="caron.cap" x="309" y="0" flags="0x1004"/>
    </TTGlyph>
    <TTGlyph name="Ccedilla" xMin="91" yMin="-550" xMax="1583" yMax="1460">
      <component glyphName="C" x="0" y="0" flags="0x1204"/>
      <component glyphName="cedilla" x="213" y="0" flags="0x1004"/>
    </TTGlyph>
    <TTGlyph name="Ccircumflex" xMin="91" yMin="-20" xMax="1583" yMax="2010">
      <component glyphName="C" x="0" y="0" flags="0x1204"/>
      <component glyphName="circumflex.cap" x="453" y="0" flags="0x1004"/>
    </TTGlyph>
    <TTGlyph name="Cdotaccent" xMin="91" yMin="-20" xMax="1583" yMax="2010">
      <component glyphName="C" x="0" y="0" flags="0x1204"/>
      <component glyphName="dotaccent.cap" x="540" y="0" flags="0x1004"/>
    </TTGlyph>
    <TTGlyph name="D" xMin="100" yMin="0" xMax="1662" yMax="1440">
      <contour>
        <pt x="100" y="0" on="1"/>
        <pt x="106" y="25" on="0"/>
        <pt x="115" y="96" on="0"/>
        <pt x="115" y="134" on="1"/>
        <pt x="115" y="169" on="0"/>
        <pt x="105" y="236" on="0"/>
        <pt x="100" y="260" on="1"/>
        <pt x="145" y="260" on="0"/>
        <pt x="213" y="274" on="0"/>
        <pt x="259" y="307" on="0"/>
        <pt x="282" y="364" on="0"/>
        <pt x="282" y="407" on="1"/>
        <pt x="282" y="491" on="0"/>
        <pt x="273" y="611" on="0"/>
        <pt x="256" y="689" on="0"/>
        <pt x="230" y="730" on="0"/>
        <pt x="213" y="735" on="1"/>
        <pt x="231" y="741" on="0"/>
        <pt x="257" y="771" on="0"/>
        <pt x="274" y="837" on="0"/>
        <pt x="282" y="947" on="0"/>
        <pt x="282" y="1033" on="1"/>
        <pt x="282" y="1076" on="0"/>
        <pt x="259" y="1133" on="0"/>
        <pt x="213" y="1166" on="0"/>
        <pt x="145" y="1180" on="0"/>
        <pt x="100" y="1180" on="1"/>
        <pt x="105" y="1204" on="0"/>
        <pt x="115" y="1271" on="0"/>
        <pt x="115" y="1306" on="1"/>
        <pt x="115" y="1344" on="0"/>
        <pt x="106" y="1415" on="0"/>
        <pt x="100" y="1440" on="1"/>
        <pt x="113" y="1435" on="0"/>
        <pt x="189" y="1425" on="0"/>
        <pt x="292" y="1418" on="0"/>
        <pt x="412" y="1412" on="0"/>
        <pt x="528" y="1407" on="0"/>
        <pt x="629" y="1405" on="0"/>
        <pt x="662" y="1405" on="1"/>
        <pt x="749" y="1405" on="0"/>
        <pt x="928" y="1408" on="0"/>
        <pt x="1082" y="1416" on="0"/>
        <pt x="1198" y="1430" on="0"/>
        <pt x="1222" y="1440" on="1"/>
        <pt x="1223" y="1419" on="0"/>
        <pt x="1258" y="1372" on="0"/>
        <pt x="1312" y="1325" on="0"/>
        <pt x="1382" y="1281" on="0"/>
        <pt x="1452" y="1246" on="0"/>
        <pt x="1519" y="1225" on="0"/>
        <pt x="1544" y="1224" on="1"/>
        <pt x="1539" y="1194" on="0"/>
        <pt x="1534" y="1132" on="0"/>
        <pt x="1534" y="1101" on="1"/>
        <pt x="1534" y="1034" on="0"/>
        <pt x="1555" y="909" on="0"/>
        <pt x="1590" y="808" on="0"/>
        <pt x="1636" y="742" on="0"/>
        <pt x="1662" y="735" on="1"/>
        <pt x="1635" y="729" on="0"/>
        <pt x="1588" y="665" on="0"/>
        <pt x="1553" y="564" on="0"/>
        <pt x="1534" y="432" on="0"/>
        <pt x="1534" y="359" on="1"/>
        <pt x="1534" y="324" on="0"/>
        <pt x="1539" y="252" on="0"/>
        <pt x="1544" y="216" on="1"/>
        <pt x="1518" y="215" on="0"/>
        <pt x="1453" y="195" on="0"/>
        <pt x="1384" y="162" on="0"/>
        <pt x="1317" y="120" on="0"/>
        <pt x="1263" y="72" on="0"/>
        <pt x="1226" y="23" on="0"/>
        <pt x="1222" y="0" on="1"/>
        <pt x="1198" y="7" on="0"/>
        <pt x="1082" y="17" on="0"/>
        <pt x="928" y="23" on="0"/>
        <pt x="749" y="25" on="0"/>
        <pt x="662" y="25" on="1"/>
        <pt x="629" y="25" on="0"/>
        <pt x="528" y="24" on="0"/>
        <pt x="412" y="21" on="0"/>
        <pt x="292" y="16" on="0"/>
        <pt x="188" y="11" on="0"/>
        <pt x="113" y="4" on="0"/>
      </contour>
      <contour>
        <pt x="687" y="242" on="1"/>
        <pt x="729" y="231" on="0"/>
        <pt x="826" y="220" on="0"/>
        <pt x="874" y="220" on="1"/>
        <pt x="940" y="220" on="0"/>
        <pt x="1051" y="280" on="0"/>
        <pt x="1133" y="410" on="0"/>
        <pt x="1179" y="615" on="0"/>
        <pt x="1179" y="759" on="1"/>
        <pt x="1179" y="980" on="0"/>
        <pt x="1032" y="1210" on="0"/>
        <pt x="884" y="1210" on="1"/>
        <pt x="862" y="1210" on="0"/>
        <pt x="810" y="1207" on="0"/>
        <pt x="758" y="1200" on="0"/>
        <pt x="707" y="1189" on="0"/>
        <pt x="686" y="1181" on="1"/>
        <pt x="680" y="1133" on="0"/>
        <pt x="675" y="956" on="0"/>
        <pt x="675" y="848" on="1"/>
        <pt x="675" y="764" on="0"/>
        <pt x="677" y="587" on="0"/>
        <pt x="681" y="424" on="0"/>
        <pt x="685" y="287" on="0"/>
      </contour>
    </TTGlyph>
    <TTGlyph name="Dcaron" xMin="100" yMin="0" xMax="1662" yMax="2010">
      <component glyphName="D" x="0" y="0" flags="0x1204"/>
      <component glyphName="caron.cap" x="266" y="0" flags="0x1004"/>
    </TTGlyph>
    <TTGlyph name="Dcroat" xMin="100" yMin="0" xMax="1603" yMax="1440">
      <contour>
        <pt x="100" y="0" on="1"/>
        <pt x="106" y="25" on="0"/>
        <pt x="115" y="96" on="0"/>
        <pt x="115" y="134" on="1"/>
        <pt x="115" y="169" on="0"/>
        <pt x="105" y="236" on="0"/>
        <pt x="100" y="260" on="1"/>
        <pt x="145" y="260" on="0"/>
        <pt x="213" y="274" on="0"/>
        <pt x="259" y="307" on="0"/>
        <pt x="282" y="364" on="0"/>
        <pt x="282" y="407" on="1"/>
        <pt x="282" y="576" on="1"/>
        <pt x="282" y="611" on="0"/>
        <pt x="246" y="656" on="0"/>
        <pt x="192" y="656" on="1"/>
        <pt x="175" y="656" on="0"/>
        <pt x="135" y="651" on="0"/>
        <pt x="110" y="648" on="1"/>
        <pt x="115" y="677" on="0"/>
        <pt x="119" y="745" on="0"/>
        <pt x="119" y="780" on="1"/>
        <pt x="119" y="811" on="0"/>
        <pt x="117" y="874" on="0"/>
        <pt x="110" y="900" on="1"/>
        <pt x="159" y="894" on="0"/>
        <pt x="193" y="894" on="1"/>
        <pt x="242" y="894" on="0"/>
        <pt x="282" y="928" on="0"/>
        <pt x="282" y="968" on="1"/>
        <pt x="282" y="1033" on="1"/>
        <pt x="282" y="1076" on="0"/>
        <pt x="259" y="1133" on="0"/>
        <pt x="213" y="1166" on="0"/>
        <pt x="145" y="1180" on="0"/>
        <pt x="100" y="1180" on="1"/>
        <pt x="105" y="1204" on="0"/>
        <pt x="115" y="1271" on="0"/>
        <pt x="115" y="1306" on="1"/>
        <pt x="115" y="1344" on="0"/>
        <pt x="106" y="1415" on="0"/>
        <pt x="100" y="1440" on="1"/>
        <pt x="113" y="1435" on="0"/>
        <pt x="189" y="1425" on="0"/>
        <pt x="292" y="1418" on="0"/>
        <pt x="412" y="1412" on="0"/>
        <pt x="528" y="1407" on="0"/>
        <pt x="629" y="1405" on="0"/>
        <pt x="662" y="1405" on="1"/>
        <pt x="749" y="1405" on="0"/>
        <pt x="909" y="1408" on="0"/>
        <pt x="1042" y="1416" on="0"/>
        <pt x="1139" y="1430" on="0"/>
        <pt x="1163" y="1440" on="1"/>
        <pt x="1165" y="1419" on="0"/>
        <pt x="1200" y="1372" on="0"/>
        <pt x="1254" y="1325" on="0"/>
        <pt x="1322" y="1281" on="0"/>
        <pt x="1393" y="1246" on="0"/>
        <pt x="1459" y="1225" on="0"/>
        <pt x="1485" y="1224" on="1"/>
        <pt x="1480" y="1194" on="0"/>
        <pt x="1475" y="1132" on="0"/>
        <pt x="1475" y="1101" on="1"/>
        <pt x="1475" y="1034" on="0"/>
        <pt x="1496" y="909" on="0"/>
        <pt x="1531" y="808" on="0"/>
        <pt x="1577" y="742" on="0"/>
        <pt x="1603" y="735" on="1"/>
        <pt x="1576" y="729" on="0"/>
        <pt x="1529" y="665" on="0"/>
        <pt x="1494" y="564" on="0"/>
        <pt x="1475" y="432" on="0"/>
        <pt x="1475" y="359" on="1"/>
        <pt x="1475" y="324" on="0"/>
        <pt x="1480" y="252" on="0"/>
        <pt x="1485" y="216" on="1"/>
        <pt x="1459" y="215" on="0"/>
        <pt x="1394" y="195" on="0"/>
        <pt x="1325" y="162" on="0"/>
        <pt x="1258" y="120" on="0"/>
        <pt x="1204" y="72" on="0"/>
        <pt x="1167" y="23" on="0"/>
        <pt x="1163" y="0" on="1"/>
        <pt x="1139" y="7" on="0"/>
        <pt x="1042" y="17" on="0"/>
        <pt x="909" y="23" on="0"/>
        <pt x="749" y="25" on="0"/>
        <pt x="662" y="25" on="1"/>
        <pt x="629" y="25" on="0"/>
        <pt x="528" y="24" on="0"/>
        <pt x="412" y="21" on="0"/>
        <pt x="292" y="16" on="0"/>
        <pt x="188" y="11" on="0"/>
        <pt x="113" y="4" on="0"/>
      </contour>
      <contour>
        <pt x="686" y="239" on="1"/>
        <pt x="714" y="229" on="0"/>
        <pt x="771" y="220" on="0"/>
        <pt x="815" y="220" on="1"/>
        <pt x="881" y="220" on="0"/>
        <pt x="993" y="280" on="0"/>
        <pt x="1075" y="410" on="0"/>
        <pt x="1122" y="615" on="0"/>
        <pt x="1122" y="759" on="1"/>
        <pt x="1122" y="980" on="0"/>
        <pt x="973" y="1210" on="0"/>
        <pt x="825" y="1210" on="1"/>
        <pt x="783" y="1210" on="0"/>
        <pt x="714" y="1199" on="0"/>
        <pt x="685" y="1185" on="1"/>
        <pt x="682" y="1164" on="0"/>
        <pt x="677" y="1105" on="0"/>
        <pt x="674" y="1048" on="0"/>
        <pt x="672" y="1001" on="0"/>
        <pt x="672" y="991" on="1"/>
        <pt x="672" y="941" on="0"/>
        <pt x="730" y="892" on="0"/>
        <pt x="804" y="892" on="1"/>
        <pt x="820" y="892" on="0"/>
        <pt x="848" y="895" on="0"/>
        <pt x="880" y="899" on="0"/>
        <pt x="919" y="906" on="0"/>
        <pt x="946" y="910" on="1"/>
        <pt x="939" y="884" on="0"/>
        <pt x="937" y="814" on="0"/>
        <pt x="937" y="777" on="1"/>
        <pt x="937" y="692" on="0"/>
        <pt x="946" y="635" on="1"/>
        <pt x="918" y="638" on="0"/>
        <pt x="878" y="643" on="0"/>
        <pt x="846" y="646" on="0"/>
        <pt x="818" y="648" on="0"/>
        <pt x="802" y="648" on="1"/>
        <pt x="764" y="648" on="0"/>
        <pt x="714" y="639" on="0"/>
        <pt x="685" y="620" on="0"/>
        <pt x="673" y="591" on="0"/>
        <pt x="673" y="572" on="1"/>
        <pt x="673" y="540" on="0"/>
        <pt x="675" y="458" on="0"/>
        <pt x="678" y="368" on="0"/>
        <pt x="683" y="278" on="0"/>
      </contour>
    </TTGlyph>
    <TTGlyph name="Delta" xMin="8" yMin="0" xMax="1702" yMax="1440">
      <contour>
        <pt x="8" y="0" on="1"/>
        <pt x="13" y="25" on="0"/>
        <pt x="20" y="98" on="0"/>
        <pt x="20" y="137" on="1"/>
        <pt x="20" y="174" on="0"/>
        <pt x="10" y="236" on="0"/>
        <pt x="10" y="260" on="1"/>
        <pt x="29" y="260" on="0"/>
        <pt x="79" y="301" on="0"/>
        <pt x="132" y="368" on="0"/>
        <pt x="182" y="455" on="0"/>
        <pt x="222" y="548" on="0"/>
        <pt x="247" y="641" on="0"/>
        <pt x="247" y="680" on="1"/>
        <pt x="247" y="697" on="0"/>
        <pt x="237" y="731" on="0"/>
        <pt x="225" y="735" on="1"/>
        <pt x="261" y="743" on="0"/>
        <pt x="334" y="815" on="0"/>
        <pt x="400" y="922" on="0"/>
        <pt x="459" y="1053" on="0"/>
        <pt x="501" y="1186" on="0"/>
        <pt x="526" y="1312" on="0"/>
        <pt x="526" y="1361" on="1"/>
        <pt x="526" y="1378" on="0"/>
        <pt x="521" y="1408" on="0"/>
        <pt x="521" y="1419" on="1"/>
        <pt x="521" y="1424" on="0"/>
        <pt x="522" y="1432" on="0"/>
        <pt x="522" y="1440" on="1"/>
        <pt x="545" y="1431" on="0"/>
        <pt x="614" y="1418" on="0"/>
        <pt x="700" y="1409" on="0"/>
        <pt x="798" y="1405" on="0"/>
        <pt x="851" y="1405" on="1"/>
        <pt x="897" y="1405" on="0"/>
        <pt x="993" y="1409" on="0"/>
        <pt x="1083" y="1418" on="0"/>
        <pt x="1161" y="1431" on="0"/>
        <pt x="1187" y="1440" on="1"/>
        <pt x="1187" y="1436" on="1"/>
        <pt x="1187" y="1427" on="1"/>
        <pt x="1187" y="1416" on="0"/>
        <pt x="1180" y="1382" on="0"/>
        <pt x="1180" y="1362" on="1"/>
        <pt x="1180" y="1316" on="0"/>
        <pt x="1201" y="1192" on="0"/>
        <pt x="1239" y="1059" on="0"/>
        <pt x="1291" y="928" on="0"/>
        <pt x="1355" y="819" on="0"/>
        <pt x="1428" y="745" on="0"/>
        <pt x="1467" y="735" on="1"/>
        <pt x="1453" y="730" on="0"/>
        <pt x="1442" y="701" on="0"/>
        <pt x="1442" y="680" on="1"/>
        <pt x="1442" y="636" on="0"/>
        <pt x="1467" y="540" on="0"/>
        <pt x="1508" y="447" on="0"/>
        <pt x="1561" y="362" on="0"/>
        <pt x="1617" y="298" on="0"/>
        <pt x="1673" y="260" on="0"/>
        <pt x="1696" y="260" on="1"/>
        <pt x="1700" y="260" on="1"/>
        <pt x="1692" y="236" on="0"/>
        <pt x="1690" y="173" on="0"/>
        <pt x="1690" y="137" on="1"/>
        <pt x="1690" y="98" on="0"/>
        <pt x="1697" y="25" on="0"/>
        <pt x="1702" y="0" on="1"/>
        <pt x="1628" y="4" on="0"/>
        <pt x="1425" y="13" on="0"/>
        <pt x="1186" y="20" on="0"/>
        <pt x="923" y="25" on="0"/>
        <pt x="790" y="25" on="1"/>
        <pt x="694" y="25" on="0"/>
        <pt x="494" y="23" on="0"/>
        <pt x="293" y="17" on="0"/>
        <pt x="98" y="7" on="0"/>
      </contour>
      <contour>
        <pt x="412" y="291" on="1"/>
        <pt x="437" y="281" on="0"/>
        <pt x="510" y="269" on="0"/>
        <pt x="592" y="262" on="0"/>
        <pt x="677" y="259" on="0"/>
        <pt x="750" y="259" on="0"/>
        <pt x="806" y="260" on="0"/>
        <pt x="817" y="260" on="1"/>
        <pt x="858" y="260" on="0"/>
        <pt x="958" y="262" on="0"/>
        <pt x="1056" y="268" on="0"/>
        <pt x="1143" y="282" on="0"/>
        <pt x="1170" y="294" on="1"/>
        <pt x="1161" y="340" on="0"/>
        <pt x="1108" y="480" on="0"/>
        <pt x="1037" y="642" on="0"/>
        <pt x="954" y="816" on="0"/>
        <pt x="877" y="979" on="0"/>
        <pt x="812" y="1117" on="0"/>
        <pt x="794" y="1163" on="1"/>
        <pt x="738" y="1040" on="0"/>
        <pt x="634" y="823" on="0"/>
        <pt x="539" y="615" on="0"/>
        <pt x="452" y="406" on="0"/>
      </contour>
    </TTGlyph>
    <TTGlyph name="E" xMin="100" yMin="0" xMax="1434" yMax="1440">
      <contour>
        <pt x="100" y="0" on="1"/>
        <pt x="106" y="25" on="0"/>
        <pt x="115" y="96" on="0"/>
        <pt x="115" y="134" on="1"/>
        <pt x="115" y="169" on="0"/>
        <pt x="105" y="236" on="0"/>
        <pt x="100" y="260" on="1"/>
        <pt x="145" y="260" on="0"/>
        <pt x="213" y="274" on="0"/>
        <pt x="259" y="307" on="0"/>
        <pt x="282" y="364" on="0"/>
        <pt x="282" y="407" on="1"/>
        <pt x="282" y="491" on="0"/>
        <pt x="273" y="611" on="0"/>
        <pt x="256" y="689" on="0"/>
        <pt x="230" y="730" on="0"/>
        <pt x="213" y="735" on="1"/>
        <pt x="231" y="741" on="0"/>
        <pt x="257" y="767" on="0"/>
        <pt x="274" y="830" on="0"/>
        <pt x="282" y="941" on="0"/>
        <pt x="282" y="1033" on="1"/>
        <pt x="282" y="1076" on="0"/>
        <pt x="259" y="1133" on="0"/>
        <pt x="213" y="1166" on="0"/>
        <pt x="145" y="1180" on="0"/>
        <pt x="100" y="1180" on="1"/>
        <pt x="105" y="1204" on="0"/>
        <pt x="115" y="1271" on="0"/>
        <pt x="115" y="1306" on="1"/>
        <pt x="115" y="1344" on="0"/>
        <pt x="106" y="1415" on="0"/>
        <pt x="100" y="1440" on="1"/>
        <pt x="120" y="1435" on="0"/>
        <pt x="218" y="1426" on="0"/>
        <pt x="348" y="1418" on="0"/>
        <pt x="496" y="1412" on="0"/>
        <pt x="637" y="1407" on="0"/>
        <pt x="756" y="1405" on="0"/>
        <pt x="792" y="1405" on="1"/>
        <pt x="828" y="1405" on="0"/>
        <pt x="940" y="1407" on="0"/>
        <pt x="1069" y="1412" on="0"/>
        <pt x="1204" y="1418" on="0"/>
        <pt x="1323" y="1426" on="0"/>
        <pt x="1414" y="1435" on="0"/>
        <pt x="1434" y="1440" on="1"/>
        <pt x="1426" y="1398" on="0"/>
        <pt x="1409" y="1269" on="0"/>
        <pt x="1409" y="1197" on="1"/>
        <pt x="1409" y="1155" on="0"/>
        <pt x="1415" y="1074" on="0"/>
        <pt x="1422" y="1007" on="0"/>
        <pt x="1431" y="957" on="0"/>
        <pt x="1434" y="945" on="1"/>
        <pt x="1419" y="951" on="0"/>
        <pt x="1374" y="960" on="0"/>
        <pt x="1322" y="967" on="0"/>
        <pt x="1266" y="970" on="0"/>
        <pt x="1240" y="970" on="1"/>
        <pt x="1194" y="970" on="0"/>
        <pt x="1102" y="959" on="0"/>
        <pt x="1060" y="945" on="1"/>
        <pt x="1067" y="966" on="0"/>
        <pt x="1076" y="1026" on="0"/>
        <pt x="1076" y="1057" on="1"/>
        <pt x="1076" y="1108" on="0"/>
        <pt x="1041" y="1169" on="0"/>
        <pt x="987" y="1201" on="0"/>
        <pt x="923" y="1210" on="0"/>
        <pt x="894" y="1210" on="1"/>
        <pt x="871" y="1210" on="0"/>
        <pt x="820" y="1207" on="0"/>
        <pt x="767" y="1196" on="0"/>
        <pt x="715" y="1177" on="0"/>
        <pt x="693" y="1161" on="1"/>
        <pt x="689" y="1138" on="0"/>
        <pt x="683" y="1078" on="0"/>
        <pt x="683" y="1033" on="1"/>
        <pt x="683" y="966" on="0"/>
        <pt x="688" y="891" on="0"/>
        <pt x="692" y="871" on="1"/>
        <pt x="719" y="859" on="0"/>
        <pt x="791" y="849" on="0"/>
        <pt x="829" y="849" on="1"/>
        <pt x="886" y="849" on="0"/>
        <pt x="988" y="867" on="0"/>
        <pt x="1011" y="879" on="1"/>
        <pt x="1003" y="857" on="0"/>
        <pt x="996" y="779" on="0"/>
        <pt x="996" y="736" on="1"/>
        <pt x="996" y="712" on="0"/>
        <pt x="998" y="665" on="0"/>
        <pt x="1003" y="626" on="0"/>
        <pt x="1008" y="597" on="0"/>
        <pt x="1011" y="590" on="1"/>
        <pt x="1002" y="595" on="0"/>
        <pt x="962" y="606" on="0"/>
        <pt x="909" y="616" on="0"/>
        <pt x="846" y="623" on="0"/>
        <pt x="813" y="623" on="1"/>
        <pt x="779" y="623" on="0"/>
        <pt x="717" y="615" on="0"/>
        <pt x="692" y="604" on="1"/>
        <pt x="690" y="592" on="0"/>
        <pt x="687" y="561" on="0"/>
        <pt x="684" y="514" on="0"/>
        <pt x="683" y="450" on="0"/>
        <pt x="683" y="407" on="1"/>
        <pt x="683" y="353" on="0"/>
        <pt x="691" y="286" on="0"/>
        <pt x="696" y="262" on="1"/>
        <pt x="720" y="249" on="0"/>
        <pt x="774" y="232" on="0"/>
        <pt x="829" y="223" on="0"/>
        <pt x="881" y="220" on="0"/>
        <pt x="904" y="220" on="1"/>
        <pt x="933" y="220" on="0"/>
        <pt x="994" y="235" on="0"/>
        <pt x="1044" y="276" on="0"/>
        <pt x="1076" y="349" on="0"/>
        <pt x="1076" y="406" on="1"/>
        <pt x="1076" y="442" on="0"/>
        <pt x="1067" y="512" on="0"/>
        <pt x="1060" y="535" on="1"/>
        <pt x="1102" y="521" on="0"/>
        <pt x="1194" y="510" on="0"/>
        <pt x="1240" y="510" on="1"/>
        <pt x="1266" y="510" on="0"/>
        <pt x="1322" y="513" on="0"/>
        <pt x="1374" y="520" on="0"/>
        <pt x="1419" y="529" on="0"/>
        <pt x="1434" y="535" on="1"/>
        <pt x="1431" y="522" on="0"/>
        <pt x="1422" y="468" on="0"/>
        <pt x="1415" y="395" on="0"/>
        <pt x="1409" y="308" on="0"/>
        <pt x="1409" y="263" on="1"/>
        <pt x="1409" y="224" on="0"/>
        <pt x="1414" y="149" on="0"/>
        <pt x="1421" y="81" on="0"/>
        <pt x="1430" y="22" on="0"/>
        <pt x="1434" y="0" on="1"/>
        <pt x="1414" y="4" on="0"/>
        <pt x="1323" y="11" on="0"/>
        <pt x="1204" y="16" on="0"/>
        <pt x="1069" y="21" on="0"/>
        <pt x="940" y="24" on="0"/>
        <pt x="828" y="25" on="0"/>
        <pt x="792" y="25" on="1"/>
        <pt x="756" y="25" on="0"/>
        <pt x="637" y="24" on="0"/>
        <pt x="496" y="21" on="0"/>
        <pt x="348" y="16" on="0"/>
        <pt x="218" y="11" on="0"/>
        <pt x="120" y="4" on="0"/>
      </contour>
    </TTGlyph>
    <TTGlyph name="Eacute" xMin="100" yMin="0" xMax="1434" yMax="2010">
      <component glyphName="E" x="0" y="0" flags="0x1204"/>
      <component glyphName="acute.cap" x="306" y="0" flags="0x1004"/>
    </TTGlyph>
    <TTGlyph name="Ebreve" xMin="100" yMin="0" xMax="1434" yMax="1988">
      <component glyphName="E" x="0" y="0" flags="0x1204"/>
      <component glyphName="breve.cap" x="403" y="0" flags="0x1004"/>
    </TTGlyph>
    <TTGlyph name="Ecaron" xMin="100" yMin="0" xMax="1434" yMax="2010">
      <component glyphName="E" x="0" y="0" flags="0x1204"/>
      <component glyphName="caron.cap" x="172" y="0" flags="0x1004"/>
    </TTGlyph>
    <TTGlyph name="Ecircumflex" xMin="100" yMin="0" xMax="1434" yMax="2010">
      <component glyphName="E" x="0" y="0" flags="0x1204"/>
      <component glyphName="circumflex.cap" x="316" y="0" flags="0x1004"/>
    </TTGlyph>
    <TTGlyph name="Edieresis" xMin="100" yMin="0" xMax="1434" yMax="2010">
      <component glyphName="E" x="0" y="0" flags="0x1204"/>
      <component glyphName="dieresis.cap" x="247" y="0" flags="0x1004"/>
    </TTGlyph>
    <TTGlyph name="Edotaccent" xMin="100" yMin="0" xMax="1434" yMax="2010">
      <component glyphName="E" x="0" y="0" flags="0x1204"/>
      <component glyphName="dotaccent.cap" x="403" y="0" flags="0x1004"/>
    </TTGlyph>
    <TTGlyph name="Egrave" xMin="100" yMin="0" xMax="1434" yMax="2010">
      <component glyphName="E" x="0" y="0" flags="0x1204"/>
      <component glyphName="grave.cap" x="345" y="0" flags="0x1004"/>
    </TTGlyph>
    <TTGlyph name="Emacron" xMin="100" yMin="0" xMax="1434" yMax="1860">
      <component glyphName="E" x="0" y="0" flags="0x1204"/>
      <component glyphName="macron.cap" x="226" y="0" flags="0x1004"/>
    </TTGlyph>
    <TTGlyph name="Eng" xMin="100" yMin="-550" xMax="1835" yMax="1440">
      <contour>
        <pt x="100" y="0" on="1"/>
        <pt x="106" y="25" on="0"/>
        <pt x="115" y="96" on="0"/>
        <pt x="115" y="134" on="1"/>
        <pt x="115" y="169" on="0"/>
        <pt x="105" y="236" on="0"/>
        <pt x="100" y="260" on="1"/>
        <pt x="145" y="260" on="0"/>
        <pt x="213" y="274" on="0"/>
        <pt x="259" y="307" on="0"/>
        <pt x="282" y="364" on="0"/>
        <pt x="282" y="407" on="1"/>
        <pt x="282" y="491" on="0"/>
        <pt x="273" y="611" on="0"/>
        <pt x="256" y="689" on="0"/>
        <pt x="230" y="730" on="0"/>
        <pt x="213" y="735" on="1"/>
        <pt x="231" y="741" on="0"/>
        <pt x="257" y="772" on="0"/>
        <pt x="274" y="842" on="0"/>
        <pt x="282" y="959" on="0"/>
        <pt x="282" y="1051" on="1"/>
        <pt x="282" y="1091" on="0"/>
        <pt x="256" y="1141" on="0"/>
        <pt x="212" y="1170" on="0"/>
        <pt x="153" y="1180" on="0"/>
        <pt x="119" y="1180" on="1"/>
        <pt x="100" y="1180" on="1"/>
        <pt x="105" y="1204" on="0"/>
        <pt x="115" y="1267" on="0"/>
        <pt x="115" y="1302" on="1"/>
        <pt x="115" y="1339" on="0"/>
        <pt x="106" y="1415" on="0"/>
        <pt x="100" y="1440" on="1"/>
        <pt x="119" y="1433" on="0"/>
        <pt x="168" y="1421" on="0"/>
        <pt x="234" y="1411" on="0"/>
        <pt x="321" y="1405" on="0"/>
        <pt x="378" y="1405" on="1"/>
        <pt x="453" y="1405" on="0"/>
        <pt x="595" y="1422" on="0"/>
        <pt x="655" y="1433" on="1"/>
        <pt x="655" y="1385" on="0"/>
        <pt x="697" y="1263" on="0"/>
        <pt x="767" y="1129" on="0"/>
        <pt x="859" y="990" on="0"/>
        <pt x="957" y="860" on="0"/>
        <pt x="1056" y="745" on="0"/>
        <pt x="1141" y="660" on="0"/>
        <pt x="1205" y="610" on="0"/>
        <pt x="1220" y="610" on="1"/>
        <pt x="1222" y="610" on="1"/>
        <pt x="1223" y="610" on="0"/>
        <pt x="1226" y="609" on="0"/>
        <pt x="1228" y="609" on="1"/>
        <pt x="1236" y="639" on="0"/>
        <pt x="1245" y="731" on="0"/>
        <pt x="1250" y="847" on="0"/>
        <pt x="1252" y="980" on="0"/>
        <pt x="1252" y="1051" on="1"/>
        <pt x="1252" y="1091" on="0"/>
        <pt x="1226" y="1141" on="0"/>
        <pt x="1182" y="1170" on="0"/>
        <pt x="1123" y="1180" on="0"/>
        <pt x="1089" y="1180" on="1"/>
        <pt x="1070" y="1180" on="1"/>
        <pt x="1075" y="1204" on="0"/>
        <pt x="1085" y="1267" on="0"/>
        <pt x="1085" y="1302" on="1"/>
        <pt x="1085" y="1339" on="0"/>
        <pt x="1076" y="1415" on="0"/>
        <pt x="1070" y="1440" on="1"/>
        <pt x="1089" y="1433" on="0"/>
        <pt x="1171" y="1421" on="0"/>
        <pt x="1277" y="1411" on="0"/>
        <pt x="1396" y="1405" on="0"/>
        <pt x="1453" y="1405" on="1"/>
        <pt x="1511" y="1405" on="0"/>
        <pt x="1630" y="1411" on="0"/>
        <pt x="1735" y="1421" on="0"/>
        <pt x="1815" y="1433" on="0"/>
        <pt x="1835" y="1440" on="1"/>
        <pt x="1829" y="1415" on="0"/>
        <pt x="1820" y="1339" on="0"/>
        <pt x="1820" y="1302" on="1"/>
        <pt x="1820" y="1267" on="0"/>
        <pt x="1830" y="1204" on="0"/>
        <pt x="1835" y="1180" on="1"/>
        <pt x="1814" y="1180" on="1"/>
        <pt x="1778" y="1180" on="0"/>
        <pt x="1718" y="1170" on="0"/>
        <pt x="1676" y="1141" on="0"/>
        <pt x="1653" y="1091" on="0"/>
        <pt x="1653" y="1051" on="1"/>
        <pt x="1653" y="959" on="0"/>
        <pt x="1664" y="842" on="0"/>
        <pt x="1685" y="772" on="0"/>
        <pt x="1714" y="741" on="0"/>
        <pt x="1732" y="735" on="1"/>
        <pt x="1696" y="696" on="0"/>
        <pt x="1657" y="569" on="0"/>
        <pt x="1641" y="408" on="0"/>
        <pt x="1639" y="222" on="0"/>
        <pt x="1639" y="126" on="1"/>
        <pt x="1639" y="65" on="0"/>
        <pt x="1642" y="-66" on="0"/>
        <pt x="1653" y="-178" on="0"/>
        <pt x="1672" y="-258" on="0"/>
        <pt x="1689" y="-269" on="1"/>
        <pt x="1644" y="-275" on="0"/>
        <pt x="1538" y="-329" on="0"/>
        <pt x="1444" y="-408" on="0"/>
        <pt x="1374" y="-503" on="0"/>
        <pt x="1364" y="-550" on="1"/>
        <pt x="1336" y="-532" on="0"/>
        <pt x="1183" y="-512" on="0"/>
        <pt x="1074" y="-512" on="1"/>
        <pt x="956" y="-512" on="0"/>
        <pt x="791" y="-534" on="0"/>
        <pt x="751" y="-550" on="1"/>
        <pt x="749" y="-526" on="0"/>
        <pt x="705" y="-478" on="0"/>
        <pt x="629" y="-440" on="0"/>
        <pt x="526" y="-415" on="0"/>
        <pt x="466" y="-414" on="1"/>
        <pt x="475" y="-385" on="0"/>
        <pt x="491" y="-300" on="0"/>
        <pt x="491" y="-246" on="1"/>
        <pt x="491" y="-222" on="0"/>
        <pt x="488" y="-172" on="0"/>
        <pt x="481" y="-127" on="0"/>
        <pt x="472" y="-91" on="0"/>
        <pt x="466" y="-82" on="1"/>
        <pt x="492" y="-88" on="0"/>
        <pt x="569" y="-97" on="0"/>
        <pt x="659" y="-104" on="0"/>
        <pt x="758" y="-107" on="0"/>
        <pt x="806" y="-107" on="1"/>
        <pt x="830" y="-107" on="0"/>
        <pt x="886" y="-105" on="0"/>
        <pt x="942" y="-99" on="0"/>
        <pt x="995" y="-89" on="0"/>
        <pt x="1016" y="-82" on="1"/>
        <pt x="1001" y="-120" on="0"/>
        <pt x="989" y="-186" on="0"/>
        <pt x="989" y="-220" on="1"/>
        <pt x="989" y="-269" on="0"/>
        <pt x="1054" y="-327" on="0"/>
        <pt x="1111" y="-327" on="1"/>
        <pt x="1179" y="-327" on="0"/>
        <pt x="1263" y="-216" on="0"/>
        <pt x="1263" y="-102" on="1"/>
        <pt x="1263" y="-17" on="0"/>
        <pt x="1208" y="162" on="0"/>
        <pt x="1118" y="337" on="0"/>
        <pt x="1002" y="501" on="0"/>
        <pt x="880" y="640" on="0"/>
        <pt x="762" y="748" on="0"/>
        <pt x="715" y="779" on="1"/>
        <pt x="696" y="736" on="0"/>
        <pt x="683" y="540" on="0"/>
        <pt x="683" y="407" on="1"/>
        <pt x="683" y="364" on="0"/>
        <pt x="702" y="307" on="0"/>
        <pt x="746" y="274" on="0"/>
        <pt x="815" y="260" on="0"/>
        <pt x="865" y="260" on="1"/>
        <pt x="860" y="236" on="0"/>
        <pt x="850" y="169" on="0"/>
        <pt x="850" y="134" on="1"/>
        <pt x="850" y="96" on="0"/>
        <pt x="859" y="25" on="0"/>
        <pt x="865" y="0" on="1"/>
        <pt x="836" y="6" on="0"/>
        <pt x="748" y="15" on="0"/>
        <pt x="644" y="22" on="0"/>
        <pt x="534" y="25" on="0"/>
        <pt x="483" y="25" on="1"/>
        <pt x="432" y="25" on="0"/>
        <pt x="321" y="22" on="0"/>
        <pt x="217" y="15" on="0"/>
        <pt x="128" y="6" on="0"/>
      </contour>
    </TTGlyph>
    <TTGlyph name="Eogonek" xMin="100" yMin="-550" xMax="1435" yMax="1440">
      <contour>
        <pt x="100" y="0" on="1"/>
        <pt x="106" y="25" on="0"/>
        <pt x="115" y="96" on="0"/>
        <pt x="115" y="134" on="1"/>
        <pt x="115" y="169" on="0"/>
        <pt x="105" y="236" on="0"/>
        <pt x="100" y="260" on="1"/>
        <pt x="145" y="260" on="0"/>
        <pt x="213" y="274" on="0"/>
        <pt x="259" y="307" on="0"/>
        <pt x="282" y="364" on="0"/>
        <pt x="282" y="407" on="1"/>
        <pt x="282" y="491" on="0"/>
        <pt x="273" y="611" on="0"/>
        <pt x="256" y="689" on="0"/>
        <pt x="230" y="730" on="0"/>
        <pt x="213" y="735" on="1"/>
        <pt x="231" y="741" on="0"/>
        <pt x="257" y="767" on="0"/>
        <pt x="274" y="830" on="0"/>
        <pt x="282" y="941" on="0"/>
        <pt x="282" y="1033" on="1"/>
        <pt x="282" y="1076" on="0"/>
        <pt x="259" y="1133" on="0"/>
        <pt x="213" y="1166" on="0"/>
        <pt x="145" y="1180" on="0"/>
        <pt x="100" y="1180" on="1"/>
        <pt x="105" y="1204" on="0"/>
        <pt x="115" y="1271" on="0"/>
        <pt x="115" y="1306" on="1"/>
        <pt x="115" y="1344" on="0"/>
        <pt x="106" y="1415" on="0"/>
        <pt x="100" y="1440" on="1"/>
        <pt x="120" y="1435" on="0"/>
        <pt x="218" y="1426" on="0"/>
        <pt x="348" y="1418" on="0"/>
        <pt x="496" y="1412" on="0"/>
        <pt x="637" y="1407" on="0"/>
        <pt x="756" y="1405" on="0"/>
        <pt x="792" y="1405" on="1"/>
        <pt x="828" y="1405" on="0"/>
        <pt x="940" y="1407" on="0"/>
        <pt x="1069" y="1412" on="0"/>
        <pt x="1205" y="1418" on="0"/>
        <pt x="1324" y="1426" on="0"/>
        <pt x="1415" y="1435" on="0"/>
        <pt x="1435" y="1440" on="1"/>
        <pt x="1427" y="1398" on="0"/>
        <pt x="1410" y="1269" on="0"/>
        <pt x="1410" y="1197" on="1"/>
        <pt x="1410" y="1155" on="0"/>
        <pt x="1416" y="1074" on="0"/>
        <pt x="1423" y="1007" on="0"/>
        <pt x="1432" y="957" on="0"/>
        <pt x="1435" y="945" on="1"/>
        <pt x="1420" y="951" on="0"/>
        <pt x="1375" y="960" on="0"/>
        <pt x="1322" y="967" on="0"/>
        <pt x="1266" y="970" on="0"/>
        <pt x="1240" y="970" on="1"/>
        <pt x="1194" y="970" on="0"/>
        <pt x="1102" y="959" on="0"/>
        <pt x="1060" y="945" on="1"/>
        <pt x="1067" y="966" on="0"/>
        <pt x="1076" y="1026" on="0"/>
        <pt x="1076" y="1057" on="1"/>
        <pt x="1076" y="1108" on="0"/>
        <pt x="1041" y="1169" on="0"/>
        <pt x="987" y="1201" on="0"/>
        <pt x="923" y="1210" on="0"/>
        <pt x="894" y="1210" on="1"/>
        <pt x="871" y="1210" on="0"/>
        <pt x="820" y="1207" on="0"/>
        <pt x="767" y="1196" on="0"/>
        <pt x="715" y="1177" on="0"/>
        <pt x="693" y="1161" on="1"/>
        <pt x="689" y="1138" on="0"/>
        <pt x="683" y="1078" on="0"/>
        <pt x="683" y="1033" on="1"/>
        <pt x="683" y="966" on="0"/>
        <pt x="688" y="891" on="0"/>
        <pt x="692" y="871" on="1"/>
        <pt x="719" y="859" on="0"/>
        <pt x="791" y="849" on="0"/>
        <pt x="829" y="849" on="1"/>
        <pt x="886" y="849" on="0"/>
        <pt x="988" y="867" on="0"/>
        <pt x="1011" y="879" on="1"/>
        <pt x="1003" y="857" on="0"/>
        <pt x="996" y="779" on="0"/>
        <pt x="996" y="736" on="1"/>
        <pt x="996" y="712" on="0"/>
        <pt x="998" y="665" on="0"/>
        <pt x="1003" y="626" on="0"/>
        <pt x="1008" y="597" on="0"/>
        <pt x="1011" y="590" on="1"/>
        <pt x="1002" y="595" on="0"/>
        <pt x="962" y="606" on="0"/>
        <pt x="909" y="616" on="0"/>
        <pt x="846" y="623" on="0"/>
        <pt x="813" y="623" on="1"/>
        <pt x="779" y="623" on="0"/>
        <pt x="717" y="615" on="0"/>
        <pt x="692" y="604" on="1"/>
        <pt x="690" y="592" on="0"/>
        <pt x="687" y="561" on="0"/>
        <pt x="684" y="514" on="0"/>
        <pt x="683" y="450" on="0"/>
        <pt x="683" y="407" on="1"/>
        <pt x="683" y="353" on="0"/>
        <pt x="691" y="286" on="0"/>
        <pt x="696" y="262" on="1"/>
        <pt x="720" y="249" on="0"/>
        <pt x="774" y="232" on="0"/>
        <pt x="829" y="223" on="0"/>
        <pt x="881" y="220" on="0"/>
        <pt x="904" y="220" on="1"/>
        <pt x="933" y="220" on="0"/>
        <pt x="994" y="235" on="0"/>
        <pt x="1044" y="276" on="0"/>
        <pt x="1076" y="349" on="0"/>
        <pt x="1076" y="406" on="1"/>
        <pt x="1076" y="442" on="0"/>
        <pt x="1067" y="512" on="0"/>
        <pt x="1060" y="535" on="1"/>
        <pt x="1102" y="521" on="0"/>
        <pt x="1194" y="510" on="0"/>
        <pt x="1240" y="510" on="1"/>
        <pt x="1266" y="510" on="0"/>
        <pt x="1322" y="513" on="0"/>
        <pt x="1375" y="520" on="0"/>
        <pt x="1420" y="529" on="0"/>
        <pt x="1435" y="535" on="1"/>
        <pt x="1432" y="522" on="0"/>
        <pt x="1423" y="468" on="0"/>
        <pt x="1416" y="395" on="0"/>
        <pt x="1410" y="308" on="0"/>
        <pt x="1410" y="263" on="1"/>
        <pt x="1410" y="224" on="0"/>
        <pt x="1415" y="149" on="0"/>
        <pt x="1422" y="81" on="0"/>
        <pt x="1431" y="22" on="0"/>
        <pt x="1435" y="0" on="1"/>
        <pt x="1416" y="1" on="0"/>
        <pt x="1380" y="2" on="0"/>
        <pt x="1362" y="2" on="1"/>
        <pt x="1266" y="2" on="0"/>
        <pt x="1101" y="-28" on="0"/>
        <pt x="979" y="-92" on="0"/>
        <pt x="909" y="-190" on="0"/>
        <pt x="909" y="-257" on="1"/>
        <pt x="909" y="-281" on="0"/>
        <pt x="920" y="-325" on="0"/>
        <pt x="943" y="-359" on="0"/>
        <pt x="977" y="-379" on="0"/>
        <pt x="1001" y="-379" on="1"/>
        <pt x="1025" y="-379" on="0"/>
        <pt x="1071" y="-356" on="0"/>
        <pt x="1107" y="-307" on="0"/>
        <pt x="1129" y="-227" on="0"/>
        <pt x="1129" y="-170" on="1"/>
        <pt x="1174" y="-183" on="0"/>
        <pt x="1241" y="-183" on="1"/>
        <pt x="1283" y="-183" on="0"/>
        <pt x="1364" y="-177" on="0"/>
        <pt x="1402" y="-170" on="1"/>
        <pt x="1399" y="-178" on="0"/>
        <pt x="1394" y="-208" on="0"/>
        <pt x="1391" y="-245" on="0"/>
        <pt x="1389" y="-284" on="0"/>
        <pt x="1389" y="-300" on="1"/>
        <pt x="1389" y="-335" on="0"/>
        <pt x="1391" y="-394" on="0"/>
        <pt x="1395" y="-408" on="1"/>
        <pt x="1354" y="-408" on="0"/>
        <pt x="1285" y="-439" on="0"/>
        <pt x="1230" y="-483" on="0"/>
        <pt x="1191" y="-532" on="0"/>
        <pt x="1181" y="-550" on="1"/>
        <pt x="1153" y="-534" on="0"/>
        <pt x="1049" y="-514" on="0"/>
        <pt x="968" y="-514" on="1"/>
        <pt x="944" y="-514" on="0"/>
        <pt x="899" y="-520" on="0"/>
        <pt x="860" y="-530" on="0"/>
        <pt x="831" y="-543" on="0"/>
        <pt x="824" y="-550" on="1"/>
        <pt x="817" y="-531" on="0"/>
        <pt x="764" y="-492" on="0"/>
        <pt x="689" y="-460" on="0"/>
        <pt x="599" y="-439" on="0"/>
        <pt x="555" y="-439" on="1"/>
        <pt x="564" y="-419" on="0"/>
        <pt x="575" y="-330" on="0"/>
        <pt x="575" y="-279" on="1"/>
        <pt x="575" y="-227" on="0"/>
        <pt x="566" y="-136" on="0"/>
        <pt x="555" y="-108" on="1"/>
        <pt x="594" y="-103" on="0"/>
        <pt x="675" y="-78" on="0"/>
        <pt x="750" y="-43" on="0"/>
        <pt x="816" y="1" on="0"/>
        <pt x="841" y="25" on="1"/>
        <pt x="792" y="25" on="1"/>
        <pt x="756" y="25" on="0"/>
        <pt x="637" y="24" on="0"/>
        <pt x="496" y="21" on="0"/>
        <pt x="348" y="16" on="0"/>
        <pt x="218" y="11" on="0"/>
        <pt x="120" y="4" on="0"/>
      </contour>
    </TTGlyph>
    <TTGlyph name="Eth" xMin="100" yMin="0" xMax="1603" yMax="1440">
      <contour>
        <pt x="100" y="0" on="1"/>
        <pt x="106" y="25" on="0"/>
        <pt x="115" y="96" on="0"/>
        <pt x="115" y="134" on="1"/>
        <pt x="115" y="169" on="0"/>
        <pt x="105" y="236" on="0"/>
        <pt x="100" y="260" on="1"/>
        <pt x="145" y="260" on="0"/>
        <pt x="213" y="274" on="0"/>
        <pt x="259" y="307" on="0"/>
        <pt x="282" y="364" on="0"/>
        <pt x="282" y="407" on="1"/>
        <pt x="282" y="576" on="1"/>
        <pt x="282" y="611" on="0"/>
        <pt x="246" y="656" on="0"/>
        <pt x="192" y="656" on="1"/>
        <pt x="175" y="656" on="0"/>
        <pt x="135" y="651" on="0"/>
        <pt x="110" y="648" on="1"/>
        <pt x="115" y="677" on="0"/>
        <pt x="119" y="745" on="0"/>
        <pt x="119" y="780" on="1"/>
        <pt x="119" y="811" on="0"/>
        <pt x="117" y="874" on="0"/>
        <pt x="110" y="900" on="1"/>
        <pt x="159" y="894" on="0"/>
        <pt x="193" y="894" on="1"/>
        <pt x="242" y="894" on="0"/>
        <pt x="282" y="928" on="0"/>
        <pt x="282" y="968" on="1"/>
        <pt x="282" y="1033" on="1"/>
        <pt x="282" y="1076" on="0"/>
        <pt x="259" y="1133" on="0"/>
        <pt x="213" y="1166" on="0"/>
        <pt x="145" y="1180" on="0"/>
        <pt x="100" y="1180" on="1"/>
        <pt x="105" y="1204" on="0"/>
        <pt x="115" y="1271" on="0"/>
        <pt x="115" y="1306" on="1"/>
        <pt x="115" y="1344" on="0"/>
        <pt x="106" y="1415" on="0"/>
        <pt x="100" y="1440" on="1"/>
        <pt x="113" y="1435" on="0"/>
        <pt x="189" y="1425" on="0"/>
        <pt x="292" y="1418" on="0"/>
        <pt x="412" y="1412" on="0"/>
        <pt x="528" y="1407" on="0"/>
        <pt x="629" y="1405" on="0"/>
        <pt x="662" y="1405" on="1"/>
        <pt x="749" y="1405" on="0"/>
        <pt x="909" y="1408" on="0"/>
        <pt x="1042" y="1416" on="0"/>
        <pt x="1139" y="1430" on="0"/>
        <pt x="1163" y="1440" on="1"/>
        <pt x="1165" y="1419" on="0"/>
        <pt x="1200" y="1372" on="0"/>
        <pt x="1254" y="1325" on="0"/>
        <pt x="1322" y="1281" on="0"/>
        <pt x="1393" y="1246" on="0"/>
        <pt x="1459" y="1225" on="0"/>
        <pt x="1485" y="1224" on="1"/>
        <pt x="1480" y="1194" on="0"/>
        <pt x="1475" y="1132" on="0"/>
        <pt x="1475" y="1101" on="1"/>
        <pt x="1475" y="1034" on="0"/>
        <pt x="1496" y="909" on="0"/>
        <pt x="1531" y="808" on="0"/>
        <pt x="1577" y="742" on="0"/>
        <pt x="1603" y="735" on="1"/>
        <pt x="1576" y="729" on="0"/>
        <pt x="1529" y="665" on="0"/>
        <pt x="1494" y="564" on="0"/>
        <pt x="1475" y="432" on="0"/>
        <pt x="1475" y="359" on="1"/>
        <pt x="1475" y="324" on="0"/>
        <pt x="1480" y="252" on="0"/>
        <pt x="1485" y="216" on="1"/>
        <pt x="1459" y="215" on="0"/>
        <pt x="1394" y="195" on="0"/>
        <pt x="1325" y="162" on="0"/>
        <pt x="1258" y="120" on="0"/>
        <pt x="1204" y="72" on="0"/>
        <pt x="1167" y="23" on="0"/>
        <pt x="1163" y="0" on="1"/>
        <pt x="1139" y="7" on="0"/>
        <pt x="1042" y="17" on="0"/>
        <pt x="909" y="23" on="0"/>
        <pt x="749" y="25" on="0"/>
        <pt x="662" y="25" on="1"/>
        <pt x="629" y="25" on="0"/>
        <pt x="528" y="24" on="0"/>
        <pt x="412" y="21" on="0"/>
        <pt x="292" y="16" on="0"/>
        <pt x="188" y="11" on="0"/>
        <pt x="113" y="4" on="0"/>
      </contour>
      <contour>
        <pt x="686" y="239" on="1"/>
        <pt x="714" y="229" on="0"/>
        <pt x="771" y="220" on="0"/>
        <pt x="815" y="220" on="1"/>
        <pt x="881" y="220" on="0"/>
        <pt x="993" y="280" on="0"/>
        <pt x="1075" y="410" on="0"/>
        <pt x="1122" y="615" on="0"/>
        <pt x="1122" y="759" on="1"/>
        <pt x="1122" y="980" on="0"/>
        <pt x="973" y="1210" on="0"/>
        <pt x="825" y="1210" on="1"/>
        <pt x="783" y="1210" on="0"/>
        <pt x="714" y="1199" on="0"/>
        <pt x="685" y="1185" on="1"/>
        <pt x="682" y="1164" on="0"/>
        <pt x="677" y="1105" on="0"/>
        <pt x="674" y="1048" on="0"/>
        <pt x="672" y="1001" on="0"/>
        <pt x="672" y="991" on="1"/>
        <pt x="672" y="941" on="0"/>
        <pt x="730" y="892" on="0"/>
        <pt x="804" y="892" on="1"/>
        <pt x="820" y="892" on="0"/>
        <pt x="848" y="895" on="0"/>
        <pt x="880" y="899" on="0"/>
        <pt x="919" y="906" on="0"/>
        <pt x="946" y="910" on="1"/>
        <pt x="939" y="884" on="0"/>
        <pt x="937" y="814" on="0"/>
        <pt x="937" y="777" on="1"/>
        <pt x="937" y="692" on="0"/>
        <pt x="946" y="635" on="1"/>
        <pt x="918" y="638" on="0"/>
        <pt x="878" y="643" on="0"/>
        <pt x="846" y="646" on="0"/>
        <pt x="818" y="648" on="0"/>
        <pt x="802" y="648" on="1"/>
        <pt x="764" y="648" on="0"/>
        <pt x="714" y="639" on="0"/>
        <pt x="685" y="620" on="0"/>
        <pt x="673" y="591" on="0"/>
        <pt x="673" y="572" on="1"/>
        <pt x="673" y="540" on="0"/>
        <pt x="675" y="458" on="0"/>
        <pt x="678" y="368" on="0"/>
        <pt x="683" y="278" on="0"/>
      </contour>
    </TTGlyph>
    <TTGlyph name="Euro" xMin="89" yMin="-12" xMax="1593" yMax="1440">
      <contour>
        <pt x="265" y="248" on="1"/>
        <pt x="281" y="264" on="0"/>
        <pt x="301" y="305" on="0"/>
        <pt x="311" y="345" on="0"/>
        <pt x="315" y="379" on="0"/>
        <pt x="315" y="389" on="1"/>
        <pt x="315" y="407" on="0"/>
        <pt x="303" y="433" on="0"/>
        <pt x="269" y="450" on="0"/>
        <pt x="209" y="459" on="0"/>
        <pt x="161" y="459" on="1"/>
        <pt x="146" y="459" on="0"/>
        <pt x="111" y="455" on="0"/>
        <pt x="89" y="451" on="1"/>
        <pt x="92" y="464" on="0"/>
        <pt x="96" y="487" on="0"/>
        <pt x="98" y="511" on="0"/>
        <pt x="99" y="540" on="0"/>
        <pt x="99" y="558" on="1"/>
        <pt x="99" y="577" on="0"/>
        <pt x="96" y="605" on="0"/>
        <pt x="89" y="623" on="1"/>
        <pt x="132" y="617" on="0"/>
        <pt x="162" y="617" on="1"/>
        <pt x="223" y="617" on="0"/>
        <pt x="291" y="628" on="0"/>
        <pt x="324" y="650" on="0"/>
        <pt x="331" y="681" on="0"/>
        <pt x="331" y="701" on="1"/>
        <pt x="331" y="719" on="0"/>
        <pt x="324" y="754" on="0"/>
        <pt x="298" y="782" on="0"/>
        <pt x="246" y="799" on="0"/>
        <pt x="201" y="799" on="1"/>
        <pt x="186" y="799" on="0"/>
        <pt x="151" y="795" on="0"/>
        <pt x="129" y="791" on="1"/>
        <pt x="133" y="804" on="0"/>
        <pt x="137" y="827" on="0"/>
        <pt x="139" y="851" on="0"/>
        <pt x="139" y="880" on="0"/>
        <pt x="139" y="898" on="1"/>
        <pt x="139" y="917" on="0"/>
        <pt x="136" y="945" on="0"/>
        <pt x="129" y="963" on="1"/>
        <pt x="173" y="957" on="0"/>
        <pt x="232" y="956" on="0"/>
        <pt x="254" y="956" on="1"/>
        <pt x="285" y="956" on="0"/>
        <pt x="311" y="971" on="0"/>
        <pt x="311" y="1001" on="1"/>
        <pt x="311" y="1043" on="0"/>
        <pt x="284" y="1118" on="0"/>
        <pt x="266" y="1152" on="1"/>
        <pt x="299" y="1156" on="0"/>
        <pt x="374" y="1184" on="0"/>
        <pt x="450" y="1228" on="0"/>
        <pt x="522" y="1283" on="0"/>
        <pt x="581" y="1344" on="0"/>
        <pt x="622" y="1409" on="0"/>
        <pt x="629" y="1440" on="1"/>
        <pt x="645" y="1431" on="0"/>
        <pt x="712" y="1418" on="0"/>
        <pt x="799" y="1409" on="0"/>
        <pt x="900" y="1405" on="0"/>
        <pt x="950" y="1405" on="1"/>
        <pt x="987" y="1405" on="0"/>
        <pt x="1081" y="1411" on="0"/>
        <pt x="1173" y="1422" on="0"/>
        <pt x="1251" y="1434" on="0"/>
        <pt x="1271" y="1440" on="1"/>
        <pt x="1281" y="1420" on="0"/>
        <pt x="1353" y="1361" on="0"/>
        <pt x="1446" y="1306" on="0"/>
        <pt x="1546" y="1267" on="0"/>
        <pt x="1584" y="1267" on="1"/>
        <pt x="1593" y="1267" on="1"/>
        <pt x="1585" y="1233" on="0"/>
        <pt x="1577" y="1136" on="0"/>
        <pt x="1577" y="1088" on="1"/>
        <pt x="1577" y="1031" on="0"/>
        <pt x="1584" y="943" on="0"/>
        <pt x="1589" y="927" on="1"/>
        <pt x="1546" y="935" on="0"/>
        <pt x="1454" y="943" on="0"/>
        <pt x="1408" y="943" on="1"/>
        <pt x="1354" y="943" on="0"/>
        <pt x="1276" y="935" on="0"/>
        <pt x="1238" y="927" on="1"/>
        <pt x="1239" y="939" on="0"/>
        <pt x="1240" y="960" on="0"/>
        <pt x="1240" y="971" on="1"/>
        <pt x="1240" y="1038" on="0"/>
        <pt x="1197" y="1132" on="0"/>
        <pt x="1121" y="1192" on="0"/>
        <pt x="1016" y="1220" on="0"/>
        <pt x="953" y="1220" on="1"/>
        <pt x="899" y="1220" on="0"/>
        <pt x="823" y="1196" on="0"/>
        <pt x="774" y="1156" on="0"/>
        <pt x="752" y="1103" on="0"/>
        <pt x="752" y="1074" on="1"/>
        <pt x="752" y="1031" on="0"/>
        <pt x="767" y="984" on="0"/>
        <pt x="817" y="962" on="0"/>
        <pt x="913" y="956" on="0"/>
        <pt x="994" y="955" on="1"/>
        <pt x="1022" y="955" on="0"/>
        <pt x="1098" y="962" on="0"/>
        <pt x="1146" y="969" on="1"/>
        <pt x="1146" y="956" on="0"/>
        <pt x="1143" y="935" on="0"/>
        <pt x="1139" y="911" on="0"/>
        <pt x="1136" y="881" on="0"/>
        <pt x="1136" y="859" on="1"/>
        <pt x="1136" y="833" on="0"/>
        <pt x="1139" y="791" on="0"/>
        <pt x="1146" y="771" on="1"/>
        <pt x="1114" y="774" on="0"/>
        <pt x="1030" y="779" on="0"/>
        <pt x="949" y="782" on="0"/>
        <pt x="880" y="784" on="0"/>
        <pt x="862" y="784" on="1"/>
        <pt x="813" y="784" on="0"/>
        <pt x="751" y="766" on="0"/>
        <pt x="716" y="737" on="0"/>
        <pt x="703" y="703" on="0"/>
        <pt x="703" y="688" on="1"/>
        <pt x="703" y="673" on="0"/>
        <pt x="720" y="650" on="0"/>
        <pt x="762" y="633" on="0"/>
        <pt x="831" y="625" on="0"/>
        <pt x="884" y="625" on="1"/>
        <pt x="929" y="625" on="0"/>
        <pt x="1035" y="630" on="0"/>
        <pt x="1116" y="639" on="1"/>
        <pt x="1116" y="626" on="0"/>
        <pt x="1113" y="605" on="0"/>
        <pt x="1109" y="581" on="0"/>
        <pt x="1106" y="551" on="0"/>
        <pt x="1106" y="530" on="1"/>
        <pt x="1106" y="504" on="0"/>
        <pt x="1109" y="468" on="0"/>
        <pt x="1116" y="448" on="1"/>
        <pt x="1070" y="452" on="0"/>
        <pt x="1008" y="454" on="0"/>
        <pt x="982" y="454" on="1"/>
        <pt x="936" y="454" on="0"/>
        <pt x="853" y="450" on="0"/>
        <pt x="790" y="435" on="0"/>
        <pt x="753" y="405" on="0"/>
        <pt x="753" y="378" on="1"/>
        <pt x="753" y="341" on="0"/>
        <pt x="783" y="282" on="0"/>
        <pt x="837" y="242" on="0"/>
        <pt x="912" y="220" on="0"/>
        <pt x="957" y="220" on="1"/>
        <pt x="1030" y="220" on="0"/>
        <pt x="1143" y="253" on="0"/>
        <pt x="1221" y="312" on="0"/>
        <pt x="1261" y="396" on="0"/>
        <pt x="1261" y="447" on="1"/>
        <pt x="1261" y="458" on="0"/>
        <pt x="1260" y="480" on="0"/>
        <pt x="1259" y="493" on="1"/>
        <pt x="1281" y="485" on="0"/>
        <pt x="1362" y="479" on="0"/>
        <pt x="1420" y="479" on="1"/>
        <pt x="1444" y="479" on="0"/>
        <pt x="1496" y="481" on="0"/>
        <pt x="1543" y="485" on="0"/>
        <pt x="1580" y="491" on="0"/>
        <pt x="1589" y="496" on="1"/>
        <pt x="1589" y="464" on="0"/>
        <pt x="1579" y="393" on="0"/>
        <pt x="1579" y="344" on="1"/>
        <pt x="1579" y="323" on="0"/>
        <pt x="1581" y="280" on="0"/>
        <pt x="1584" y="244" on="0"/>
        <pt x="1588" y="216" on="0"/>
        <pt x="1591" y="209" on="1"/>
        <pt x="1545" y="199" on="0"/>
        <pt x="1456" y="147" on="0"/>
        <pt x="1381" y="81" on="0"/>
        <pt x="1329" y="13" on="0"/>
        <pt x="1321" y="-12" on="1"/>
        <pt x="1312" y="-2" on="0"/>
        <pt x="1248" y="12" on="0"/>
        <pt x="1160" y="21" on="0"/>
        <pt x="1057" y="25" on="0"/>
        <pt x="1008" y="25" on="1"/>
        <pt x="942" y="25" on="0"/>
        <pt x="811" y="20" on="0"/>
        <pt x="700" y="11" on="0"/>
        <pt x="619" y="-3" on="0"/>
        <pt x="603" y="-12" on="1"/>
        <pt x="595" y="16" on="0"/>
        <pt x="554" y="76" on="0"/>
        <pt x="497" y="134" on="0"/>
        <pt x="429" y="186" on="0"/>
        <pt x="359" y="225" on="0"/>
        <pt x="292" y="248" on="0"/>
      </contour>
    </TTGlyph>
    <TTGlyph name="F" xMin="100" yMin="0" xMax="1485" yMax="1440">
      <contour>
        <pt x="100" y="0" on="1"/>
        <pt x="106" y="25" on="0"/>
        <pt x="115" y="96" on="0"/>
        <pt x="115" y="134" on="1"/>
        <pt x="115" y="169" on="0"/>
        <pt x="105" y="236" on="0"/>
        <pt x="100" y="260" on="1"/>
        <pt x="145" y="260" on="0"/>
        <pt x="213" y="274" on="0"/>
        <pt x="259" y="307" on="0"/>
        <pt x="282" y="364" on="0"/>
        <pt x="282" y="407" on="1"/>
        <pt x="282" y="491" on="0"/>
        <pt x="273" y="611" on="0"/>
        <pt x="256" y="689" on="0"/>
        <pt x="230" y="730" on="0"/>
        <pt x="213" y="735" on="1"/>
        <pt x="231" y="741" on="0"/>
        <pt x="257" y="767" on="0"/>
        <pt x="274" y="830" on="0"/>
        <pt x="282" y="941" on="0"/>
        <pt x="282" y="1033" on="1"/>
        <pt x="282" y="1076" on="0"/>
        <pt x="259" y="1133" on="0"/>
        <pt x="213" y="1166" on="0"/>
        <pt x="145" y="1180" on="0"/>
        <pt x="100" y="1180" on="1"/>
        <pt x="105" y="1204" on="0"/>
        <pt x="115" y="1271" on="0"/>
        <pt x="115" y="1306" on="1"/>
        <pt x="115" y="1344" on="0"/>
        <pt x="106" y="1415" on="0"/>
        <pt x="100" y="1440" on="1"/>
        <pt x="120" y="1435" on="0"/>
        <pt x="218" y="1426" on="0"/>
        <pt x="348" y="1418" on="0"/>
        <pt x="496" y="1412" on="0"/>
        <pt x="637" y="1407" on="0"/>
        <pt x="756" y="1405" on="0"/>
        <pt x="792" y="1405" on="1"/>
        <pt x="828" y="1405" on="0"/>
        <pt x="948" y="1407" on="0"/>
        <pt x="1089" y="1412" on="0"/>
        <pt x="1237" y="1418" on="0"/>
        <pt x="1367" y="1426" on="0"/>
        <pt x="1465" y="1435" on="0"/>
        <pt x="1485" y="1440" on="1"/>
        <pt x="1477" y="1398" on="0"/>
        <pt x="1460" y="1269" on="0"/>
        <pt x="1460" y="1197" on="1"/>
        <pt x="1460" y="1155" on="0"/>
        <pt x="1466" y="1074" on="0"/>
        <pt x="1473" y="1007" on="0"/>
        <pt x="1482" y="957" on="0"/>
        <pt x="1485" y="945" on="1"/>
        <pt x="1455" y="956" on="0"/>
        <pt x="1362" y="970" on="0"/>
        <pt x="1310" y="970" on="1"/>
        <pt x="1287" y="970" on="0"/>
        <pt x="1234" y="968" on="0"/>
        <pt x="1180" y="962" on="0"/>
        <pt x="1130" y="952" on="0"/>
        <pt x="1110" y="945" on="1"/>
        <pt x="1117" y="966" on="0"/>
        <pt x="1126" y="1026" on="0"/>
        <pt x="1126" y="1057" on="1"/>
        <pt x="1126" y="1108" on="0"/>
        <pt x="1077" y="1169" on="0"/>
        <pt x="1005" y="1201" on="0"/>
        <pt x="925" y="1210" on="0"/>
        <pt x="894" y="1210" on="1"/>
        <pt x="871" y="1210" on="0"/>
        <pt x="820" y="1207" on="0"/>
        <pt x="767" y="1196" on="0"/>
        <pt x="715" y="1177" on="0"/>
        <pt x="693" y="1161" on="1"/>
        <pt x="689" y="1138" on="0"/>
        <pt x="683" y="1078" on="0"/>
        <pt x="683" y="1033" on="1"/>
        <pt x="683" y="966" on="0"/>
        <pt x="688" y="891" on="0"/>
        <pt x="692" y="871" on="1"/>
        <pt x="707" y="865" on="0"/>
        <pt x="749" y="857" on="0"/>
        <pt x="795" y="851" on="0"/>
        <pt x="840" y="849" on="0"/>
        <pt x="859" y="849" on="1"/>
        <pt x="887" y="849" on="0"/>
        <pt x="949" y="854" on="0"/>
        <pt x="1005" y="862" on="0"/>
        <pt x="1050" y="873" on="0"/>
        <pt x="1061" y="879" on="1"/>
        <pt x="1053" y="857" on="0"/>
        <pt x="1046" y="779" on="0"/>
        <pt x="1046" y="736" on="1"/>
        <pt x="1046" y="712" on="0"/>
        <pt x="1048" y="665" on="0"/>
        <pt x="1053" y="626" on="0"/>
        <pt x="1058" y="597" on="0"/>
        <pt x="1061" y="590" on="1"/>
        <pt x="1052" y="595" on="0"/>
        <pt x="1006" y="607" on="0"/>
        <pt x="945" y="617" on="0"/>
        <pt x="876" y="623" on="0"/>
        <pt x="843" y="623" on="1"/>
        <pt x="826" y="623" on="0"/>
        <pt x="785" y="621" on="0"/>
        <pt x="744" y="616" on="0"/>
        <pt x="706" y="609" on="0"/>
        <pt x="692" y="604" on="1"/>
        <pt x="690" y="592" on="0"/>
        <pt x="687" y="561" on="0"/>
        <pt x="684" y="514" on="0"/>
        <pt x="683" y="450" on="0"/>
        <pt x="683" y="407" on="1"/>
        <pt x="683" y="360" on="0"/>
        <pt x="721" y="302" on="0"/>
        <pt x="800" y="271" on="0"/>
        <pt x="921" y="260" on="0"/>
        <pt x="1005" y="260" on="1"/>
        <pt x="1000" y="236" on="0"/>
        <pt x="990" y="169" on="0"/>
        <pt x="990" y="134" on="1"/>
        <pt x="990" y="96" on="0"/>
        <pt x="999" y="25" on="0"/>
        <pt x="1005" y="0" on="1"/>
        <pt x="977" y="6" on="0"/>
        <pt x="870" y="15" on="0"/>
        <pt x="743" y="22" on="0"/>
        <pt x="614" y="25" on="0"/>
        <pt x="563" y="25" on="1"/>
        <pt x="509" y="25" on="0"/>
        <pt x="373" y="22" on="0"/>
        <pt x="242" y="15" on="0"/>
        <pt x="130" y="6" on="0"/>
      </contour>
    </TTGlyph>
    <TTGlyph name="G" xMin="85" yMin="-20" xMax="1610" yMax="1460">
      <contour>
        <pt x="100" y="268" on="1"/>
        <pt x="119" y="294" on="0"/>
        <pt x="151" y="455" on="0"/>
        <pt x="151" y="594" on="1"/>
        <pt x="151" y="657" on="0"/>
        <pt x="117" y="724" on="0"/>
        <pt x="85" y="735" on="1"/>
        <pt x="103" y="740" on="0"/>
        <pt x="129" y="776" on="0"/>
        <pt x="147" y="828" on="0"/>
        <pt x="155" y="891" on="0"/>
        <pt x="155" y="924" on="1"/>
        <pt x="155" y="1010" on="0"/>
        <pt x="126" y="1143" on="0"/>
        <pt x="100" y="1172" on="1"/>
        <pt x="108" y="1172" on="1"/>
        <pt x="142" y="1172" on="0"/>
        <pt x="227" y="1202" on="0"/>
        <pt x="315" y="1251" on="0"/>
        <pt x="399" y="1312" on="0"/>
        <pt x="466" y="1376" on="0"/>
        <pt x="509" y="1437" on="0"/>
        <pt x="511" y="1460" on="1"/>
        <pt x="527" y="1451" on="0"/>
        <pt x="576" y="1432" on="0"/>
        <pt x="648" y="1415" on="0"/>
        <pt x="747" y="1405" on="0"/>
        <pt x="815" y="1405" on="1"/>
        <pt x="848" y="1405" on="0"/>
        <pt x="919" y="1413" on="0"/>
        <pt x="986" y="1428" on="0"/>
        <pt x="1044" y="1448" on="0"/>
        <pt x="1063" y="1460" on="1"/>
        <pt x="1075" y="1422" on="0"/>
        <pt x="1120" y="1365" on="0"/>
        <pt x="1149" y="1347" on="1"/>
        <pt x="1173" y="1369" on="0"/>
        <pt x="1195" y="1420" on="0"/>
        <pt x="1200" y="1440" on="1"/>
        <pt x="1209" y="1435" on="0"/>
        <pt x="1259" y="1428" on="0"/>
        <pt x="1324" y="1423" on="0"/>
        <pt x="1395" y="1420" on="0"/>
        <pt x="1425" y="1420" on="1"/>
        <pt x="1501" y="1420" on="0"/>
        <pt x="1573" y="1440" on="1"/>
        <pt x="1571" y="1432" on="0"/>
        <pt x="1562" y="1386" on="0"/>
        <pt x="1554" y="1326" on="0"/>
        <pt x="1548" y="1258" on="0"/>
        <pt x="1548" y="1227" on="1"/>
        <pt x="1548" y="1163" on="0"/>
        <pt x="1554" y="1049" on="0"/>
        <pt x="1561" y="957" on="0"/>
        <pt x="1570" y="891" on="0"/>
        <pt x="1573" y="875" on="1"/>
        <pt x="1525" y="883" on="0"/>
        <pt x="1435" y="890" on="0"/>
        <pt x="1392" y="890" on="1"/>
        <pt x="1362" y="890" on="0"/>
        <pt x="1291" y="888" on="0"/>
        <pt x="1221" y="885" on="0"/>
        <pt x="1157" y="879" on="0"/>
        <pt x="1133" y="875" on="1"/>
        <pt x="1133" y="943" on="0"/>
        <pt x="1107" y="1065" on="0"/>
        <pt x="1050" y="1156" on="0"/>
        <pt x="959" y="1210" on="0"/>
        <pt x="895" y="1210" on="1"/>
        <pt x="860" y="1210" on="0"/>
        <pt x="790" y="1198" on="0"/>
        <pt x="727" y="1161" on="0"/>
        <pt x="672" y="1093" on="0"/>
        <pt x="633" y="980" on="0"/>
        <pt x="610" y="816" on="0"/>
        <pt x="610" y="702" on="1"/>
        <pt x="610" y="557" on="0"/>
        <pt x="660" y="374" on="0"/>
        <pt x="744" y="269" on="0"/>
        <pt x="854" y="230" on="0"/>
        <pt x="915" y="230" on="1"/>
        <pt x="975" y="230" on="0"/>
        <pt x="1052" y="254" on="0"/>
        <pt x="1096" y="292" on="0"/>
        <pt x="1112" y="341" on="0"/>
        <pt x="1112" y="367" on="1"/>
        <pt x="1112" y="389" on="0"/>
        <pt x="1101" y="420" on="0"/>
        <pt x="1070" y="440" on="0"/>
        <pt x="1014" y="450" on="0"/>
        <pt x="970" y="450" on="1"/>
        <pt x="978" y="478" on="0"/>
        <pt x="985" y="538" on="0"/>
        <pt x="985" y="583" on="1"/>
        <pt x="985" y="618" on="0"/>
        <pt x="976" y="671" on="0"/>
        <pt x="970" y="695" on="1"/>
        <pt x="1024" y="681" on="0"/>
        <pt x="1150" y="670" on="0"/>
        <pt x="1210" y="670" on="1"/>
        <pt x="1261" y="670" on="0"/>
        <pt x="1378" y="673" on="0"/>
        <pt x="1489" y="680" on="0"/>
        <pt x="1583" y="689" on="0"/>
        <pt x="1610" y="695" on="1"/>
        <pt x="1591" y="647" on="0"/>
        <pt x="1566" y="532" on="0"/>
        <pt x="1551" y="410" on="0"/>
        <pt x="1544" y="288" on="0"/>
        <pt x="1544" y="232" on="1"/>
        <pt x="1544" y="151" on="0"/>
        <pt x="1555" y="27" on="0"/>
        <pt x="1563" y="0" on="1"/>
        <pt x="1538" y="0" on="0"/>
        <pt x="1465" y="23" on="0"/>
        <pt x="1386" y="59" on="0"/>
        <pt x="1311" y="105" on="0"/>
        <pt x="1284" y="128" on="1"/>
        <pt x="1258" y="127" on="0"/>
        <pt x="1194" y="94" on="0"/>
        <pt x="1138" y="48" on="0"/>
        <pt x="1101" y="-2" on="0"/>
        <pt x="1101" y="-20" on="1"/>
        <pt x="1084" y="-11" on="0"/>
        <pt x="1020" y="5" on="0"/>
        <pt x="945" y="18" on="0"/>
        <pt x="871" y="25" on="0"/>
        <pt x="845" y="25" on="1"/>
        <pt x="709" y="25" on="0"/>
        <pt x="538" y="-2" on="0"/>
        <pt x="505" y="-20" on="1"/>
        <pt x="497" y="11" on="0"/>
        <pt x="451" y="76" on="0"/>
        <pt x="385" y="137" on="0"/>
        <pt x="305" y="192" on="0"/>
        <pt x="220" y="236" on="0"/>
        <pt x="136" y="264" on="0"/>
      </contour>
    </TTGlyph>
    <TTGlyph name="Gbreve" xMin="85" yMin="-20" xMax="1610" yMax="1988">
      <component glyphName="G" x="0" y="0" flags="0x1204"/>
      <component glyphName="breve.cap" x="534" y="0" flags="0x1004"/>
    </TTGlyph>
    <TTGlyph name="Gcircumflex" xMin="85" yMin="-20" xMax="1610" yMax="2010">
      <component glyphName="G" x="0" y="0" flags="0x1204"/>
      <component glyphName="circumflex.cap" x="447" y="0" flags="0x1004"/>
    </TTGlyph>
    <TTGlyph name="Gcommaaccent" xMin="85" yMin="-550" xMax="1610" yMax="1460">
      <component glyphName="G" x="0" y="0" flags="0x1204"/>
      <component glyphName="commaaccent" x="406" y="0" flags="0x1004"/>
    </TTGlyph>
    <TTGlyph name="Gdotaccent" xMin="85" yMin="-20" xMax="1610" yMax="2010">
      <component glyphName="G" x="0" y="0" flags="0x1204"/>
      <component glyphName="dotaccent.cap" x="534" y="0" flags="0x1004"/>
    </TTGlyph>
    <TTGlyph name="H" xMin="67" yMin="0" xMax="1812" yMax="1440">
      <contour>
        <pt x="67" y="0" on="1"/>
        <pt x="73" y="25" on="0"/>
        <pt x="82" y="96" on="0"/>
        <pt x="82" y="134" on="1"/>
        <pt x="82" y="169" on="0"/>
        <pt x="72" y="236" on="0"/>
        <pt x="67" y="260" on="1"/>
        <pt x="117" y="260" on="0"/>
        <pt x="186" y="274" on="0"/>
        <pt x="230" y="307" on="0"/>
        <pt x="249" y="364" on="0"/>
        <pt x="249" y="407" on="1"/>
        <pt x="249" y="491" on="0"/>
        <pt x="240" y="611" on="0"/>
        <pt x="223" y="689" on="0"/>
        <pt x="197" y="730" on="0"/>
        <pt x="180" y="735" on="1"/>
        <pt x="198" y="741" on="0"/>
        <pt x="224" y="772" on="0"/>
        <pt x="241" y="842" on="0"/>
        <pt x="249" y="959" on="0"/>
        <pt x="249" y="1051" on="1"/>
        <pt x="249" y="1091" on="0"/>
        <pt x="226" y="1141" on="0"/>
        <pt x="184" y="1170" on="0"/>
        <pt x="124" y="1180" on="0"/>
        <pt x="87" y="1180" on="1"/>
        <pt x="67" y="1180" on="1"/>
        <pt x="72" y="1204" on="0"/>
        <pt x="82" y="1267" on="0"/>
        <pt x="82" y="1302" on="1"/>
        <pt x="82" y="1339" on="0"/>
        <pt x="73" y="1415" on="0"/>
        <pt x="67" y="1440" on="1"/>
        <pt x="86" y="1433" on="0"/>
        <pt x="167" y="1421" on="0"/>
        <pt x="272" y="1411" on="0"/>
        <pt x="392" y="1405" on="0"/>
        <pt x="449" y="1405" on="1"/>
        <pt x="506" y="1405" on="0"/>
        <pt x="625" y="1411" on="0"/>
        <pt x="730" y="1421" on="0"/>
        <pt x="812" y="1433" on="0"/>
        <pt x="832" y="1440" on="1"/>
        <pt x="826" y="1415" on="0"/>
        <pt x="817" y="1339" on="0"/>
        <pt x="817" y="1302" on="1"/>
        <pt x="817" y="1267" on="0"/>
        <pt x="827" y="1204" on="0"/>
        <pt x="832" y="1180" on="1"/>
        <pt x="813" y="1180" on="1"/>
        <pt x="779" y="1180" on="0"/>
        <pt x="720" y="1170" on="0"/>
        <pt x="676" y="1141" on="0"/>
        <pt x="650" y="1091" on="0"/>
        <pt x="650" y="1051" on="1"/>
        <pt x="650" y="982" on="0"/>
        <pt x="654" y="886" on="0"/>
        <pt x="659" y="851" on="1"/>
        <pt x="716" y="840" on="0"/>
        <pt x="862" y="830" on="0"/>
        <pt x="940" y="830" on="1"/>
        <pt x="1018" y="830" on="0"/>
        <pt x="1163" y="841" on="0"/>
        <pt x="1220" y="852" on="1"/>
        <pt x="1225" y="887" on="0"/>
        <pt x="1229" y="984" on="0"/>
        <pt x="1229" y="1051" on="1"/>
        <pt x="1229" y="1091" on="0"/>
        <pt x="1206" y="1141" on="0"/>
        <pt x="1164" y="1170" on="0"/>
        <pt x="1104" y="1180" on="0"/>
        <pt x="1067" y="1180" on="1"/>
        <pt x="1047" y="1180" on="1"/>
        <pt x="1052" y="1204" on="0"/>
        <pt x="1062" y="1267" on="0"/>
        <pt x="1062" y="1302" on="1"/>
        <pt x="1062" y="1339" on="0"/>
        <pt x="1053" y="1415" on="0"/>
        <pt x="1047" y="1440" on="1"/>
        <pt x="1066" y="1433" on="0"/>
        <pt x="1147" y="1421" on="0"/>
        <pt x="1252" y="1411" on="0"/>
        <pt x="1372" y="1405" on="0"/>
        <pt x="1429" y="1405" on="1"/>
        <pt x="1486" y="1405" on="0"/>
        <pt x="1605" y="1411" on="0"/>
        <pt x="1710" y="1421" on="0"/>
        <pt x="1792" y="1433" on="0"/>
        <pt x="1812" y="1440" on="1"/>
        <pt x="1806" y="1415" on="0"/>
        <pt x="1797" y="1339" on="0"/>
        <pt x="1797" y="1302" on="1"/>
        <pt x="1797" y="1267" on="0"/>
        <pt x="1807" y="1204" on="0"/>
        <pt x="1812" y="1180" on="1"/>
        <pt x="1793" y="1180" on="1"/>
        <pt x="1759" y="1180" on="0"/>
        <pt x="1700" y="1170" on="0"/>
        <pt x="1656" y="1141" on="0"/>
        <pt x="1630" y="1091" on="0"/>
        <pt x="1630" y="1051" on="1"/>
        <pt x="1630" y="959" on="0"/>
        <pt x="1638" y="842" on="0"/>
        <pt x="1655" y="772" on="0"/>
        <pt x="1681" y="741" on="0"/>
        <pt x="1699" y="735" on="1"/>
        <pt x="1682" y="730" on="0"/>
        <pt x="1656" y="689" on="0"/>
        <pt x="1639" y="611" on="0"/>
        <pt x="1630" y="491" on="0"/>
        <pt x="1630" y="407" on="1"/>
        <pt x="1630" y="364" on="0"/>
        <pt x="1653" y="307" on="0"/>
        <pt x="1699" y="274" on="0"/>
        <pt x="1767" y="260" on="0"/>
        <pt x="1812" y="260" on="1"/>
        <pt x="1807" y="236" on="0"/>
        <pt x="1797" y="169" on="0"/>
        <pt x="1797" y="134" on="1"/>
        <pt x="1797" y="96" on="0"/>
        <pt x="1806" y="25" on="0"/>
        <pt x="1812" y="0" on="1"/>
        <pt x="1783" y="6" on="0"/>
        <pt x="1695" y="15" on="0"/>
        <pt x="1591" y="22" on="0"/>
        <pt x="1480" y="25" on="0"/>
        <pt x="1429" y="25" on="1"/>
        <pt x="1378" y="25" on="0"/>
        <pt x="1267" y="22" on="0"/>
        <pt x="1163" y="15" on="0"/>
        <pt x="1075" y="6" on="0"/>
        <pt x="1047" y="0" on="1"/>
        <pt x="1053" y="25" on="0"/>
        <pt x="1062" y="96" on="0"/>
        <pt x="1062" y="134" on="1"/>
        <pt x="1062" y="169" on="0"/>
        <pt x="1052" y="236" on="0"/>
        <pt x="1047" y="260" on="1"/>
        <pt x="1097" y="260" on="0"/>
        <pt x="1166" y="274" on="0"/>
        <pt x="1210" y="307" on="0"/>
        <pt x="1229" y="364" on="0"/>
        <pt x="1229" y="407" on="1"/>
        <pt x="1229" y="526" on="0"/>
        <pt x="1220" y="600" on="1"/>
        <pt x="1163" y="612" on="0"/>
        <pt x="1019" y="625" on="0"/>
        <pt x="940" y="625" on="1"/>
        <pt x="865" y="625" on="0"/>
        <pt x="717" y="613" on="0"/>
        <pt x="659" y="602" on="1"/>
        <pt x="650" y="528" on="0"/>
        <pt x="650" y="407" on="1"/>
        <pt x="650" y="364" on="0"/>
        <pt x="673" y="307" on="0"/>
        <pt x="719" y="274" on="0"/>
        <pt x="787" y="260" on="0"/>
        <pt x="832" y="260" on="1"/>
        <pt x="827" y="236" on="0"/>
        <pt x="817" y="169" on="0"/>
        <pt x="817" y="134" on="1"/>
        <pt x="817" y="96" on="0"/>
        <pt x="826" y="25" on="0"/>
        <pt x="832" y="0" on="1"/>
        <pt x="803" y="6" on="0"/>
        <pt x="715" y="15" on="0"/>
        <pt x="611" y="22" on="0"/>
        <pt x="500" y="25" on="0"/>
        <pt x="449" y="25" on="1"/>
        <pt x="398" y="25" on="0"/>
        <pt x="287" y="22" on="0"/>
        <pt x="183" y="15" on="0"/>
        <pt x="95" y="6" on="0"/>
      </contour>
    </TTGlyph>
    <TTGlyph name="Hbar" xMin="17" yMin="0" xMax="1869" yMax="1440">
      <contour>
        <pt x="67" y="0" on="1"/>
        <pt x="73" y="25" on="0"/>
        <pt x="82" y="96" on="0"/>
        <pt x="82" y="134" on="1"/>
        <pt x="82" y="169" on="0"/>
        <pt x="72" y="236" on="0"/>
        <pt x="67" y="260" on="1"/>
        <pt x="117" y="260" on="0"/>
        <pt x="186" y="274" on="0"/>
        <pt x="230" y="307" on="0"/>
        <pt x="249" y="364" on="0"/>
        <pt x="249" y="407" on="1"/>
        <pt x="249" y="491" on="0"/>
        <pt x="240" y="605" on="0"/>
        <pt x="223" y="676" on="0"/>
        <pt x="197" y="710" on="0"/>
        <pt x="180" y="715" on="1"/>
        <pt x="204" y="724" on="0"/>
        <pt x="231" y="768" on="0"/>
        <pt x="231" y="791" on="1"/>
        <pt x="231" y="812" on="0"/>
        <pt x="204" y="845" on="0"/>
        <pt x="173" y="845" on="1"/>
        <pt x="164" y="845" on="0"/>
        <pt x="123" y="844" on="0"/>
        <pt x="75" y="842" on="0"/>
        <pt x="29" y="839" on="0"/>
        <pt x="17" y="837" on="1"/>
        <pt x="21" y="865" on="0"/>
        <pt x="26" y="914" on="0"/>
        <pt x="26" y="949" on="1"/>
        <pt x="26" y="981" on="0"/>
        <pt x="22" y="1033" on="0"/>
        <pt x="17" y="1059" on="1"/>
        <pt x="25" y="1054" on="0"/>
        <pt x="59" y="1048" on="0"/>
        <pt x="101" y="1045" on="0"/>
        <pt x="144" y="1044" on="0"/>
        <pt x="161" y="1044" on="1"/>
        <pt x="189" y="1044" on="0"/>
        <pt x="229" y="1045" on="0"/>
        <pt x="249" y="1063" on="1"/>
        <pt x="247" y="1099" on="0"/>
        <pt x="222" y="1144" on="0"/>
        <pt x="180" y="1170" on="0"/>
        <pt x="122" y="1180" on="0"/>
        <pt x="87" y="1180" on="1"/>
        <pt x="67" y="1180" on="1"/>
        <pt x="72" y="1204" on="0"/>
        <pt x="82" y="1267" on="0"/>
        <pt x="82" y="1302" on="1"/>
        <pt x="82" y="1339" on="0"/>
        <pt x="73" y="1415" on="0"/>
        <pt x="67" y="1440" on="1"/>
        <pt x="86" y="1433" on="0"/>
        <pt x="167" y="1421" on="0"/>
        <pt x="272" y="1411" on="0"/>
        <pt x="392" y="1405" on="0"/>
        <pt x="449" y="1405" on="1"/>
        <pt x="506" y="1405" on="0"/>
        <pt x="625" y="1411" on="0"/>
        <pt x="730" y="1421" on="0"/>
        <pt x="812" y="1433" on="0"/>
        <pt x="832" y="1440" on="1"/>
        <pt x="826" y="1415" on="0"/>
        <pt x="817" y="1339" on="0"/>
        <pt x="817" y="1302" on="1"/>
        <pt x="817" y="1267" on="0"/>
        <pt x="828" y="1204" on="0"/>
        <pt x="833" y="1180" on="1"/>
        <pt x="798" y="1180" on="1"/>
        <pt x="744" y="1180" on="0"/>
        <pt x="678" y="1173" on="0"/>
        <pt x="642" y="1156" on="0"/>
        <pt x="631" y="1130" on="0"/>
        <pt x="631" y="1112" on="1"/>
        <pt x="631" y="1086" on="0"/>
        <pt x="648" y="1054" on="0"/>
        <pt x="711" y="1036" on="0"/>
        <pt x="834" y="1029" on="0"/>
        <pt x="940" y="1029" on="1"/>
        <pt x="1046" y="1029" on="0"/>
        <pt x="1169" y="1036" on="0"/>
        <pt x="1232" y="1054" on="0"/>
        <pt x="1249" y="1086" on="0"/>
        <pt x="1249" y="1112" on="1"/>
        <pt x="1249" y="1130" on="0"/>
        <pt x="1237" y="1156" on="0"/>
        <pt x="1201" y="1173" on="0"/>
        <pt x="1135" y="1180" on="0"/>
        <pt x="1081" y="1180" on="1"/>
        <pt x="1047" y="1180" on="1"/>
        <pt x="1052" y="1204" on="0"/>
        <pt x="1062" y="1267" on="0"/>
        <pt x="1062" y="1302" on="1"/>
        <pt x="1062" y="1339" on="0"/>
        <pt x="1053" y="1415" on="0"/>
        <pt x="1047" y="1440" on="1"/>
        <pt x="1066" y="1433" on="0"/>
        <pt x="1147" y="1421" on="0"/>
        <pt x="1252" y="1411" on="0"/>
        <pt x="1372" y="1405" on="0"/>
        <pt x="1429" y="1405" on="1"/>
        <pt x="1486" y="1405" on="0"/>
        <pt x="1605" y="1411" on="0"/>
        <pt x="1710" y="1421" on="0"/>
        <pt x="1792" y="1433" on="0"/>
        <pt x="1812" y="1440" on="1"/>
        <pt x="1806" y="1415" on="0"/>
        <pt x="1797" y="1339" on="0"/>
        <pt x="1797" y="1302" on="1"/>
        <pt x="1797" y="1267" on="0"/>
        <pt x="1807" y="1204" on="0"/>
        <pt x="1812" y="1180" on="1"/>
        <pt x="1793" y="1180" on="1"/>
        <pt x="1760" y="1180" on="0"/>
        <pt x="1703" y="1170" on="0"/>
        <pt x="1659" y="1144" on="0"/>
        <pt x="1632" y="1097" on="0"/>
        <pt x="1630" y="1061" on="1"/>
        <pt x="1642" y="1053" on="0"/>
        <pt x="1662" y="1046" on="0"/>
        <pt x="1683" y="1043" on="0"/>
        <pt x="1705" y="1044" on="0"/>
        <pt x="1720" y="1044" on="1"/>
        <pt x="1738" y="1044" on="0"/>
        <pt x="1782" y="1045" on="0"/>
        <pt x="1825" y="1048" on="0"/>
        <pt x="1861" y="1054" on="0"/>
        <pt x="1869" y="1059" on="1"/>
        <pt x="1864" y="1033" on="0"/>
        <pt x="1860" y="981" on="0"/>
        <pt x="1860" y="949" on="1"/>
        <pt x="1860" y="914" on="0"/>
        <pt x="1864" y="865" on="0"/>
        <pt x="1869" y="837" on="1"/>
        <pt x="1857" y="839" on="0"/>
        <pt x="1810" y="842" on="0"/>
        <pt x="1760" y="844" on="0"/>
        <pt x="1717" y="845" on="0"/>
        <pt x="1709" y="845" on="1"/>
        <pt x="1675" y="845" on="0"/>
        <pt x="1648" y="818" on="0"/>
        <pt x="1648" y="799" on="1"/>
        <pt x="1648" y="786" on="0"/>
        <pt x="1657" y="759" on="0"/>
        <pt x="1672" y="736" on="0"/>
        <pt x="1690" y="718" on="0"/>
        <pt x="1699" y="715" on="1"/>
        <pt x="1682" y="710" on="0"/>
        <pt x="1656" y="676" on="0"/>
        <pt x="1639" y="605" on="0"/>
        <pt x="1630" y="491" on="0"/>
        <pt x="1630" y="407" on="1"/>
        <pt x="1630" y="364" on="0"/>
        <pt x="1653" y="307" on="0"/>
        <pt x="1699" y="274" on="0"/>
        <pt x="1767" y="260" on="0"/>
        <pt x="1812" y="260" on="1"/>
        <pt x="1807" y="236" on="0"/>
        <pt x="1797" y="169" on="0"/>
        <pt x="1797" y="134" on="1"/>
        <pt x="1797" y="96" on="0"/>
        <pt x="1806" y="25" on="0"/>
        <pt x="1812" y="0" on="1"/>
        <pt x="1783" y="6" on="0"/>
        <pt x="1695" y="15" on="0"/>
        <pt x="1591" y="22" on="0"/>
        <pt x="1480" y="25" on="0"/>
        <pt x="1429" y="25" on="1"/>
        <pt x="1378" y="25" on="0"/>
        <pt x="1267" y="22" on="0"/>
        <pt x="1163" y="15" on="0"/>
        <pt x="1075" y="6" on="0"/>
        <pt x="1047" y="0" on="1"/>
        <pt x="1053" y="25" on="0"/>
        <pt x="1062" y="96" on="0"/>
        <pt x="1062" y="134" on="1"/>
        <pt x="1062" y="169" on="0"/>
        <pt x="1052" y="236" on="0"/>
        <pt x="1047" y="260" on="1"/>
        <pt x="1111" y="260" on="0"/>
        <pt x="1187" y="273" on="0"/>
        <pt x="1227" y="296" on="0"/>
        <pt x="1239" y="327" on="0"/>
        <pt x="1239" y="345" on="1"/>
        <pt x="1239" y="374" on="0"/>
        <pt x="1224" y="410" on="0"/>
        <pt x="1165" y="430" on="0"/>
        <pt x="1046" y="437" on="0"/>
        <pt x="942" y="437" on="1"/>
        <pt x="938" y="437" on="1"/>
        <pt x="834" y="437" on="0"/>
        <pt x="715" y="430" on="0"/>
        <pt x="656" y="410" on="0"/>
        <pt x="641" y="374" on="0"/>
        <pt x="641" y="345" on="1"/>
        <pt x="641" y="327" on="0"/>
        <pt x="653" y="296" on="0"/>
        <pt x="693" y="273" on="0"/>
        <pt x="769" y="260" on="0"/>
        <pt x="832" y="260" on="1"/>
        <pt x="827" y="236" on="0"/>
        <pt x="817" y="169" on="0"/>
        <pt x="817" y="134" on="1"/>
        <pt x="817" y="96" on="0"/>
        <pt x="826" y="25" on="0"/>
        <pt x="832" y="0" on="1"/>
        <pt x="803" y="6" on="0"/>
        <pt x="715" y="15" on="0"/>
        <pt x="611" y="22" on="0"/>
        <pt x="500" y="25" on="0"/>
        <pt x="449" y="25" on="1"/>
        <pt x="398" y="25" on="0"/>
        <pt x="287" y="22" on="0"/>
        <pt x="183" y="15" on="0"/>
        <pt x="95" y="6" on="0"/>
      </contour>
      <contour>
        <pt x="641" y="737" on="1"/>
        <pt x="641" y="708" on="0"/>
        <pt x="655" y="671" on="0"/>
        <pt x="715" y="650" on="0"/>
        <pt x="835" y="642" on="0"/>
        <pt x="942" y="642" on="1"/>
        <pt x="1047" y="642" on="0"/>
        <pt x="1166" y="650" on="0"/>
        <pt x="1225" y="671" on="0"/>
        <pt x="1239" y="708" on="0"/>
        <pt x="1239" y="737" on="1"/>
        <pt x="1239" y="764" on="0"/>
        <pt x="1228" y="798" on="0"/>
        <pt x="1171" y="817" on="0"/>
        <pt x="1050" y="824" on="0"/>
        <pt x="940" y="824" on="1"/>
        <pt x="830" y="824" on="0"/>
        <pt x="709" y="817" on="0"/>
        <pt x="652" y="798" on="0"/>
        <pt x="641" y="764" on="0"/>
      </contour>
    </TTGlyph>
    <TTGlyph name="Hcircumflex" xMin="67" yMin="0" xMax="1812" yMax="2010">
      <component glyphName="H" x="0" y="0" flags="0x1204"/>
      <component glyphName="circumflex.cap" x="498" y="0" flags="0x1004"/>
    </TTGlyph>
    <TTGlyph name="I" xMin="100" yMin="0" xMax="935" yMax="1440">
      <contour>
        <pt x="110" y="0" on="1"/>
        <pt x="116" y="25" on="0"/>
        <pt x="125" y="96" on="0"/>
        <pt x="125" y="134" on="1"/>
        <pt x="125" y="169" on="0"/>
        <pt x="115" y="236" on="0"/>
        <pt x="110" y="260" on="1"/>
        <pt x="155" y="260" on="0"/>
        <pt x="232" y="274" on="0"/>
        <pt x="289" y="307" on="0"/>
        <pt x="322" y="364" on="0"/>
        <pt x="322" y="407" on="1"/>
        <pt x="322" y="491" on="0"/>
        <pt x="313" y="611" on="0"/>
        <pt x="296" y="689" on="0"/>
        <pt x="270" y="730" on="0"/>
        <pt x="253" y="735" on="1"/>
        <pt x="271" y="741" on="0"/>
        <pt x="297" y="772" on="0"/>
        <pt x="314" y="842" on="0"/>
        <pt x="322" y="959" on="0"/>
        <pt x="322" y="1051" on="1"/>
        <pt x="322" y="1091" on="0"/>
        <pt x="285" y="1141" on="0"/>
        <pt x="226" y="1170" on="0"/>
        <pt x="154" y="1180" on="0"/>
        <pt x="119" y="1180" on="1"/>
        <pt x="100" y="1180" on="1"/>
        <pt x="105" y="1204" on="0"/>
        <pt x="115" y="1267" on="0"/>
        <pt x="115" y="1302" on="1"/>
        <pt x="115" y="1339" on="0"/>
        <pt x="106" y="1415" on="0"/>
        <pt x="100" y="1440" on="1"/>
        <pt x="119" y="1433" on="0"/>
        <pt x="214" y="1420" on="0"/>
        <pt x="334" y="1411" on="0"/>
        <pt x="466" y="1405" on="0"/>
        <pt x="523" y="1405" on="1"/>
        <pt x="581" y="1405" on="0"/>
        <pt x="703" y="1411" on="0"/>
        <pt x="811" y="1421" on="0"/>
        <pt x="895" y="1433" on="0"/>
        <pt x="915" y="1440" on="1"/>
        <pt x="909" y="1415" on="0"/>
        <pt x="900" y="1339" on="0"/>
        <pt x="900" y="1302" on="1"/>
        <pt x="900" y="1267" on="0"/>
        <pt x="910" y="1204" on="0"/>
        <pt x="915" y="1180" on="1"/>
        <pt x="894" y="1180" on="1"/>
        <pt x="857" y="1180" on="0"/>
        <pt x="795" y="1170" on="0"/>
        <pt x="749" y="1141" on="0"/>
        <pt x="723" y="1091" on="0"/>
        <pt x="723" y="1051" on="1"/>
        <pt x="723" y="959" on="0"/>
        <pt x="731" y="842" on="0"/>
        <pt x="748" y="772" on="0"/>
        <pt x="774" y="741" on="0"/>
        <pt x="792" y="735" on="1"/>
        <pt x="775" y="730" on="0"/>
        <pt x="749" y="689" on="0"/>
        <pt x="732" y="611" on="0"/>
        <pt x="723" y="491" on="0"/>
        <pt x="723" y="407" on="1"/>
        <pt x="723" y="364" on="0"/>
        <pt x="752" y="307" on="0"/>
        <pt x="806" y="274" on="0"/>
        <pt x="885" y="260" on="0"/>
        <pt x="935" y="260" on="1"/>
        <pt x="930" y="236" on="0"/>
        <pt x="920" y="169" on="0"/>
        <pt x="920" y="134" on="1"/>
        <pt x="920" y="96" on="0"/>
        <pt x="929" y="25" on="0"/>
        <pt x="935" y="0" on="1"/>
        <pt x="906" y="6" on="0"/>
        <pt x="809" y="15" on="0"/>
        <pt x="694" y="22" on="0"/>
        <pt x="574" y="25" on="0"/>
        <pt x="523" y="25" on="1"/>
        <pt x="472" y="25" on="0"/>
        <pt x="351" y="22" on="0"/>
        <pt x="236" y="15" on="0"/>
        <pt x="138" y="6" on="0"/>
      </contour>
    </TTGlyph>
    <TTGlyph name="IJ" xMin="100" yMin="-10" xMax="2395" yMax="1440">
      <component glyphName="I" x="0" y="0" flags="0x1004"/>
      <component glyphName="J" x="1022" y="0" flags="0x1004"/>
    </TTGlyph>
    <TTGlyph name="Iacute" xMin="100" yMin="0" xMax="935" yMax="2010">
      <component glyphName="I" x="0" y="0" flags="0x1204"/>
      <component glyphName="acute.cap" x="61" y="0" flags="0x1004"/>
    </TTGlyph>
    <TTGlyph name="Ibreve" xMin="21" yMin="0" xMax="1003" yMax="1988">
      <component glyphName="I" x="0" y="0" flags="0x1204"/>
      <component glyphName="breve.cap" x="158" y="0" flags="0x1004"/>
    </TTGlyph>
    <TTGlyph name="Icircumflex" xMin="-16" yMin="0" xMax="1041" yMax="2010">
      <component glyphName="I" x="0" y="0" flags="0x1204"/>
      <component glyphName="circumflex.cap" x="71" y="0" flags="0x1004"/>
    </TTGlyph>
    <TTGlyph name="Idieresis" xMin="-27" yMin="0" xMax="1053" yMax="2010">
      <component glyphName="I" x="0" y="0" flags="0x1204"/>
      <component glyphName="dieresis.cap" x="2" y="0" flags="0x1004"/>
    </TTGlyph>
    <TTGlyph name="Idotaccent" xMin="100" yMin="0" xMax="935" yMax="2010">
      <component glyphName="I" x="0" y="0" flags="0x1204"/>
      <component glyphName="dotaccent.cap" x="158" y="0" flags="0x1004"/>
    </TTGlyph>
    <TTGlyph name="Igrave" xMin="79" yMin="0" xMax="935" yMax="2010">
      <component glyphName="I" x="0" y="0" flags="0x1204"/>
      <component glyphName="grave.cap" x="100" y="0" flags="0x1004"/>
    </TTGlyph>
    <TTGlyph name="Imacron" xMin="67" yMin="0" xMax="957" yMax="1860">
      <component glyphName="I" x="0" y="0" flags="0x1204"/>
      <component glyphName="macron.cap" x="-18" y="0" flags="0x1004"/>
    </TTGlyph>
    <TTGlyph name="Iogonek" xMin="100" yMin="-550" xMax="935" yMax="1440">
      <contour>
        <pt x="110" y="0" on="1"/>
        <pt x="116" y="25" on="0"/>
        <pt x="125" y="96" on="0"/>
        <pt x="125" y="134" on="1"/>
        <pt x="125" y="169" on="0"/>
        <pt x="115" y="236" on="0"/>
        <pt x="110" y="260" on="1"/>
        <pt x="155" y="260" on="0"/>
        <pt x="232" y="274" on="0"/>
        <pt x="289" y="307" on="0"/>
        <pt x="322" y="364" on="0"/>
        <pt x="322" y="407" on="1"/>
        <pt x="322" y="491" on="0"/>
        <pt x="313" y="611" on="0"/>
        <pt x="296" y="689" on="0"/>
        <pt x="270" y="730" on="0"/>
        <pt x="253" y="735" on="1"/>
        <pt x="271" y="741" on="0"/>
        <pt x="297" y="772" on="0"/>
        <pt x="314" y="842" on="0"/>
        <pt x="322" y="959" on="0"/>
        <pt x="322" y="1051" on="1"/>
        <pt x="322" y="1091" on="0"/>
        <pt x="285" y="1141" on="0"/>
        <pt x="226" y="1170" on="0"/>
        <pt x="154" y="1180" on="0"/>
        <pt x="119" y="1180" on="1"/>
        <pt x="100" y="1180" on="1"/>
        <pt x="105" y="1204" on="0"/>
        <pt x="115" y="1267" on="0"/>
        <pt x="115" y="1302" on="1"/>
        <pt x="115" y="1339" on="0"/>
        <pt x="106" y="1415" on="0"/>
        <pt x="100" y="1440" on="1"/>
        <pt x="119" y="1433" on="0"/>
        <pt x="214" y="1420" on="0"/>
        <pt x="334" y="1411" on="0"/>
        <pt x="466" y="1405" on="0"/>
        <pt x="523" y="1405" on="1"/>
        <pt x="581" y="1405" on="0"/>
        <pt x="703" y="1411" on="0"/>
        <pt x="811" y="1421" on="0"/>
        <pt x="895" y="1433" on="0"/>
        <pt x="915" y="1440" on="1"/>
        <pt x="909" y="1415" on="0"/>
        <pt x="900" y="1339" on="0"/>
        <pt x="900" y="1302" on="1"/>
        <pt x="900" y="1267" on="0"/>
        <pt x="910" y="1204" on="0"/>
        <pt x="915" y="1180" on="1"/>
        <pt x="894" y="1180" on="1"/>
        <pt x="857" y="1180" on="0"/>
        <pt x="795" y="1170" on="0"/>
        <pt x="749" y="1141" on="0"/>
        <pt x="723" y="1091" on="0"/>
        <pt x="723" y="1051" on="1"/>
        <pt x="723" y="959" on="0"/>
        <pt x="731" y="842" on="0"/>
        <pt x="748" y="772" on="0"/>
        <pt x="774" y="741" on="0"/>
        <pt x="792" y="735" on="1"/>
        <pt x="775" y="730" on="0"/>
        <pt x="749" y="689" on="0"/>
        <pt x="732" y="611" on="0"/>
        <pt x="723" y="491" on="0"/>
        <pt x="723" y="407" on="1"/>
        <pt x="723" y="364" on="0"/>
        <pt x="752" y="307" on="0"/>
        <pt x="806" y="274" on="0"/>
        <pt x="885" y="260" on="0"/>
        <pt x="935" y="260" on="1"/>
        <pt x="930" y="236" on="0"/>
        <pt x="920" y="169" on="0"/>
        <pt x="920" y="134" on="1"/>
        <pt x="920" y="96" on="0"/>
        <pt x="929" y="25" on="0"/>
        <pt x="935" y="0" on="1"/>
        <pt x="882" y="11" on="0"/>
        <pt x="833" y="11" on="1"/>
        <pt x="760" y="11" on="0"/>
        <pt x="628" y="-31" on="0"/>
        <pt x="528" y="-106" on="0"/>
        <pt x="469" y="-208" on="0"/>
        <pt x="469" y="-267" on="1"/>
        <pt x="469" y="-319" on="0"/>
        <pt x="510" y="-379" on="0"/>
        <pt x="547" y="-379" on="1"/>
        <pt x="567" y="-379" on="0"/>
        <pt x="604" y="-354" on="0"/>
        <pt x="632" y="-302" on="0"/>
        <pt x="649" y="-223" on="0"/>
        <pt x="649" y="-170" on="1"/>
        <pt x="694" y="-183" on="0"/>
        <pt x="761" y="-183" on="1"/>
        <pt x="803" y="-183" on="0"/>
        <pt x="884" y="-177" on="0"/>
        <pt x="922" y="-170" on="1"/>
        <pt x="919" y="-178" on="0"/>
        <pt x="914" y="-208" on="0"/>
        <pt x="911" y="-245" on="0"/>
        <pt x="909" y="-284" on="0"/>
        <pt x="909" y="-300" on="1"/>
        <pt x="909" y="-335" on="0"/>
        <pt x="911" y="-394" on="0"/>
        <pt x="915" y="-408" on="1"/>
        <pt x="874" y="-408" on="0"/>
        <pt x="805" y="-439" on="0"/>
        <pt x="750" y="-483" on="0"/>
        <pt x="711" y="-532" on="0"/>
        <pt x="701" y="-550" on="1"/>
        <pt x="679" y="-534" on="0"/>
        <pt x="594" y="-514" on="0"/>
        <pt x="528" y="-514" on="1"/>
        <pt x="504" y="-514" on="0"/>
        <pt x="459" y="-520" on="0"/>
        <pt x="420" y="-530" on="0"/>
        <pt x="391" y="-543" on="0"/>
        <pt x="384" y="-550" on="1"/>
        <pt x="377" y="-531" on="0"/>
        <pt x="324" y="-492" on="0"/>
        <pt x="249" y="-460" on="0"/>
        <pt x="159" y="-439" on="0"/>
        <pt x="115" y="-439" on="1"/>
        <pt x="124" y="-419" on="0"/>
        <pt x="135" y="-330" on="0"/>
        <pt x="135" y="-279" on="1"/>
        <pt x="135" y="-239" on="0"/>
        <pt x="126" y="-170" on="0"/>
        <pt x="115" y="-148" on="1"/>
        <pt x="149" y="-142" on="0"/>
        <pt x="224" y="-110" on="0"/>
        <pt x="292" y="-65" on="0"/>
        <pt x="349" y="-10" on="0"/>
        <pt x="366" y="20" on="1"/>
        <pt x="328" y="20" on="0"/>
        <pt x="253" y="17" on="0"/>
        <pt x="186" y="11" on="0"/>
        <pt x="129" y="4" on="0"/>
      </contour>
    </TTGlyph>
    <TTGlyph name="Itilde" xMin="-72" yMin="0" xMax="1098" yMax="2010">
      <component glyphName="I" x="0" y="0" flags="0x1204"/>
      <component glyphName="tilde.cap" x="-167" y="0" flags="0x1004"/>
    </TTGlyph>
    <TTGlyph name="J" xMin="57" yMin="-10" xMax="1373" yMax="1440">
      <contour>
        <pt x="65" y="273" on="1"/>
        <pt x="74" y="303" on="0"/>
        <pt x="90" y="381" on="0"/>
        <pt x="90" y="421" on="1"/>
        <pt x="90" y="454" on="0"/>
        <pt x="84" y="526" on="0"/>
        <pt x="74" y="591" on="0"/>
        <pt x="63" y="643" on="0"/>
        <pt x="57" y="655" on="1"/>
        <pt x="75" y="649" on="0"/>
        <pt x="127" y="640" on="0"/>
        <pt x="189" y="633" on="0"/>
        <pt x="255" y="630" on="0"/>
        <pt x="287" y="630" on="1"/>
        <pt x="317" y="630" on="0"/>
        <pt x="385" y="632" on="0"/>
        <pt x="454" y="638" on="0"/>
        <pt x="520" y="648" on="0"/>
        <pt x="547" y="655" on="1"/>
        <pt x="541" y="628" on="0"/>
        <pt x="534" y="567" on="0"/>
        <pt x="534" y="529" on="1"/>
        <pt x="534" y="509" on="0"/>
        <pt x="537" y="463" on="0"/>
        <pt x="543" y="418" on="0"/>
        <pt x="551" y="376" on="0"/>
        <pt x="556" y="360" on="1"/>
        <pt x="514" y="353" on="0"/>
        <pt x="473" y="306" on="0"/>
        <pt x="473" y="277" on="1"/>
        <pt x="473" y="256" on="0"/>
        <pt x="540" y="220" on="0"/>
        <pt x="610" y="220" on="1"/>
        <pt x="663" y="220" on="0"/>
        <pt x="739" y="261" on="0"/>
        <pt x="789" y="335" on="0"/>
        <pt x="812" y="440" on="0"/>
        <pt x="812" y="505" on="1"/>
        <pt x="812" y="608" on="0"/>
        <pt x="778" y="725" on="0"/>
        <pt x="743" y="735" on="1"/>
        <pt x="761" y="741" on="0"/>
        <pt x="789" y="766" on="0"/>
        <pt x="809" y="815" on="0"/>
        <pt x="820" y="893" on="0"/>
        <pt x="820" y="951" on="1"/>
        <pt x="820" y="993" on="0"/>
        <pt x="809" y="1055" on="0"/>
        <pt x="801" y="1080" on="1"/>
        <pt x="790" y="1112" on="0"/>
        <pt x="749" y="1151" on="0"/>
        <pt x="667" y="1173" on="0"/>
        <pt x="532" y="1180" on="0"/>
        <pt x="428" y="1180" on="1"/>
        <pt x="433" y="1204" on="0"/>
        <pt x="443" y="1267" on="0"/>
        <pt x="443" y="1302" on="1"/>
        <pt x="443" y="1339" on="0"/>
        <pt x="435" y="1415" on="0"/>
        <pt x="428" y="1440" on="1"/>
        <pt x="451" y="1433" on="0"/>
        <pt x="557" y="1420" on="0"/>
        <pt x="694" y="1411" on="0"/>
        <pt x="849" y="1405" on="0"/>
        <pt x="921" y="1405" on="1"/>
        <pt x="994" y="1405" on="0"/>
        <pt x="1136" y="1411" on="0"/>
        <pt x="1257" y="1420" on="0"/>
        <pt x="1350" y="1433" on="0"/>
        <pt x="1373" y="1440" on="1"/>
        <pt x="1366" y="1415" on="0"/>
        <pt x="1358" y="1339" on="0"/>
        <pt x="1358" y="1302" on="1"/>
        <pt x="1358" y="1267" on="0"/>
        <pt x="1368" y="1204" on="0"/>
        <pt x="1373" y="1180" on="1"/>
        <pt x="1353" y="1180" on="1"/>
        <pt x="1317" y="1180" on="0"/>
        <pt x="1267" y="1170" on="0"/>
        <pt x="1236" y="1141" on="0"/>
        <pt x="1221" y="1091" on="0"/>
        <pt x="1221" y="1051" on="1"/>
        <pt x="1221" y="959" on="0"/>
        <pt x="1230" y="842" on="0"/>
        <pt x="1248" y="772" on="0"/>
        <pt x="1274" y="741" on="0"/>
        <pt x="1292" y="735" on="1"/>
        <pt x="1278" y="735" on="0"/>
        <pt x="1256" y="690" on="0"/>
        <pt x="1241" y="617" on="0"/>
        <pt x="1232" y="525" on="0"/>
        <pt x="1232" y="479" on="1"/>
        <pt x="1232" y="443" on="0"/>
        <pt x="1237" y="376" on="0"/>
        <pt x="1249" y="319" on="0"/>
        <pt x="1266" y="277" on="0"/>
        <pt x="1278" y="268" on="1"/>
        <pt x="1233" y="262" on="0"/>
        <pt x="1149" y="209" on="0"/>
        <pt x="1081" y="131" on="0"/>
        <pt x="1033" y="37" on="0"/>
        <pt x="1023" y="-10" on="1"/>
        <pt x="1009" y="-1" on="0"/>
        <pt x="934" y="12" on="0"/>
        <pt x="833" y="21" on="0"/>
        <pt x="717" y="25" on="0"/>
        <pt x="663" y="25" on="1"/>
        <pt x="545" y="25" on="0"/>
        <pt x="380" y="6" on="0"/>
        <pt x="340" y="-10" on="1"/>
        <pt x="338" y="35" on="0"/>
        <pt x="308" y="134" on="0"/>
        <pt x="243" y="217" on="0"/>
        <pt x="140" y="272" on="0"/>
      </contour>
    </TTGlyph>
    <TTGlyph name="Jcircumflex" xMin="57" yMin="-10" xMax="1450" yMax="2010">
      <component glyphName="J" x="0" y="0" flags="0x1204"/>
      <component glyphName="circumflex.cap" x="480" y="0" flags="0x1004"/>
    </TTGlyph>
    <TTGlyph name="K" xMin="100" yMin="0" xMax="1794" yMax="1440">
      <contour>
        <pt x="100" y="0" on="1"/>
        <pt x="106" y="25" on="0"/>
        <pt x="115" y="96" on="0"/>
        <pt x="115" y="134" on="1"/>
        <pt x="115" y="169" on="0"/>
        <pt x="105" y="236" on="0"/>
        <pt x="100" y="260" on="1"/>
        <pt x="145" y="260" on="0"/>
        <pt x="213" y="274" on="0"/>
        <pt x="259" y="307" on="0"/>
        <pt x="282" y="364" on="0"/>
        <pt x="282" y="407" on="1"/>
        <pt x="282" y="491" on="0"/>
        <pt x="273" y="611" on="0"/>
        <pt x="256" y="689" on="0"/>
        <pt x="230" y="730" on="0"/>
        <pt x="213" y="735" on="1"/>
        <pt x="231" y="741" on="0"/>
        <pt x="257" y="772" on="0"/>
        <pt x="274" y="842" on="0"/>
        <pt x="282" y="959" on="0"/>
        <pt x="282" y="1051" on="1"/>
        <pt x="282" y="1091" on="0"/>
        <pt x="256" y="1141" on="0"/>
        <pt x="212" y="1170" on="0"/>
        <pt x="153" y="1180" on="0"/>
        <pt x="119" y="1180" on="1"/>
        <pt x="100" y="1180" on="1"/>
        <pt x="105" y="1204" on="0"/>
        <pt x="115" y="1267" on="0"/>
        <pt x="115" y="1302" on="1"/>
        <pt x="115" y="1339" on="0"/>
        <pt x="106" y="1415" on="0"/>
        <pt x="100" y="1440" on="1"/>
        <pt x="119" y="1433" on="0"/>
        <pt x="201" y="1421" on="0"/>
        <pt x="307" y="1411" on="0"/>
        <pt x="426" y="1405" on="0"/>
        <pt x="483" y="1405" on="1"/>
        <pt x="541" y="1405" on="0"/>
        <pt x="660" y="1411" on="0"/>
        <pt x="765" y="1421" on="0"/>
        <pt x="845" y="1433" on="0"/>
        <pt x="865" y="1440" on="1"/>
        <pt x="859" y="1415" on="0"/>
        <pt x="850" y="1339" on="0"/>
        <pt x="850" y="1302" on="1"/>
        <pt x="850" y="1267" on="0"/>
        <pt x="860" y="1204" on="0"/>
        <pt x="865" y="1180" on="1"/>
        <pt x="844" y="1180" on="1"/>
        <pt x="808" y="1180" on="0"/>
        <pt x="748" y="1170" on="0"/>
        <pt x="706" y="1141" on="0"/>
        <pt x="683" y="1091" on="0"/>
        <pt x="683" y="1051" on="1"/>
        <pt x="683" y="979" on="0"/>
        <pt x="688" y="878" on="0"/>
        <pt x="693" y="843" on="1"/>
        <pt x="715" y="836" on="0"/>
        <pt x="747" y="836" on="1"/>
        <pt x="765" y="836" on="0"/>
        <pt x="804" y="836" on="0"/>
        <pt x="850" y="838" on="0"/>
        <pt x="907" y="839" on="0"/>
        <pt x="944" y="841" on="1"/>
        <pt x="997" y="873" on="0"/>
        <pt x="1084" y="953" on="0"/>
        <pt x="1145" y="1030" on="0"/>
        <pt x="1179" y="1096" on="0"/>
        <pt x="1179" y="1114" on="1"/>
        <pt x="1179" y="1134" on="0"/>
        <pt x="1167" y="1160" on="0"/>
        <pt x="1136" y="1175" on="0"/>
        <pt x="1080" y="1180" on="0"/>
        <pt x="1037" y="1180" on="1"/>
        <pt x="1045" y="1204" on="0"/>
        <pt x="1052" y="1277" on="0"/>
        <pt x="1052" y="1308" on="1"/>
        <pt x="1052" y="1341" on="0"/>
        <pt x="1044" y="1415" on="0"/>
        <pt x="1035" y="1440" on="1"/>
        <pt x="1055" y="1431" on="0"/>
        <pt x="1137" y="1418" on="0"/>
        <pt x="1238" y="1409" on="0"/>
        <pt x="1350" y="1405" on="0"/>
        <pt x="1400" y="1405" on="1"/>
        <pt x="1444" y="1405" on="0"/>
        <pt x="1542" y="1411" on="0"/>
        <pt x="1633" y="1422" on="0"/>
        <pt x="1709" y="1434" on="0"/>
        <pt x="1732" y="1440" on="1"/>
        <pt x="1726" y="1428" on="0"/>
        <pt x="1720" y="1393" on="0"/>
        <pt x="1717" y="1354" on="0"/>
        <pt x="1717" y="1314" on="0"/>
        <pt x="1717" y="1298" on="1"/>
        <pt x="1717" y="1267" on="0"/>
        <pt x="1724" y="1204" on="0"/>
        <pt x="1732" y="1180" on="1"/>
        <pt x="1689" y="1180" on="0"/>
        <pt x="1613" y="1149" on="0"/>
        <pt x="1550" y="1099" on="0"/>
        <pt x="1500" y="1034" on="0"/>
        <pt x="1466" y="965" on="0"/>
        <pt x="1448" y="898" on="0"/>
        <pt x="1448" y="871" on="1"/>
        <pt x="1418" y="864" on="0"/>
        <pt x="1356" y="838" on="0"/>
        <pt x="1296" y="806" on="0"/>
        <pt x="1240" y="768" on="0"/>
        <pt x="1217" y="749" on="1"/>
        <pt x="1249" y="717" on="0"/>
        <pt x="1353" y="659" on="0"/>
        <pt x="1462" y="614" on="0"/>
        <pt x="1559" y="587" on="0"/>
        <pt x="1585" y="587" on="1"/>
        <pt x="1579" y="557" on="0"/>
        <pt x="1579" y="527" on="1"/>
        <pt x="1579" y="474" on="0"/>
        <pt x="1612" y="377" on="0"/>
        <pt x="1670" y="304" on="0"/>
        <pt x="1748" y="260" on="0"/>
        <pt x="1793" y="260" on="1"/>
        <pt x="1785" y="236" on="0"/>
        <pt x="1782" y="169" on="0"/>
        <pt x="1782" y="134" on="1"/>
        <pt x="1782" y="96" on="0"/>
        <pt x="1785" y="25" on="0"/>
        <pt x="1794" y="0" on="1"/>
        <pt x="1784" y="4" on="0"/>
        <pt x="1718" y="13" on="0"/>
        <pt x="1633" y="20" on="0"/>
        <pt x="1543" y="25" on="0"/>
        <pt x="1508" y="25" on="1"/>
        <pt x="1484" y="25" on="0"/>
        <pt x="1419" y="24" on="0"/>
        <pt x="1346" y="22" on="0"/>
        <pt x="1272" y="19" on="0"/>
        <pt x="1207" y="13" on="0"/>
        <pt x="1157" y="5" on="0"/>
        <pt x="1145" y="0" on="1"/>
        <pt x="1156" y="21" on="0"/>
        <pt x="1166" y="76" on="0"/>
        <pt x="1166" y="105" on="1"/>
        <pt x="1166" y="152" on="0"/>
        <pt x="1143" y="239" on="0"/>
        <pt x="1123" y="260" on="1"/>
        <pt x="1149" y="275" on="0"/>
        <pt x="1180" y="310" on="0"/>
        <pt x="1196" y="350" on="0"/>
        <pt x="1201" y="398" on="0"/>
        <pt x="1201" y="425" on="1"/>
        <pt x="1201" y="465" on="0"/>
        <pt x="1149" y="546" on="0"/>
        <pt x="1065" y="609" on="0"/>
        <pt x="960" y="649" on="0"/>
        <pt x="906" y="649" on="1"/>
        <pt x="893" y="649" on="0"/>
        <pt x="860" y="650" on="0"/>
        <pt x="840" y="650" on="1"/>
        <pt x="806" y="650" on="0"/>
        <pt x="730" y="641" on="0"/>
        <pt x="695" y="626" on="1"/>
        <pt x="683" y="549" on="0"/>
        <pt x="683" y="407" on="1"/>
        <pt x="683" y="364" on="0"/>
        <pt x="702" y="307" on="0"/>
        <pt x="746" y="274" on="0"/>
        <pt x="815" y="260" on="0"/>
        <pt x="865" y="260" on="1"/>
        <pt x="860" y="236" on="0"/>
        <pt x="850" y="169" on="0"/>
        <pt x="850" y="134" on="1"/>
        <pt x="850" y="96" on="0"/>
        <pt x="859" y="25" on="0"/>
        <pt x="865" y="0" on="1"/>
        <pt x="836" y="6" on="0"/>
        <pt x="748" y="15" on="0"/>
        <pt x="644" y="22" on="0"/>
        <pt x="534" y="25" on="0"/>
        <pt x="483" y="25" on="1"/>
        <pt x="432" y="25" on="0"/>
        <pt x="321" y="22" on="0"/>
        <pt x="217" y="15" on="0"/>
        <pt x="128" y="6" on="0"/>
      </contour>
    </TTGlyph>
    <TTGlyph name="Kcommaaccent" xMin="100" yMin="-550" xMax="1794" yMax="1440">
      <component glyphName="K" x="0" y="0" flags="0x1204"/>
      <component glyphName="commaaccent" x="486" y="0" flags="0x1004"/>
    </TTGlyph>
    <TTGlyph name="L" xMin="100" yMin="0" xMax="1493" yMax="1440">
      <contour>
        <pt x="100" y="0" on="1"/>
        <pt x="106" y="25" on="0"/>
        <pt x="115" y="96" on="0"/>
        <pt x="115" y="134" on="1"/>
        <pt x="115" y="169" on="0"/>
        <pt x="105" y="236" on="0"/>
        <pt x="100" y="260" on="1"/>
        <pt x="145" y="260" on="0"/>
        <pt x="213" y="274" on="0"/>
        <pt x="259" y="307" on="0"/>
        <pt x="282" y="364" on="0"/>
        <pt x="282" y="407" on="1"/>
        <pt x="282" y="491" on="0"/>
        <pt x="273" y="611" on="0"/>
        <pt x="256" y="689" on="0"/>
        <pt x="230" y="730" on="0"/>
        <pt x="213" y="735" on="1"/>
        <pt x="231" y="741" on="0"/>
        <pt x="257" y="772" on="0"/>
        <pt x="274" y="842" on="0"/>
        <pt x="282" y="959" on="0"/>
        <pt x="282" y="1051" on="1"/>
        <pt x="282" y="1091" on="0"/>
        <pt x="256" y="1141" on="0"/>
        <pt x="212" y="1170" on="0"/>
        <pt x="153" y="1180" on="0"/>
        <pt x="119" y="1180" on="1"/>
        <pt x="100" y="1180" on="1"/>
        <pt x="105" y="1204" on="0"/>
        <pt x="115" y="1267" on="0"/>
        <pt x="115" y="1302" on="1"/>
        <pt x="115" y="1339" on="0"/>
        <pt x="106" y="1415" on="0"/>
        <pt x="100" y="1440" on="1"/>
        <pt x="119" y="1433" on="0"/>
        <pt x="201" y="1421" on="0"/>
        <pt x="307" y="1411" on="0"/>
        <pt x="426" y="1405" on="0"/>
        <pt x="483" y="1405" on="1"/>
        <pt x="541" y="1405" on="0"/>
        <pt x="670" y="1411" on="0"/>
        <pt x="787" y="1421" on="0"/>
        <pt x="877" y="1433" on="0"/>
        <pt x="897" y="1440" on="1"/>
        <pt x="891" y="1415" on="0"/>
        <pt x="882" y="1339" on="0"/>
        <pt x="882" y="1302" on="1"/>
        <pt x="882" y="1267" on="0"/>
        <pt x="892" y="1204" on="0"/>
        <pt x="897" y="1180" on="1"/>
        <pt x="876" y="1180" on="1"/>
        <pt x="838" y="1180" on="0"/>
        <pt x="768" y="1170" on="0"/>
        <pt x="715" y="1141" on="0"/>
        <pt x="683" y="1091" on="0"/>
        <pt x="683" y="1051" on="1"/>
        <pt x="683" y="959" on="0"/>
        <pt x="691" y="842" on="0"/>
        <pt x="708" y="772" on="0"/>
        <pt x="734" y="741" on="0"/>
        <pt x="752" y="735" on="1"/>
        <pt x="735" y="730" on="0"/>
        <pt x="709" y="689" on="0"/>
        <pt x="692" y="611" on="0"/>
        <pt x="683" y="491" on="0"/>
        <pt x="683" y="407" on="1"/>
        <pt x="683" y="355" on="0"/>
        <pt x="691" y="287" on="0"/>
        <pt x="696" y="262" on="1"/>
        <pt x="738" y="241" on="0"/>
        <pt x="837" y="224" on="0"/>
        <pt x="880" y="224" on="1"/>
        <pt x="943" y="224" on="0"/>
        <pt x="1027" y="236" on="0"/>
        <pt x="1077" y="278" on="0"/>
        <pt x="1097" y="359" on="0"/>
        <pt x="1097" y="428" on="1"/>
        <pt x="1097" y="491" on="0"/>
        <pt x="1085" y="574" on="0"/>
        <pt x="1068" y="629" on="0"/>
        <pt x="1052" y="664" on="0"/>
        <pt x="1049" y="680" on="1"/>
        <pt x="1068" y="673" on="0"/>
        <pt x="1133" y="663" on="0"/>
        <pt x="1204" y="657" on="0"/>
        <pt x="1272" y="655" on="0"/>
        <pt x="1295" y="655" on="1"/>
        <pt x="1320" y="655" on="0"/>
        <pt x="1377" y="658" on="0"/>
        <pt x="1431" y="665" on="0"/>
        <pt x="1477" y="674" on="0"/>
        <pt x="1493" y="680" on="1"/>
        <pt x="1488" y="665" on="0"/>
        <pt x="1460" y="581" on="0"/>
        <pt x="1432" y="469" on="0"/>
        <pt x="1410" y="341" on="0"/>
        <pt x="1410" y="283" on="1"/>
        <pt x="1411" y="244" on="0"/>
        <pt x="1412" y="163" on="0"/>
        <pt x="1416" y="88" on="0"/>
        <pt x="1429" y="23" on="0"/>
        <pt x="1442" y="0" on="1"/>
        <pt x="1423" y="4" on="0"/>
        <pt x="1332" y="11" on="0"/>
        <pt x="1211" y="16" on="0"/>
        <pt x="1073" y="21" on="0"/>
        <pt x="941" y="24" on="0"/>
        <pt x="828" y="25" on="0"/>
        <pt x="792" y="25" on="1"/>
        <pt x="756" y="25" on="0"/>
        <pt x="637" y="24" on="0"/>
        <pt x="496" y="21" on="0"/>
        <pt x="348" y="16" on="0"/>
        <pt x="218" y="11" on="0"/>
        <pt x="120" y="4" on="0"/>
      </contour>
    </TTGlyph>
    <TTGlyph name="Lacute" xMin="100" yMin="0" xMax="1493" yMax="2010">
      <component glyphName="L" x="0" y="0" flags="0x1204"/>
      <component glyphName="acute.cap" x="76" y="0" flags="0x1004"/>
    </TTGlyph>
    <TTGlyph name="Lcaron" xMin="100" yMin="0" xMax="1493" yMax="1597">
      <contour>
        <pt x="1118" y="907" on="1"/>
        <pt x="1141" y="932" on="0"/>
        <pt x="1168" y="1025" on="0"/>
        <pt x="1168" y="1071" on="1"/>
        <pt x="1168" y="1110" on="0"/>
        <pt x="1155" y="1174" on="0"/>
        <pt x="1143" y="1188" on="1"/>
        <pt x="1100" y="1184" on="0"/>
        <pt x="1034" y="1173" on="0"/>
        <pt x="1012" y="1167" on="1"/>
        <pt x="1024" y="1194" on="0"/>
        <pt x="1041" y="1301" on="0"/>
        <pt x="1041" y="1377" on="1"/>
        <pt x="1041" y="1412" on="0"/>
        <pt x="1036" y="1479" on="0"/>
        <pt x="1028" y="1537" on="0"/>
        <pt x="1017" y="1583" on="0"/>
        <pt x="1011" y="1597" on="1"/>
        <pt x="1046" y="1584" on="0"/>
        <pt x="1148" y="1567" on="0"/>
        <pt x="1226" y="1567" on="1"/>
        <pt x="1368" y="1567" on="0"/>
        <pt x="1431" y="1597" on="1"/>
        <pt x="1424" y="1584" on="0"/>
        <pt x="1413" y="1532" on="0"/>
        <pt x="1405" y="1465" on="0"/>
        <pt x="1401" y="1386" on="0"/>
        <pt x="1401" y="1346" on="1"/>
        <pt x="1401" y="1280" on="0"/>
        <pt x="1416" y="1193" on="0"/>
        <pt x="1431" y="1157" on="1"/>
        <pt x="1392" y="1145" on="0"/>
        <pt x="1343" y="1089" on="0"/>
        <pt x="1314" y="1018" on="0"/>
        <pt x="1300" y="940" on="0"/>
        <pt x="1296" y="907" on="1"/>
        <pt x="1286" y="912" on="0"/>
        <pt x="1237" y="919" on="0"/>
        <pt x="1215" y="919" on="1"/>
        <pt x="1183" y="919" on="0"/>
        <pt x="1129" y="914" on="0"/>
      </contour>
      <contour>
        <pt x="100" y="0" on="1"/>
        <pt x="106" y="25" on="0"/>
        <pt x="115" y="96" on="0"/>
        <pt x="115" y="134" on="1"/>
        <pt x="115" y="169" on="0"/>
        <pt x="105" y="236" on="0"/>
        <pt x="100" y="260" on="1"/>
        <pt x="145" y="260" on="0"/>
        <pt x="213" y="274" on="0"/>
        <pt x="259" y="307" on="0"/>
        <pt x="282" y="364" on="0"/>
        <pt x="282" y="407" on="1"/>
        <pt x="282" y="491" on="0"/>
        <pt x="273" y="611" on="0"/>
        <pt x="256" y="689" on="0"/>
        <pt x="230" y="730" on="0"/>
        <pt x="213" y="735" on="1"/>
        <pt x="231" y="741" on="0"/>
        <pt x="257" y="772" on="0"/>
        <pt x="274" y="842" on="0"/>
        <pt x="282" y="959" on="0"/>
        <pt x="282" y="1051" on="1"/>
        <pt x="282" y="1091" on="0"/>
        <pt x="256" y="1141" on="0"/>
        <pt x="212" y="1170" on="0"/>
        <pt x="153" y="1180" on="0"/>
        <pt x="119" y="1180" on="1"/>
        <pt x="100" y="1180" on="1"/>
        <pt x="105" y="1204" on="0"/>
        <pt x="115" y="1267" on="0"/>
        <pt x="115" y="1302" on="1"/>
        <pt x="115" y="1339" on="0"/>
        <pt x="106" y="1415" on="0"/>
        <pt x="100" y="1440" on="1"/>
        <pt x="119" y="1433" on="0"/>
        <pt x="201" y="1421" on="0"/>
        <pt x="307" y="1411" on="0"/>
        <pt x="426" y="1405" on="0"/>
        <pt x="483" y="1405" on="1"/>
        <pt x="541" y="1405" on="0"/>
        <pt x="670" y="1411" on="0"/>
        <pt x="787" y="1421" on="0"/>
        <pt x="877" y="1433" on="0"/>
        <pt x="897" y="1440" on="1"/>
        <pt x="891" y="1415" on="0"/>
        <pt x="882" y="1339" on="0"/>
        <pt x="882" y="1302" on="1"/>
        <pt x="882" y="1267" on="0"/>
        <pt x="892" y="1204" on="0"/>
        <pt x="897" y="1180" on="1"/>
        <pt x="876" y="1180" on="1"/>
        <pt x="838" y="1180" on="0"/>
        <pt x="768" y="1170" on="0"/>
        <pt x="715" y="1141" on="0"/>
        <pt x="683" y="1091" on="0"/>
        <pt x="683" y="1051" on="1"/>
        <pt x="683" y="959" on="0"/>
        <pt x="691" y="842" on="0"/>
        <pt x="708" y="772" on="0"/>
        <pt x="734" y="741" on="0"/>
        <pt x="752" y="735" on="1"/>
        <pt x="735" y="730" on="0"/>
        <pt x="709" y="689" on="0"/>
        <pt x="692" y="611" on="0"/>
        <pt x="683" y="491" on="0"/>
        <pt x="683" y="407" on="1"/>
        <pt x="683" y="355" on="0"/>
        <pt x="691" y="287" on="0"/>
        <pt x="696" y="262" on="1"/>
        <pt x="738" y="241" on="0"/>
        <pt x="837" y="224" on="0"/>
        <pt x="880" y="224" on="1"/>
        <pt x="943" y="224" on="0"/>
        <pt x="1027" y="236" on="0"/>
        <pt x="1077" y="278" on="0"/>
        <pt x="1097" y="359" on="0"/>
        <pt x="1097" y="428" on="1"/>
        <pt x="1097" y="491" on="0"/>
        <pt x="1085" y="574" on="0"/>
        <pt x="1068" y="629" on="0"/>
        <pt x="1052" y="664" on="0"/>
        <pt x="1049" y="680" on="1"/>
        <pt x="1068" y="673" on="0"/>
        <pt x="1133" y="663" on="0"/>
        <pt x="1204" y="657" on="0"/>
        <pt x="1272" y="655" on="0"/>
        <pt x="1295" y="655" on="1"/>
        <pt x="1320" y="655" on="0"/>
        <pt x="1377" y="658" on="0"/>
        <pt x="1431" y="665" on="0"/>
        <pt x="1477" y="674" on="0"/>
        <pt x="1493" y="680" on="1"/>
        <pt x="1488" y="665" on="0"/>
        <pt x="1460" y="581" on="0"/>
        <pt x="1432" y="469" on="0"/>
        <pt x="1410" y="341" on="0"/>
        <pt x="1410" y="283" on="1"/>
        <pt x="1411" y="244" on="0"/>
        <pt x="1412" y="163" on="0"/>
        <pt x="1416" y="88" on="0"/>
        <pt x="1429" y="23" on="0"/>
        <pt x="1442" y="0" on="1"/>
        <pt x="1423" y="4" on="0"/>
        <pt x="1332" y="11" on="0"/>
        <pt x="1211" y="16" on="0"/>
        <pt x="1073" y="21" on="0"/>
        <pt x="941" y="24" on="0"/>
        <pt x="828" y="25" on="0"/>
        <pt x="792" y="25" on="1"/>
        <pt x="756" y="25" on="0"/>
        <pt x="637" y="24" on="0"/>
        <pt x="496" y="21" on="0"/>
        <pt x="348" y="16" on="0"/>
        <pt x="218" y="11" on="0"/>
        <pt x="120" y="4" on="0"/>
      </contour>
    </TTGlyph>
    <TTGlyph name="Lcommaaccent" xMin="100" yMin="-550" xMax="1493" yMax="1440">
      <component glyphName="L" x="0" y="0" flags="0x1204"/>
      <component glyphName="commaaccent" x="365" y="0" flags="0x1004"/>
    </TTGlyph>
    <TTGlyph name="Ldot" xMin="100" yMin="0" xMax="1493" yMax="1440">
      <component glyphName="L" x="0" y="0" flags="0x1204"/>
      <component glyphName="periodcentered" x="894" y="408" flags="0x1004"/>
    </TTGlyph>
    <TTGlyph name="Lslash" xMin="87" yMin="0" xMax="1473" yMax="1440">
      <contour>
        <pt x="100" y="0" on="1"/>
        <pt x="106" y="25" on="0"/>
        <pt x="115" y="96" on="0"/>
        <pt x="115" y="134" on="1"/>
        <pt x="115" y="169" on="0"/>
        <pt x="105" y="236" on="0"/>
        <pt x="100" y="260" on="1"/>
        <pt x="145" y="260" on="0"/>
        <pt x="213" y="274" on="0"/>
        <pt x="259" y="307" on="0"/>
        <pt x="282" y="364" on="0"/>
        <pt x="282" y="407" on="1"/>
        <pt x="282" y="430" on="0"/>
        <pt x="279" y="469" on="0"/>
        <pt x="270" y="497" on="0"/>
        <pt x="252" y="513" on="0"/>
        <pt x="237" y="513" on="1"/>
        <pt x="215" y="513" on="0"/>
        <pt x="144" y="480" on="0"/>
        <pt x="87" y="442" on="1"/>
        <pt x="95" y="474" on="0"/>
        <pt x="107" y="560" on="0"/>
        <pt x="107" y="626" on="1"/>
        <pt x="107" y="683" on="0"/>
        <pt x="95" y="750" on="0"/>
        <pt x="87" y="770" on="1"/>
        <pt x="90" y="769" on="0"/>
        <pt x="102" y="769" on="1"/>
        <pt x="122" y="769" on="0"/>
        <pt x="187" y="784" on="0"/>
        <pt x="214" y="807" on="1"/>
        <pt x="236" y="822" on="0"/>
        <pt x="263" y="864" on="0"/>
        <pt x="277" y="923" on="0"/>
        <pt x="282" y="1000" on="0"/>
        <pt x="282" y="1051" on="1"/>
        <pt x="282" y="1091" on="0"/>
        <pt x="256" y="1141" on="0"/>
        <pt x="212" y="1170" on="0"/>
        <pt x="153" y="1180" on="0"/>
        <pt x="119" y="1180" on="1"/>
        <pt x="100" y="1180" on="1"/>
        <pt x="105" y="1204" on="0"/>
        <pt x="115" y="1267" on="0"/>
        <pt x="115" y="1302" on="1"/>
        <pt x="115" y="1339" on="0"/>
        <pt x="106" y="1415" on="0"/>
        <pt x="100" y="1440" on="1"/>
        <pt x="119" y="1433" on="0"/>
        <pt x="201" y="1421" on="0"/>
        <pt x="307" y="1411" on="0"/>
        <pt x="426" y="1405" on="0"/>
        <pt x="483" y="1405" on="1"/>
        <pt x="541" y="1405" on="0"/>
        <pt x="660" y="1411" on="0"/>
        <pt x="765" y="1421" on="0"/>
        <pt x="845" y="1433" on="0"/>
        <pt x="865" y="1440" on="1"/>
        <pt x="859" y="1415" on="0"/>
        <pt x="850" y="1339" on="0"/>
        <pt x="850" y="1302" on="1"/>
        <pt x="850" y="1267" on="0"/>
        <pt x="860" y="1204" on="0"/>
        <pt x="865" y="1180" on="1"/>
        <pt x="844" y="1180" on="1"/>
        <pt x="808" y="1180" on="0"/>
        <pt x="748" y="1170" on="0"/>
        <pt x="706" y="1141" on="0"/>
        <pt x="683" y="1091" on="0"/>
        <pt x="683" y="1051" on="1"/>
        <pt x="683" y="1016" on="0"/>
        <pt x="704" y="981" on="0"/>
        <pt x="730" y="981" on="1"/>
        <pt x="753" y="981" on="0"/>
        <pt x="832" y="1012" on="0"/>
        <pt x="890" y="1044" on="1"/>
        <pt x="909" y="1055" on="0"/>
        <pt x="959" y="1075" on="0"/>
        <pt x="975" y="1090" on="1"/>
        <pt x="969" y="1058" on="0"/>
        <pt x="955" y="977" on="0"/>
        <pt x="955" y="906" on="1"/>
        <pt x="955" y="849" on="0"/>
        <pt x="967" y="782" on="0"/>
        <pt x="975" y="762" on="1"/>
        <pt x="965" y="765" on="0"/>
        <pt x="935" y="769" on="0"/>
        <pt x="917" y="769" on="1"/>
        <pt x="891" y="769" on="0"/>
        <pt x="832" y="758" on="0"/>
        <pt x="775" y="731" on="0"/>
        <pt x="725" y="684" on="0"/>
        <pt x="709" y="648" on="1"/>
        <pt x="691" y="606" on="0"/>
        <pt x="683" y="480" on="0"/>
        <pt x="683" y="407" on="1"/>
        <pt x="683" y="355" on="0"/>
        <pt x="691" y="287" on="0"/>
        <pt x="696" y="262" on="1"/>
        <pt x="738" y="241" on="0"/>
        <pt x="837" y="224" on="0"/>
        <pt x="880" y="224" on="1"/>
        <pt x="942" y="224" on="0"/>
        <pt x="1026" y="239" on="0"/>
        <pt x="1078" y="288" on="0"/>
        <pt x="1101" y="383" on="0"/>
        <pt x="1101" y="463" on="1"/>
        <pt x="1101" y="508" on="0"/>
        <pt x="1093" y="591" on="0"/>
        <pt x="1088" y="615" on="1"/>
        <pt x="1127" y="601" on="0"/>
        <pt x="1229" y="590" on="0"/>
        <pt x="1275" y="590" on="1"/>
        <pt x="1300" y="590" on="0"/>
        <pt x="1357" y="593" on="0"/>
        <pt x="1411" y="600" on="0"/>
        <pt x="1457" y="609" on="0"/>
        <pt x="1473" y="615" on="1"/>
        <pt x="1467" y="597" on="0"/>
        <pt x="1438" y="507" on="0"/>
        <pt x="1408" y="390" on="0"/>
        <pt x="1385" y="258" on="0"/>
        <pt x="1385" y="196" on="1"/>
        <pt x="1385" y="138" on="0"/>
        <pt x="1403" y="33" on="0"/>
        <pt x="1422" y="0" on="1"/>
        <pt x="1403" y="4" on="0"/>
        <pt x="1314" y="11" on="0"/>
        <pt x="1198" y="16" on="0"/>
        <pt x="1065" y="21" on="0"/>
        <pt x="938" y="24" on="0"/>
        <pt x="828" y="25" on="0"/>
        <pt x="792" y="25" on="1"/>
        <pt x="756" y="25" on="0"/>
        <pt x="637" y="24" on="0"/>
        <pt x="496" y="21" on="0"/>
        <pt x="348" y="16" on="0"/>
        <pt x="218" y="11" on="0"/>
        <pt x="120" y="4" on="0"/>
      </contour>
    </TTGlyph>
    <TTGlyph name="M" xMin="107" yMin="0" xMax="2133" yMax="1440">
      <contour>
        <pt x="107" y="0" on="1"/>
        <pt x="113" y="25" on="0"/>
        <pt x="122" y="96" on="0"/>
        <pt x="122" y="134" on="1"/>
        <pt x="122" y="169" on="0"/>
        <pt x="112" y="236" on="0"/>
        <pt x="107" y="260" on="1"/>
        <pt x="173" y="260" on="0"/>
        <pt x="252" y="291" on="0"/>
        <pt x="294" y="364" on="0"/>
        <pt x="307" y="486" on="0"/>
        <pt x="307" y="576" on="1"/>
        <pt x="307" y="645" on="0"/>
        <pt x="273" y="730" on="0"/>
        <pt x="250" y="735" on="1"/>
        <pt x="270" y="741" on="0"/>
        <pt x="300" y="793" on="0"/>
        <pt x="319" y="876" on="0"/>
        <pt x="329" y="986" on="0"/>
        <pt x="329" y="1051" on="1"/>
        <pt x="329" y="1091" on="0"/>
        <pt x="303" y="1141" on="0"/>
        <pt x="259" y="1170" on="0"/>
        <pt x="200" y="1180" on="0"/>
        <pt x="166" y="1180" on="1"/>
        <pt x="147" y="1180" on="1"/>
        <pt x="152" y="1204" on="0"/>
        <pt x="162" y="1267" on="0"/>
        <pt x="162" y="1302" on="1"/>
        <pt x="162" y="1339" on="0"/>
        <pt x="153" y="1415" on="0"/>
        <pt x="147" y="1440" on="1"/>
        <pt x="165" y="1433" on="0"/>
        <pt x="238" y="1421" on="0"/>
        <pt x="333" y="1411" on="0"/>
        <pt x="439" y="1405" on="0"/>
        <pt x="490" y="1405" on="1"/>
        <pt x="548" y="1405" on="0"/>
        <pt x="651" y="1411" on="0"/>
        <pt x="737" y="1421" on="0"/>
        <pt x="802" y="1433" on="0"/>
        <pt x="822" y="1440" on="1"/>
        <pt x="823" y="1409" on="0"/>
        <pt x="853" y="1306" on="0"/>
        <pt x="901" y="1182" on="0"/>
        <pt x="962" y="1046" on="0"/>
        <pt x="1025" y="920" on="0"/>
        <pt x="1086" y="812" on="0"/>
        <pt x="1110" y="778" on="1"/>
        <pt x="1134" y="812" on="0"/>
        <pt x="1195" y="920" on="0"/>
        <pt x="1258" y="1046" on="0"/>
        <pt x="1319" y="1182" on="0"/>
        <pt x="1367" y="1306" on="0"/>
        <pt x="1397" y="1409" on="0"/>
        <pt x="1398" y="1440" on="1"/>
        <pt x="1417" y="1433" on="0"/>
        <pt x="1483" y="1420" on="0"/>
        <pt x="1569" y="1411" on="0"/>
        <pt x="1673" y="1405" on="0"/>
        <pt x="1730" y="1405" on="1"/>
        <pt x="1781" y="1405" on="0"/>
        <pt x="1887" y="1411" on="0"/>
        <pt x="1982" y="1421" on="0"/>
        <pt x="2055" y="1433" on="0"/>
        <pt x="2073" y="1440" on="1"/>
        <pt x="2067" y="1415" on="0"/>
        <pt x="2058" y="1339" on="0"/>
        <pt x="2058" y="1302" on="1"/>
        <pt x="2058" y="1267" on="0"/>
        <pt x="2068" y="1204" on="0"/>
        <pt x="2073" y="1180" on="1"/>
        <pt x="2054" y="1180" on="1"/>
        <pt x="2020" y="1180" on="0"/>
        <pt x="1961" y="1170" on="0"/>
        <pt x="1917" y="1141" on="0"/>
        <pt x="1891" y="1091" on="0"/>
        <pt x="1891" y="1051" on="1"/>
        <pt x="1891" y="986" on="0"/>
        <pt x="1900" y="876" on="0"/>
        <pt x="1920" y="793" on="0"/>
        <pt x="1950" y="741" on="0"/>
        <pt x="1970" y="735" on="1"/>
        <pt x="1947" y="730" on="0"/>
        <pt x="1913" y="645" on="0"/>
        <pt x="1913" y="576" on="1"/>
        <pt x="1913" y="527" on="0"/>
        <pt x="1934" y="447" on="0"/>
        <pt x="1941" y="407" on="1"/>
        <pt x="1948" y="365" on="0"/>
        <pt x="1974" y="309" on="0"/>
        <pt x="2019" y="275" on="0"/>
        <pt x="2086" y="260" on="0"/>
        <pt x="2133" y="260" on="1"/>
        <pt x="2128" y="236" on="0"/>
        <pt x="2118" y="169" on="0"/>
        <pt x="2118" y="134" on="1"/>
        <pt x="2118" y="96" on="0"/>
        <pt x="2127" y="25" on="0"/>
        <pt x="2133" y="0" on="1"/>
        <pt x="2104" y="6" on="0"/>
        <pt x="2016" y="15" on="0"/>
        <pt x="1912" y="22" on="0"/>
        <pt x="1801" y="25" on="0"/>
        <pt x="1750" y="25" on="1"/>
        <pt x="1699" y="25" on="0"/>
        <pt x="1588" y="22" on="0"/>
        <pt x="1484" y="15" on="0"/>
        <pt x="1396" y="6" on="0"/>
        <pt x="1368" y="0" on="1"/>
        <pt x="1374" y="25" on="0"/>
        <pt x="1383" y="96" on="0"/>
        <pt x="1383" y="134" on="1"/>
        <pt x="1383" y="169" on="0"/>
        <pt x="1373" y="236" on="0"/>
        <pt x="1368" y="260" on="1"/>
        <pt x="1468" y="260" on="0"/>
        <pt x="1560" y="329" on="0"/>
        <pt x="1560" y="415" on="1"/>
        <pt x="1560" y="484" on="0"/>
        <pt x="1553" y="634" on="0"/>
        <pt x="1540" y="771" on="0"/>
        <pt x="1521" y="884" on="0"/>
        <pt x="1509" y="916" on="1"/>
        <pt x="1487" y="916" on="0"/>
        <pt x="1432" y="852" on="0"/>
        <pt x="1373" y="752" on="0"/>
        <pt x="1317" y="632" on="0"/>
        <pt x="1273" y="518" on="0"/>
        <pt x="1245" y="426" on="0"/>
        <pt x="1244" y="405" on="1"/>
        <pt x="1216" y="414" on="0"/>
        <pt x="1146" y="420" on="0"/>
        <pt x="1110" y="420" on="1"/>
        <pt x="1074" y="420" on="0"/>
        <pt x="1004" y="414" on="0"/>
        <pt x="976" y="405" on="1"/>
        <pt x="975" y="425" on="0"/>
        <pt x="947" y="515" on="0"/>
        <pt x="903" y="626" on="0"/>
        <pt x="848" y="744" on="0"/>
        <pt x="790" y="841" on="0"/>
        <pt x="734" y="905" on="0"/>
        <pt x="712" y="906" on="1"/>
        <pt x="702" y="874" on="0"/>
        <pt x="689" y="762" on="0"/>
        <pt x="682" y="626" on="0"/>
        <pt x="680" y="477" on="0"/>
        <pt x="680" y="407" on="1"/>
        <pt x="680" y="364" on="0"/>
        <pt x="703" y="307" on="0"/>
        <pt x="750" y="274" on="0"/>
        <pt x="822" y="260" on="0"/>
        <pt x="872" y="260" on="1"/>
        <pt x="867" y="236" on="0"/>
        <pt x="857" y="169" on="0"/>
        <pt x="857" y="134" on="1"/>
        <pt x="857" y="96" on="0"/>
        <pt x="866" y="25" on="0"/>
        <pt x="872" y="0" on="1"/>
        <pt x="843" y="6" on="0"/>
        <pt x="755" y="15" on="0"/>
        <pt x="651" y="22" on="0"/>
        <pt x="541" y="25" on="0"/>
        <pt x="490" y="25" on="1"/>
        <pt x="439" y="25" on="0"/>
        <pt x="328" y="22" on="0"/>
        <pt x="224" y="15" on="0"/>
        <pt x="135" y="6" on="0"/>
      </contour>
    </TTGlyph>
    <TTGlyph name="N" xMin="100" yMin="0" xMax="1835" yMax="1440">
      <contour>
        <pt x="100" y="0" on="1"/>
        <pt x="106" y="25" on="0"/>
        <pt x="115" y="96" on="0"/>
        <pt x="115" y="134" on="1"/>
        <pt x="115" y="169" on="0"/>
        <pt x="105" y="236" on="0"/>
        <pt x="100" y="260" on="1"/>
        <pt x="145" y="260" on="0"/>
        <pt x="213" y="274" on="0"/>
        <pt x="259" y="307" on="0"/>
        <pt x="282" y="364" on="0"/>
        <pt x="282" y="407" on="1"/>
        <pt x="282" y="498" on="0"/>
        <pt x="273" y="620" on="0"/>
        <pt x="256" y="695" on="0"/>
        <pt x="230" y="730" on="0"/>
        <pt x="213" y="735" on="1"/>
        <pt x="231" y="741" on="0"/>
        <pt x="257" y="772" on="0"/>
        <pt x="274" y="842" on="0"/>
        <pt x="282" y="959" on="0"/>
        <pt x="282" y="1051" on="1"/>
        <pt x="282" y="1091" on="0"/>
        <pt x="256" y="1141" on="0"/>
        <pt x="212" y="1170" on="0"/>
        <pt x="153" y="1180" on="0"/>
        <pt x="119" y="1180" on="1"/>
        <pt x="100" y="1180" on="1"/>
        <pt x="105" y="1204" on="0"/>
        <pt x="115" y="1267" on="0"/>
        <pt x="115" y="1302" on="1"/>
        <pt x="115" y="1339" on="0"/>
        <pt x="106" y="1415" on="0"/>
        <pt x="100" y="1440" on="1"/>
        <pt x="139" y="1426" on="0"/>
        <pt x="283" y="1405" on="0"/>
        <pt x="398" y="1405" on="1"/>
        <pt x="473" y="1405" on="0"/>
        <pt x="615" y="1422" on="0"/>
        <pt x="675" y="1433" on="1"/>
        <pt x="675" y="1385" on="0"/>
        <pt x="715" y="1263" on="0"/>
        <pt x="783" y="1129" on="0"/>
        <pt x="870" y="990" on="0"/>
        <pt x="965" y="860" on="0"/>
        <pt x="1060" y="745" on="0"/>
        <pt x="1143" y="660" on="0"/>
        <pt x="1205" y="610" on="0"/>
        <pt x="1220" y="610" on="1"/>
        <pt x="1222" y="610" on="1"/>
        <pt x="1223" y="610" on="0"/>
        <pt x="1226" y="609" on="0"/>
        <pt x="1228" y="609" on="1"/>
        <pt x="1236" y="639" on="0"/>
        <pt x="1245" y="731" on="0"/>
        <pt x="1250" y="847" on="0"/>
        <pt x="1252" y="980" on="0"/>
        <pt x="1252" y="1051" on="1"/>
        <pt x="1252" y="1091" on="0"/>
        <pt x="1226" y="1141" on="0"/>
        <pt x="1182" y="1170" on="0"/>
        <pt x="1123" y="1180" on="0"/>
        <pt x="1089" y="1180" on="1"/>
        <pt x="1070" y="1180" on="1"/>
        <pt x="1075" y="1204" on="0"/>
        <pt x="1085" y="1267" on="0"/>
        <pt x="1085" y="1302" on="1"/>
        <pt x="1085" y="1339" on="0"/>
        <pt x="1076" y="1415" on="0"/>
        <pt x="1070" y="1440" on="1"/>
        <pt x="1089" y="1433" on="0"/>
        <pt x="1171" y="1421" on="0"/>
        <pt x="1277" y="1411" on="0"/>
        <pt x="1396" y="1405" on="0"/>
        <pt x="1453" y="1405" on="1"/>
        <pt x="1511" y="1405" on="0"/>
        <pt x="1630" y="1411" on="0"/>
        <pt x="1735" y="1421" on="0"/>
        <pt x="1815" y="1433" on="0"/>
        <pt x="1835" y="1440" on="1"/>
        <pt x="1829" y="1415" on="0"/>
        <pt x="1820" y="1339" on="0"/>
        <pt x="1820" y="1302" on="1"/>
        <pt x="1820" y="1267" on="0"/>
        <pt x="1830" y="1204" on="0"/>
        <pt x="1835" y="1180" on="1"/>
        <pt x="1814" y="1180" on="1"/>
        <pt x="1778" y="1180" on="0"/>
        <pt x="1718" y="1170" on="0"/>
        <pt x="1676" y="1141" on="0"/>
        <pt x="1653" y="1091" on="0"/>
        <pt x="1653" y="1051" on="1"/>
        <pt x="1653" y="959" on="0"/>
        <pt x="1664" y="839" on="0"/>
        <pt x="1685" y="767" on="0"/>
        <pt x="1714" y="737" on="0"/>
        <pt x="1732" y="735" on="1"/>
        <pt x="1715" y="726" on="0"/>
        <pt x="1689" y="688" on="0"/>
        <pt x="1672" y="606" on="0"/>
        <pt x="1663" y="470" on="0"/>
        <pt x="1663" y="363" on="1"/>
        <pt x="1663" y="291" on="0"/>
        <pt x="1675" y="172" on="0"/>
        <pt x="1692" y="81" on="0"/>
        <pt x="1712" y="18" on="0"/>
        <pt x="1720" y="0" on="1"/>
        <pt x="1695" y="8" on="0"/>
        <pt x="1633" y="18" on="0"/>
        <pt x="1569" y="23" on="0"/>
        <pt x="1509" y="25" on="0"/>
        <pt x="1487" y="25" on="1"/>
        <pt x="1463" y="25" on="0"/>
        <pt x="1403" y="23" on="0"/>
        <pt x="1340" y="18" on="0"/>
        <pt x="1276" y="8" on="0"/>
        <pt x="1249" y="0" on="1"/>
        <pt x="1249" y="50" on="0"/>
        <pt x="1192" y="188" on="0"/>
        <pt x="1099" y="340" on="0"/>
        <pt x="982" y="496" on="0"/>
        <pt x="863" y="635" on="0"/>
        <pt x="753" y="746" on="0"/>
        <pt x="714" y="777" on="1"/>
        <pt x="695" y="732" on="0"/>
        <pt x="683" y="540" on="0"/>
        <pt x="683" y="407" on="1"/>
        <pt x="683" y="364" on="0"/>
        <pt x="702" y="307" on="0"/>
        <pt x="746" y="274" on="0"/>
        <pt x="815" y="260" on="0"/>
        <pt x="865" y="260" on="1"/>
        <pt x="860" y="236" on="0"/>
        <pt x="850" y="169" on="0"/>
        <pt x="850" y="134" on="1"/>
        <pt x="850" y="96" on="0"/>
        <pt x="859" y="25" on="0"/>
        <pt x="865" y="0" on="1"/>
        <pt x="836" y="6" on="0"/>
        <pt x="748" y="15" on="0"/>
        <pt x="644" y="22" on="0"/>
        <pt x="534" y="25" on="0"/>
        <pt x="483" y="25" on="1"/>
        <pt x="432" y="25" on="0"/>
        <pt x="321" y="22" on="0"/>
        <pt x="217" y="15" on="0"/>
        <pt x="128" y="6" on="0"/>
      </contour>
    </TTGlyph>
    <TTGlyph name="Nacute" xMin="100" yMin="0" xMax="1835" yMax="2010">
      <component glyphName="N" x="0" y="0" flags="0x1204"/>
      <component glyphName="acute.cap" x="516" y="0" flags="0x1004"/>
    </TTGlyph>
    <TTGlyph name="Ncaron" xMin="100" yMin="0" xMax="1835" yMax="2010">
      <component glyphName="N" x="0" y="0" flags="0x1204"/>
      <component glyphName="caron.cap" x="382" y="0" flags="0x1004"/>
    </TTGlyph>
    <TTGlyph name="Ncommaaccent" xMin="100" yMin="-550" xMax="1835" yMax="1440">
      <component glyphName="N" x="0" y="0" flags="0x1204"/>
      <component glyphName="commaaccent" x="536" y="0" flags="0x1004"/>
    </TTGlyph>
    <TTGlyph name="Ntilde" xMin="100" yMin="0" xMax="1835" yMax="2010">
      <component glyphName="N" x="0" y="0" flags="0x1204"/>
      <component glyphName="tilde.cap" x="287" y="0" flags="0x1004"/>
    </TTGlyph>
    <TTGlyph name="O" xMin="83" yMin="-20" xMax="1623" yMax="1460">
      <contour>
        <pt x="98" y="268" on="1"/>
        <pt x="117" y="294" on="0"/>
        <pt x="149" y="455" on="0"/>
        <pt x="149" y="594" on="1"/>
        <pt x="149" y="657" on="0"/>
        <pt x="115" y="724" on="0"/>
        <pt x="83" y="735" on="1"/>
        <pt x="101" y="740" on="0"/>
        <pt x="127" y="776" on="0"/>
        <pt x="145" y="828" on="0"/>
        <pt x="153" y="891" on="0"/>
        <pt x="153" y="924" on="1"/>
        <pt x="153" y="1010" on="0"/>
        <pt x="124" y="1143" on="0"/>
        <pt x="98" y="1172" on="1"/>
        <pt x="106" y="1172" on="1"/>
        <pt x="140" y="1172" on="0"/>
        <pt x="223" y="1202" on="0"/>
        <pt x="309" y="1251" on="0"/>
        <pt x="391" y="1312" on="0"/>
        <pt x="456" y="1376" on="0"/>
        <pt x="497" y="1437" on="0"/>
        <pt x="499" y="1460" on="1"/>
        <pt x="515" y="1451" on="0"/>
        <pt x="582" y="1432" on="0"/>
        <pt x="675" y="1415" on="0"/>
        <pt x="790" y="1405" on="0"/>
        <pt x="853" y="1405" on="1"/>
        <pt x="916" y="1405" on="0"/>
        <pt x="1031" y="1415" on="0"/>
        <pt x="1124" y="1432" on="0"/>
        <pt x="1191" y="1451" on="0"/>
        <pt x="1207" y="1460" on="1"/>
        <pt x="1209" y="1437" on="0"/>
        <pt x="1250" y="1376" on="0"/>
        <pt x="1315" y="1312" on="0"/>
        <pt x="1397" y="1251" on="0"/>
        <pt x="1483" y="1202" on="0"/>
        <pt x="1566" y="1172" on="0"/>
        <pt x="1600" y="1172" on="1"/>
        <pt x="1608" y="1172" on="1"/>
        <pt x="1582" y="1143" on="0"/>
        <pt x="1553" y="1010" on="0"/>
        <pt x="1553" y="924" on="1"/>
        <pt x="1553" y="891" on="0"/>
        <pt x="1561" y="828" on="0"/>
        <pt x="1579" y="776" on="0"/>
        <pt x="1605" y="740" on="0"/>
        <pt x="1623" y="735" on="1"/>
        <pt x="1591" y="724" on="0"/>
        <pt x="1557" y="657" on="0"/>
        <pt x="1557" y="594" on="1"/>
        <pt x="1557" y="455" on="0"/>
        <pt x="1589" y="294" on="0"/>
        <pt x="1608" y="268" on="1"/>
        <pt x="1554" y="262" on="0"/>
        <pt x="1426" y="206" on="0"/>
        <pt x="1311" y="124" on="0"/>
        <pt x="1225" y="27" on="0"/>
        <pt x="1213" y="-20" on="1"/>
        <pt x="1197" y="-11" on="0"/>
        <pt x="1128" y="5" on="0"/>
        <pt x="1033" y="18" on="0"/>
        <pt x="916" y="25" on="0"/>
        <pt x="853" y="25" on="1"/>
        <pt x="790" y="25" on="0"/>
        <pt x="673" y="18" on="0"/>
        <pt x="578" y="5" on="0"/>
        <pt x="509" y="-11" on="0"/>
        <pt x="493" y="-20" on="1"/>
        <pt x="481" y="27" on="0"/>
        <pt x="395" y="124" on="0"/>
        <pt x="280" y="206" on="0"/>
        <pt x="152" y="262" on="0"/>
      </contour>
      <contour>
        <pt x="853" y="220" on="1"/>
        <pt x="909" y="220" on="0"/>
        <pt x="1006" y="259" on="0"/>
        <pt x="1077" y="366" on="0"/>
        <pt x="1118" y="553" on="0"/>
        <pt x="1118" y="702" on="1"/>
        <pt x="1118" y="819" on="0"/>
        <pt x="1097" y="985" on="0"/>
        <pt x="1060" y="1098" on="0"/>
        <pt x="1009" y="1165" on="0"/>
        <pt x="950" y="1200" on="0"/>
        <pt x="886" y="1210" on="0"/>
        <pt x="853" y="1210" on="1"/>
        <pt x="820" y="1210" on="0"/>
        <pt x="756" y="1200" on="0"/>
        <pt x="697" y="1165" on="0"/>
        <pt x="646" y="1098" on="0"/>
        <pt x="609" y="985" on="0"/>
        <pt x="588" y="819" on="0"/>
        <pt x="588" y="702" on="1"/>
        <pt x="588" y="553" on="0"/>
        <pt x="629" y="366" on="0"/>
        <pt x="700" y="259" on="0"/>
        <pt x="797" y="220" on="0"/>
      </contour>
    </TTGlyph>
    <TTGlyph name="OE" xMin="115" yMin="-20" xMax="2276" yMax="1460">
      <contour>
        <pt x="130" y="268" on="1"/>
        <pt x="149" y="294" on="0"/>
        <pt x="181" y="455" on="0"/>
        <pt x="181" y="594" on="1"/>
        <pt x="181" y="657" on="0"/>
        <pt x="147" y="724" on="0"/>
        <pt x="115" y="735" on="1"/>
        <pt x="133" y="740" on="0"/>
        <pt x="159" y="776" on="0"/>
        <pt x="177" y="828" on="0"/>
        <pt x="185" y="891" on="0"/>
        <pt x="185" y="924" on="1"/>
        <pt x="185" y="1010" on="0"/>
        <pt x="156" y="1143" on="0"/>
        <pt x="130" y="1172" on="1"/>
        <pt x="138" y="1172" on="1"/>
        <pt x="171" y="1172" on="0"/>
        <pt x="253" y="1202" on="0"/>
        <pt x="337" y="1251" on="0"/>
        <pt x="416" y="1312" on="0"/>
        <pt x="479" y="1376" on="0"/>
        <pt x="519" y="1437" on="0"/>
        <pt x="521" y="1460" on="1"/>
        <pt x="537" y="1451" on="0"/>
        <pt x="604" y="1432" on="0"/>
        <pt x="697" y="1415" on="0"/>
        <pt x="812" y="1405" on="0"/>
        <pt x="875" y="1405" on="1"/>
        <pt x="938" y="1405" on="0"/>
        <pt x="1053" y="1410" on="0"/>
        <pt x="1146" y="1422" on="0"/>
        <pt x="1213" y="1443" on="0"/>
        <pt x="1229" y="1460" on="1"/>
        <pt x="1248" y="1445" on="0"/>
        <pt x="1344" y="1424" on="0"/>
        <pt x="1467" y="1411" on="0"/>
        <pt x="1599" y="1405" on="0"/>
        <pt x="1653" y="1405" on="1"/>
        <pt x="1689" y="1405" on="0"/>
        <pt x="1798" y="1407" on="0"/>
        <pt x="1923" y="1412" on="0"/>
        <pt x="2054" y="1418" on="0"/>
        <pt x="2168" y="1426" on="0"/>
        <pt x="2256" y="1435" on="0"/>
        <pt x="2276" y="1440" on="1"/>
        <pt x="2268" y="1398" on="0"/>
        <pt x="2251" y="1269" on="0"/>
        <pt x="2251" y="1197" on="1"/>
        <pt x="2251" y="1155" on="0"/>
        <pt x="2257" y="1074" on="0"/>
        <pt x="2264" y="1007" on="0"/>
        <pt x="2273" y="957" on="0"/>
        <pt x="2276" y="945" on="1"/>
        <pt x="2246" y="956" on="0"/>
        <pt x="2153" y="970" on="0"/>
        <pt x="2101" y="970" on="1"/>
        <pt x="2055" y="970" on="0"/>
        <pt x="1963" y="959" on="0"/>
        <pt x="1921" y="945" on="1"/>
        <pt x="1928" y="966" on="0"/>
        <pt x="1937" y="1026" on="0"/>
        <pt x="1937" y="1057" on="1"/>
        <pt x="1937" y="1108" on="0"/>
        <pt x="1902" y="1169" on="0"/>
        <pt x="1848" y="1201" on="0"/>
        <pt x="1784" y="1210" on="0"/>
        <pt x="1755" y="1210" on="1"/>
        <pt x="1732" y="1210" on="0"/>
        <pt x="1681" y="1207" on="0"/>
        <pt x="1628" y="1196" on="0"/>
        <pt x="1576" y="1177" on="0"/>
        <pt x="1554" y="1161" on="1"/>
        <pt x="1550" y="1138" on="0"/>
        <pt x="1544" y="1078" on="0"/>
        <pt x="1544" y="1033" on="1"/>
        <pt x="1544" y="966" on="0"/>
        <pt x="1549" y="891" on="0"/>
        <pt x="1553" y="871" on="1"/>
        <pt x="1580" y="859" on="0"/>
        <pt x="1652" y="849" on="0"/>
        <pt x="1690" y="849" on="1"/>
        <pt x="1747" y="849" on="0"/>
        <pt x="1849" y="867" on="0"/>
        <pt x="1872" y="879" on="1"/>
        <pt x="1864" y="857" on="0"/>
        <pt x="1857" y="779" on="0"/>
        <pt x="1857" y="736" on="1"/>
        <pt x="1857" y="712" on="0"/>
        <pt x="1859" y="665" on="0"/>
        <pt x="1864" y="626" on="0"/>
        <pt x="1869" y="597" on="0"/>
        <pt x="1872" y="590" on="1"/>
        <pt x="1863" y="595" on="0"/>
        <pt x="1823" y="606" on="0"/>
        <pt x="1770" y="616" on="0"/>
        <pt x="1707" y="623" on="0"/>
        <pt x="1674" y="623" on="1"/>
        <pt x="1640" y="623" on="0"/>
        <pt x="1578" y="615" on="0"/>
        <pt x="1553" y="604" on="1"/>
        <pt x="1551" y="592" on="0"/>
        <pt x="1548" y="561" on="0"/>
        <pt x="1545" y="514" on="0"/>
        <pt x="1544" y="450" on="0"/>
        <pt x="1544" y="407" on="1"/>
        <pt x="1544" y="353" on="0"/>
        <pt x="1552" y="286" on="0"/>
        <pt x="1557" y="262" on="1"/>
        <pt x="1581" y="249" on="0"/>
        <pt x="1635" y="232" on="0"/>
        <pt x="1690" y="223" on="0"/>
        <pt x="1742" y="220" on="0"/>
        <pt x="1765" y="220" on="1"/>
        <pt x="1794" y="220" on="0"/>
        <pt x="1855" y="235" on="0"/>
        <pt x="1905" y="276" on="0"/>
        <pt x="1937" y="349" on="0"/>
        <pt x="1937" y="406" on="1"/>
        <pt x="1937" y="442" on="0"/>
        <pt x="1928" y="512" on="0"/>
        <pt x="1921" y="535" on="1"/>
        <pt x="1963" y="521" on="0"/>
        <pt x="2055" y="510" on="0"/>
        <pt x="2101" y="510" on="1"/>
        <pt x="2153" y="510" on="0"/>
        <pt x="2246" y="524" on="0"/>
        <pt x="2276" y="535" on="1"/>
        <pt x="2273" y="522" on="0"/>
        <pt x="2264" y="468" on="0"/>
        <pt x="2257" y="395" on="0"/>
        <pt x="2251" y="308" on="0"/>
        <pt x="2251" y="263" on="1"/>
        <pt x="2251" y="224" on="0"/>
        <pt x="2256" y="149" on="0"/>
        <pt x="2263" y="81" on="0"/>
        <pt x="2272" y="22" on="0"/>
        <pt x="2276" y="0" on="1"/>
        <pt x="2256" y="4" on="0"/>
        <pt x="2168" y="11" on="0"/>
        <pt x="2054" y="16" on="0"/>
        <pt x="1923" y="21" on="0"/>
        <pt x="1798" y="24" on="0"/>
        <pt x="1689" y="25" on="0"/>
        <pt x="1653" y="25" on="1"/>
        <pt x="1599" y="25" on="0"/>
        <pt x="1469" y="18" on="0"/>
        <pt x="1349" y="5" on="0"/>
        <pt x="1254" y="-11" on="0"/>
        <pt x="1235" y="-20" on="1"/>
        <pt x="1219" y="-11" on="0"/>
        <pt x="1150" y="5" on="0"/>
        <pt x="1055" y="18" on="0"/>
        <pt x="938" y="25" on="0"/>
        <pt x="875" y="25" on="1"/>
        <pt x="812" y="25" on="0"/>
        <pt x="695" y="18" on="0"/>
        <pt x="600" y="5" on="0"/>
        <pt x="531" y="-11" on="0"/>
        <pt x="515" y="-20" on="1"/>
        <pt x="503" y="26" on="0"/>
        <pt x="420" y="124" on="0"/>
        <pt x="309" y="206" on="0"/>
        <pt x="184" y="262" on="0"/>
      </contour>
      <contour>
        <pt x="875" y="220" on="1"/>
        <pt x="931" y="220" on="0"/>
        <pt x="1025" y="259" on="0"/>
        <pt x="1092" y="366" on="0"/>
        <pt x="1130" y="553" on="0"/>
        <pt x="1130" y="702" on="1"/>
        <pt x="1130" y="819" on="0"/>
        <pt x="1110" y="985" on="0"/>
        <pt x="1076" y="1098" on="0"/>
        <pt x="1028" y="1165" on="0"/>
        <pt x="971" y="1200" on="0"/>
        <pt x="908" y="1210" on="0"/>
        <pt x="875" y="1210" on="1"/>
        <pt x="842" y="1210" on="0"/>
        <pt x="779" y="1200" on="0"/>
        <pt x="722" y="1165" on="0"/>
        <pt x="674" y="1098" on="0"/>
        <pt x="640" y="985" on="0"/>
        <pt x="620" y="819" on="0"/>
        <pt x="620" y="702" on="1"/>
        <pt x="620" y="553" on="0"/>
        <pt x="657" y="366" on="0"/>
        <pt x="725" y="259" on="0"/>
        <pt x="819" y="220" on="0"/>
      </contour>
    </TTGlyph>
    <TTGlyph name="Oacute" xMin="83" yMin="-20" xMax="1623" yMax="2010">
      <component glyphName="O" x="0" y="0" flags="0x1204"/>
      <component glyphName="acute.cap" x="402" y="0" flags="0x1004"/>
    </TTGlyph>
    <TTGlyph name="Obreve" xMin="83" yMin="-20" xMax="1623" yMax="1988">
      <component glyphName="O" x="0" y="0" flags="0x1204"/>
      <component glyphName="breve.cap" x="499" y="0" flags="0x1004"/>
    </TTGlyph>
    <TTGlyph name="Ocircumflex" xMin="83" yMin="-20" xMax="1623" yMax="2010">
      <component glyphName="O" x="0" y="0" flags="0x1204"/>
      <component glyphName="circumflex.cap" x="412" y="0" flags="0x1004"/>
    </TTGlyph>
    <TTGlyph name="Odieresis" xMin="83" yMin="-20" xMax="1623" yMax="2010">
      <component glyphName="O" x="0" y="0" flags="0x1204"/>
      <component glyphName="dieresis.cap" x="343" y="0" flags="0x1004"/>
    </TTGlyph>
    <TTGlyph name="Ograve" xMin="83" yMin="-20" xMax="1623" yMax="2010">
      <component glyphName="O" x="0" y="0" flags="0x1204"/>
      <component glyphName="grave.cap" x="441" y="0" flags="0x1004"/>
    </TTGlyph>
    <TTGlyph name="Ohungarumlaut" xMin="83" yMin="-20" xMax="1623" yMax="2010">
      <component glyphName="O" x="0" y="0" flags="0x1204"/>
      <component glyphName="hungarumlaut.cap" x="395" y="0" flags="0x1004"/>
    </TTGlyph>
    <TTGlyph name="Omacron" xMin="83" yMin="-20" xMax="1623" yMax="1860">
      <component glyphName="O" x="0" y="0" flags="0x1204"/>
      <component glyphName="macron.cap" x="322" y="0" flags="0x1004"/>
    </TTGlyph>
    <TTGlyph name="Omega" xMin="33" yMin="0" xMax="1783" yMax="1460">
      <contour>
        <pt x="50" y="0" on="1"/>
        <pt x="56" y="25" on="0"/>
        <pt x="65" y="96" on="0"/>
        <pt x="65" y="134" on="1"/>
        <pt x="65" y="169" on="0"/>
        <pt x="55" y="236" on="0"/>
        <pt x="50" y="260" on="1"/>
        <pt x="155" y="260" on="0"/>
        <pt x="305" y="269" on="0"/>
        <pt x="403" y="289" on="0"/>
        <pt x="449" y="322" on="0"/>
        <pt x="449" y="346" on="1"/>
        <pt x="449" y="359" on="0"/>
        <pt x="423" y="381" on="0"/>
        <pt x="378" y="398" on="0"/>
        <pt x="315" y="408" on="0"/>
        <pt x="278" y="408" on="1"/>
        <pt x="255" y="408" on="0"/>
        <pt x="208" y="404" on="0"/>
        <pt x="183" y="400" on="1"/>
        <pt x="188" y="410" on="0"/>
        <pt x="188" y="432" on="1"/>
        <pt x="188" y="465" on="0"/>
        <pt x="163" y="561" on="0"/>
        <pt x="120" y="654" on="0"/>
        <pt x="64" y="726" on="0"/>
        <pt x="33" y="735" on="1"/>
        <pt x="49" y="739" on="0"/>
        <pt x="81" y="781" on="0"/>
        <pt x="105" y="849" on="0"/>
        <pt x="120" y="940" on="0"/>
        <pt x="120" y="993" on="1"/>
        <pt x="120" y="1035" on="0"/>
        <pt x="110" y="1124" on="0"/>
        <pt x="98" y="1172" on="1"/>
        <pt x="107" y="1172" on="1"/>
        <pt x="144" y="1172" on="0"/>
        <pt x="230" y="1202" on="0"/>
        <pt x="316" y="1251" on="0"/>
        <pt x="395" y="1312" on="0"/>
        <pt x="458" y="1376" on="0"/>
        <pt x="497" y="1437" on="0"/>
        <pt x="499" y="1460" on="1"/>
        <pt x="516" y="1451" on="0"/>
        <pt x="589" y="1432" on="0"/>
        <pt x="690" y="1415" on="0"/>
        <pt x="814" y="1405" on="0"/>
        <pt x="883" y="1405" on="1"/>
        <pt x="952" y="1405" on="0"/>
        <pt x="1076" y="1415" on="0"/>
        <pt x="1177" y="1432" on="0"/>
        <pt x="1250" y="1451" on="0"/>
        <pt x="1267" y="1460" on="1"/>
        <pt x="1269" y="1437" on="0"/>
        <pt x="1315" y="1376" on="0"/>
        <pt x="1388" y="1312" on="0"/>
        <pt x="1481" y="1251" on="0"/>
        <pt x="1578" y="1202" on="0"/>
        <pt x="1671" y="1172" on="0"/>
        <pt x="1709" y="1172" on="1"/>
        <pt x="1718" y="1172" on="1"/>
        <pt x="1706" y="1124" on="0"/>
        <pt x="1695" y="1035" on="0"/>
        <pt x="1695" y="993" on="1"/>
        <pt x="1695" y="940" on="0"/>
        <pt x="1710" y="849" on="0"/>
        <pt x="1734" y="781" on="0"/>
        <pt x="1766" y="739" on="0"/>
        <pt x="1783" y="735" on="1"/>
        <pt x="1752" y="726" on="0"/>
        <pt x="1696" y="654" on="0"/>
        <pt x="1653" y="561" on="0"/>
        <pt x="1627" y="465" on="0"/>
        <pt x="1627" y="432" on="1"/>
        <pt x="1627" y="412" on="0"/>
        <pt x="1633" y="400" on="1"/>
        <pt x="1608" y="404" on="0"/>
        <pt x="1561" y="408" on="0"/>
        <pt x="1540" y="408" on="1"/>
        <pt x="1470" y="408" on="0"/>
        <pt x="1387" y="372" on="0"/>
        <pt x="1387" y="346" on="1"/>
        <pt x="1387" y="322" on="0"/>
        <pt x="1427" y="289" on="0"/>
        <pt x="1517" y="269" on="0"/>
        <pt x="1661" y="260" on="0"/>
        <pt x="1766" y="260" on="1"/>
        <pt x="1762" y="236" on="0"/>
        <pt x="1750" y="169" on="0"/>
        <pt x="1750" y="134" on="1"/>
        <pt x="1750" y="96" on="0"/>
        <pt x="1758" y="25" on="0"/>
        <pt x="1765" y="0" on="1"/>
        <pt x="1741" y="6" on="0"/>
        <pt x="1662" y="15" on="0"/>
        <pt x="1569" y="22" on="0"/>
        <pt x="1469" y="25" on="0"/>
        <pt x="1423" y="25" on="1"/>
        <pt x="1372" y="25" on="0"/>
        <pt x="1241" y="22" on="0"/>
        <pt x="1115" y="15" on="0"/>
        <pt x="1008" y="6" on="0"/>
        <pt x="980" y="0" on="1"/>
        <pt x="987" y="25" on="0"/>
        <pt x="995" y="96" on="0"/>
        <pt x="995" y="134" on="1"/>
        <pt x="995" y="174" on="0"/>
        <pt x="993" y="248" on="0"/>
        <pt x="988" y="308" on="0"/>
        <pt x="983" y="351" on="0"/>
        <pt x="980" y="360" on="1"/>
        <pt x="1044" y="373" on="0"/>
        <pt x="1141" y="465" on="0"/>
        <pt x="1205" y="591" on="0"/>
        <pt x="1238" y="736" on="0"/>
        <pt x="1238" y="802" on="1"/>
        <pt x="1238" y="925" on="0"/>
        <pt x="1178" y="1083" on="0"/>
        <pt x="1081" y="1174" on="0"/>
        <pt x="957" y="1210" on="0"/>
        <pt x="893" y="1210" on="1"/>
        <pt x="829" y="1210" on="0"/>
        <pt x="705" y="1174" on="0"/>
        <pt x="608" y="1083" on="0"/>
        <pt x="548" y="925" on="0"/>
        <pt x="548" y="802" on="1"/>
        <pt x="548" y="736" on="0"/>
        <pt x="579" y="591" on="0"/>
        <pt x="641" y="465" on="0"/>
        <pt x="733" y="373" on="0"/>
        <pt x="795" y="360" on="1"/>
        <pt x="793" y="331" on="0"/>
        <pt x="788" y="283" on="0"/>
        <pt x="783" y="233" on="0"/>
        <pt x="780" y="174" on="0"/>
        <pt x="780" y="134" on="1"/>
        <pt x="780" y="96" on="0"/>
        <pt x="788" y="25" on="0"/>
        <pt x="795" y="0" on="1"/>
        <pt x="766" y="6" on="0"/>
        <pt x="660" y="15" on="0"/>
        <pt x="534" y="22" on="0"/>
        <pt x="404" y="25" on="0"/>
        <pt x="352" y="25" on="1"/>
        <pt x="313" y="25" on="0"/>
        <pt x="224" y="22" on="0"/>
        <pt x="141" y="15" on="0"/>
        <pt x="71" y="6" on="0"/>
      </contour>
    </TTGlyph>
    <TTGlyph name="Oslash" xMin="83" yMin="-137" xMax="1623" yMax="1598">
      <contour>
        <pt x="218" y="-137" on="1"/>
        <pt x="235" y="-128" on="0"/>
        <pt x="294" y="-58" on="0"/>
        <pt x="366" y="42" on="0"/>
        <pt x="445" y="162" on="0"/>
        <pt x="519" y="280" on="0"/>
        <pt x="583" y="387" on="0"/>
        <pt x="604" y="424" on="1"/>
        <pt x="996" y="1133" on="1"/>
        <pt x="1030" y="1195" on="0"/>
        <pt x="1094" y="1318" on="0"/>
        <pt x="1143" y="1430" on="0"/>
        <pt x="1173" y="1524" on="0"/>
        <pt x="1173" y="1557" on="1"/>
        <pt x="1173" y="1581" on="0"/>
        <pt x="1164" y="1596" on="1"/>
        <pt x="1180" y="1585" on="0"/>
        <pt x="1252" y="1573" on="0"/>
        <pt x="1298" y="1573" on="1"/>
        <pt x="1338" y="1573" on="0"/>
        <pt x="1397" y="1579" on="0"/>
        <pt x="1439" y="1587" on="0"/>
        <pt x="1469" y="1596" on="0"/>
        <pt x="1480" y="1598" on="1"/>
        <pt x="1463" y="1589" on="0"/>
        <pt x="1411" y="1521" on="0"/>
        <pt x="1348" y="1424" on="0"/>
        <pt x="1279" y="1308" on="0"/>
        <pt x="1214" y="1193" on="0"/>
        <pt x="1158" y="1088" on="0"/>
        <pt x="1138" y="1052" on="1"/>
        <pt x="746" y="343" on="1"/>
        <pt x="710" y="278" on="0"/>
        <pt x="633" y="145" on="0"/>
        <pt x="569" y="25" on="0"/>
        <pt x="528" y="-75" on="0"/>
        <pt x="528" y="-107" on="1"/>
        <pt x="528" y="-125" on="0"/>
        <pt x="534" y="-135" on="1"/>
        <pt x="516" y="-124" on="0"/>
        <pt x="434" y="-112" on="0"/>
        <pt x="380" y="-112" on="1"/>
        <pt x="343" y="-112" on="0"/>
        <pt x="291" y="-118" on="0"/>
        <pt x="254" y="-126" on="0"/>
        <pt x="228" y="-135" on="0"/>
      </contour>
      <contour>
        <pt x="98" y="268" on="1"/>
        <pt x="117" y="294" on="0"/>
        <pt x="149" y="455" on="0"/>
        <pt x="149" y="594" on="1"/>
        <pt x="149" y="657" on="0"/>
        <pt x="115" y="724" on="0"/>
        <pt x="83" y="735" on="1"/>
        <pt x="101" y="740" on="0"/>
        <pt x="127" y="776" on="0"/>
        <pt x="145" y="828" on="0"/>
        <pt x="153" y="891" on="0"/>
        <pt x="153" y="924" on="1"/>
        <pt x="153" y="1010" on="0"/>
        <pt x="124" y="1143" on="0"/>
        <pt x="98" y="1172" on="1"/>
        <pt x="106" y="1172" on="1"/>
        <pt x="140" y="1172" on="0"/>
        <pt x="223" y="1202" on="0"/>
        <pt x="309" y="1251" on="0"/>
        <pt x="391" y="1312" on="0"/>
        <pt x="456" y="1376" on="0"/>
        <pt x="497" y="1437" on="0"/>
        <pt x="499" y="1460" on="1"/>
        <pt x="515" y="1451" on="0"/>
        <pt x="582" y="1432" on="0"/>
        <pt x="675" y="1415" on="0"/>
        <pt x="790" y="1405" on="0"/>
        <pt x="853" y="1405" on="1"/>
        <pt x="916" y="1405" on="0"/>
        <pt x="1031" y="1415" on="0"/>
        <pt x="1124" y="1432" on="0"/>
        <pt x="1191" y="1451" on="0"/>
        <pt x="1207" y="1460" on="1"/>
        <pt x="1209" y="1437" on="0"/>
        <pt x="1250" y="1376" on="0"/>
        <pt x="1315" y="1312" on="0"/>
        <pt x="1397" y="1251" on="0"/>
        <pt x="1483" y="1202" on="0"/>
        <pt x="1566" y="1172" on="0"/>
        <pt x="1600" y="1172" on="1"/>
        <pt x="1608" y="1172" on="1"/>
        <pt x="1582" y="1143" on="0"/>
        <pt x="1553" y="1010" on="0"/>
        <pt x="1553" y="924" on="1"/>
        <pt x="1553" y="891" on="0"/>
        <pt x="1561" y="828" on="0"/>
        <pt x="1579" y="776" on="0"/>
        <pt x="1605" y="740" on="0"/>
        <pt x="1623" y="735" on="1"/>
        <pt x="1591" y="724" on="0"/>
        <pt x="1557" y="657" on="0"/>
        <pt x="1557" y="594" on="1"/>
        <pt x="1557" y="455" on="0"/>
        <pt x="1589" y="294" on="0"/>
        <pt x="1608" y="268" on="1"/>
        <pt x="1554" y="262" on="0"/>
        <pt x="1426" y="206" on="0"/>
        <pt x="1311" y="124" on="0"/>
        <pt x="1225" y="27" on="0"/>
        <pt x="1213" y="-20" on="1"/>
        <pt x="1197" y="-11" on="0"/>
        <pt x="1128" y="5" on="0"/>
        <pt x="1033" y="18" on="0"/>
        <pt x="916" y="25" on="0"/>
        <pt x="853" y="25" on="1"/>
        <pt x="790" y="25" on="0"/>
        <pt x="673" y="18" on="0"/>
        <pt x="578" y="5" on="0"/>
        <pt x="509" y="-11" on="0"/>
        <pt x="493" y="-20" on="1"/>
        <pt x="481" y="27" on="0"/>
        <pt x="395" y="124" on="0"/>
        <pt x="280" y="206" on="0"/>
        <pt x="152" y="262" on="0"/>
      </contour>
      <contour>
        <pt x="853" y="220" on="1"/>
        <pt x="909" y="220" on="0"/>
        <pt x="1006" y="259" on="0"/>
        <pt x="1077" y="366" on="0"/>
        <pt x="1118" y="553" on="0"/>
        <pt x="1118" y="702" on="1"/>
        <pt x="1118" y="819" on="0"/>
        <pt x="1097" y="985" on="0"/>
        <pt x="1060" y="1098" on="0"/>
        <pt x="1009" y="1165" on="0"/>
        <pt x="950" y="1200" on="0"/>
        <pt x="886" y="1210" on="0"/>
        <pt x="853" y="1210" on="1"/>
        <pt x="820" y="1210" on="0"/>
        <pt x="756" y="1200" on="0"/>
        <pt x="697" y="1165" on="0"/>
        <pt x="646" y="1098" on="0"/>
        <pt x="609" y="985" on="0"/>
        <pt x="588" y="819" on="0"/>
        <pt x="588" y="702" on="1"/>
        <pt x="588" y="553" on="0"/>
        <pt x="629" y="366" on="0"/>
        <pt x="700" y="259" on="0"/>
        <pt x="797" y="220" on="0"/>
      </contour>
    </TTGlyph>
    <TTGlyph name="Otilde" xMin="83" yMin="-20" xMax="1623" yMax="2010">
      <component glyphName="O" x="0" y="0" flags="0x1204"/>
      <component glyphName="tilde.cap" x="173" y="0" flags="0x1004"/>
    </TTGlyph>
    <TTGlyph name="P" xMin="100" yMin="0" xMax="1475" yMax="1440">
      <contour>
        <pt x="100" y="0" on="1"/>
        <pt x="106" y="25" on="0"/>
        <pt x="115" y="96" on="0"/>
        <pt x="115" y="134" on="1"/>
        <pt x="115" y="169" on="0"/>
        <pt x="105" y="236" on="0"/>
        <pt x="100" y="260" on="1"/>
        <pt x="145" y="260" on="0"/>
        <pt x="213" y="274" on="0"/>
        <pt x="259" y="307" on="0"/>
        <pt x="282" y="364" on="0"/>
        <pt x="282" y="407" on="1"/>
        <pt x="282" y="491" on="0"/>
        <pt x="273" y="611" on="0"/>
        <pt x="256" y="689" on="0"/>
        <pt x="230" y="730" on="0"/>
        <pt x="213" y="735" on="1"/>
        <pt x="231" y="741" on="0"/>
        <pt x="257" y="767" on="0"/>
        <pt x="274" y="830" on="0"/>
        <pt x="282" y="941" on="0"/>
        <pt x="282" y="1033" on="1"/>
        <pt x="282" y="1076" on="0"/>
        <pt x="259" y="1133" on="0"/>
        <pt x="213" y="1166" on="0"/>
        <pt x="145" y="1180" on="0"/>
        <pt x="100" y="1180" on="1"/>
        <pt x="105" y="1204" on="0"/>
        <pt x="115" y="1271" on="0"/>
        <pt x="115" y="1306" on="1"/>
        <pt x="115" y="1344" on="0"/>
        <pt x="106" y="1415" on="0"/>
        <pt x="100" y="1440" on="1"/>
        <pt x="113" y="1435" on="0"/>
        <pt x="189" y="1425" on="0"/>
        <pt x="292" y="1418" on="0"/>
        <pt x="412" y="1412" on="0"/>
        <pt x="528" y="1407" on="0"/>
        <pt x="629" y="1405" on="0"/>
        <pt x="662" y="1405" on="1"/>
        <pt x="752" y="1405" on="0"/>
        <pt x="938" y="1408" on="0"/>
        <pt x="1098" y="1416" on="0"/>
        <pt x="1218" y="1430" on="0"/>
        <pt x="1243" y="1440" on="1"/>
        <pt x="1245" y="1409" on="0"/>
        <pt x="1297" y="1335" on="0"/>
        <pt x="1369" y="1270" on="0"/>
        <pt x="1447" y="1225" on="0"/>
        <pt x="1475" y="1224" on="1"/>
        <pt x="1468" y="1210" on="0"/>
        <pt x="1457" y="1152" on="0"/>
        <pt x="1449" y="1079" on="0"/>
        <pt x="1445" y="1000" on="0"/>
        <pt x="1445" y="964" on="1"/>
        <pt x="1445" y="926" on="0"/>
        <pt x="1448" y="854" on="0"/>
        <pt x="1455" y="790" on="0"/>
        <pt x="1466" y="738" on="0"/>
        <pt x="1475" y="720" on="1"/>
        <pt x="1436" y="713" on="0"/>
        <pt x="1357" y="669" on="0"/>
        <pt x="1287" y="610" on="0"/>
        <pt x="1231" y="541" on="0"/>
        <pt x="1215" y="510" on="1"/>
        <pt x="1177" y="524" on="0"/>
        <pt x="1038" y="543" on="0"/>
        <pt x="955" y="543" on="1"/>
        <pt x="889" y="543" on="0"/>
        <pt x="755" y="525" on="0"/>
        <pt x="692" y="505" on="1"/>
        <pt x="683" y="472" on="0"/>
        <pt x="683" y="422" on="1"/>
        <pt x="683" y="370" on="0"/>
        <pt x="705" y="307" on="0"/>
        <pt x="767" y="272" on="0"/>
        <pt x="877" y="260" on="0"/>
        <pt x="965" y="260" on="1"/>
        <pt x="960" y="236" on="0"/>
        <pt x="950" y="169" on="0"/>
        <pt x="950" y="134" on="1"/>
        <pt x="950" y="96" on="0"/>
        <pt x="959" y="25" on="0"/>
        <pt x="965" y="0" on="1"/>
        <pt x="936" y="6" on="0"/>
        <pt x="842" y="15" on="0"/>
        <pt x="731" y="22" on="0"/>
        <pt x="614" y="25" on="0"/>
        <pt x="563" y="25" on="1"/>
        <pt x="509" y="25" on="0"/>
        <pt x="373" y="22" on="0"/>
        <pt x="242" y="15" on="0"/>
        <pt x="130" y="6" on="0"/>
      </contour>
      <contour>
        <pt x="686" y="756" on="1"/>
        <pt x="721" y="745" on="0"/>
        <pt x="800" y="735" on="0"/>
        <pt x="845" y="735" on="1"/>
        <pt x="895" y="735" on="0"/>
        <pt x="972" y="772" on="0"/>
        <pt x="1025" y="838" on="0"/>
        <pt x="1052" y="927" on="0"/>
        <pt x="1052" y="979" on="1"/>
        <pt x="1052" y="1023" on="0"/>
        <pt x="1031" y="1106" on="0"/>
        <pt x="985" y="1171" on="0"/>
        <pt x="910" y="1210" on="0"/>
        <pt x="855" y="1210" on="1"/>
        <pt x="812" y="1210" on="0"/>
        <pt x="722" y="1196" on="0"/>
        <pt x="685" y="1177" on="1"/>
        <pt x="680" y="1143" on="0"/>
        <pt x="676" y="1058" on="0"/>
        <pt x="676" y="1011" on="1"/>
        <pt x="676" y="943" on="0"/>
        <pt x="682" y="807" on="0"/>
      </contour>
    </TTGlyph>
    <TTGlyph name="Q" xMin="93" yMin="-406" xMax="1688" yMax="1460">
      <contour>
        <pt x="108" y="268" on="1"/>
        <pt x="127" y="294" on="0"/>
        <pt x="159" y="455" on="0"/>
        <pt x="159" y="594" on="1"/>
        <pt x="159" y="657" on="0"/>
        <pt x="125" y="724" on="0"/>
        <pt x="93" y="735" on="1"/>
        <pt x="111" y="740" on="0"/>
        <pt x="137" y="776" on="0"/>
        <pt x="155" y="828" on="0"/>
        <pt x="163" y="891" on="0"/>
        <pt x="163" y="924" on="1"/>
        <pt x="163" y="1010" on="0"/>
        <pt x="134" y="1143" on="0"/>
        <pt x="108" y="1172" on="1"/>
        <pt x="116" y="1172" on="1"/>
        <pt x="149" y="1172" on="0"/>
        <pt x="231" y="1202" on="0"/>
        <pt x="315" y="1251" on="0"/>
        <pt x="394" y="1312" on="0"/>
        <pt x="457" y="1376" on="0"/>
        <pt x="497" y="1437" on="0"/>
        <pt x="499" y="1460" on="1"/>
        <pt x="515" y="1451" on="0"/>
        <pt x="582" y="1432" on="0"/>
        <pt x="675" y="1415" on="0"/>
        <pt x="790" y="1405" on="0"/>
        <pt x="853" y="1405" on="1"/>
        <pt x="916" y="1405" on="0"/>
        <pt x="1031" y="1415" on="0"/>
        <pt x="1124" y="1432" on="0"/>
        <pt x="1191" y="1451" on="0"/>
        <pt x="1207" y="1460" on="1"/>
        <pt x="1209" y="1437" on="0"/>
        <pt x="1249" y="1376" on="0"/>
        <pt x="1311" y="1312" on="0"/>
        <pt x="1391" y="1251" on="0"/>
        <pt x="1475" y="1202" on="0"/>
        <pt x="1556" y="1172" on="0"/>
        <pt x="1590" y="1172" on="1"/>
        <pt x="1598" y="1172" on="1"/>
        <pt x="1572" y="1143" on="0"/>
        <pt x="1543" y="1010" on="0"/>
        <pt x="1543" y="924" on="1"/>
        <pt x="1543" y="891" on="0"/>
        <pt x="1551" y="828" on="0"/>
        <pt x="1569" y="776" on="0"/>
        <pt x="1595" y="740" on="0"/>
        <pt x="1613" y="735" on="1"/>
        <pt x="1581" y="724" on="0"/>
        <pt x="1547" y="657" on="0"/>
        <pt x="1547" y="594" on="1"/>
        <pt x="1547" y="455" on="0"/>
        <pt x="1579" y="294" on="0"/>
        <pt x="1598" y="268" on="1"/>
        <pt x="1463" y="244" on="0"/>
        <pt x="1298" y="142" on="0"/>
        <pt x="1256" y="78" on="1"/>
        <pt x="1255" y="69" on="0"/>
        <pt x="1254" y="54" on="0"/>
        <pt x="1254" y="49" on="1"/>
        <pt x="1254" y="17" on="0"/>
        <pt x="1299" y="-30" on="0"/>
        <pt x="1370" y="-60" on="0"/>
        <pt x="1454" y="-75" on="0"/>
        <pt x="1493" y="-75" on="1"/>
        <pt x="1533" y="-75" on="0"/>
        <pt x="1627" y="-56" on="0"/>
        <pt x="1678" y="-40" on="1"/>
        <pt x="1675" y="-59" on="0"/>
        <pt x="1668" y="-91" on="0"/>
        <pt x="1662" y="-132" on="0"/>
        <pt x="1658" y="-188" on="0"/>
        <pt x="1658" y="-231" on="1"/>
        <pt x="1658" y="-254" on="0"/>
        <pt x="1663" y="-306" on="0"/>
        <pt x="1671" y="-356" on="0"/>
        <pt x="1682" y="-396" on="0"/>
        <pt x="1688" y="-406" on="1"/>
        <pt x="1664" y="-397" on="0"/>
        <pt x="1579" y="-384" on="0"/>
        <pt x="1482" y="-375" on="0"/>
        <pt x="1388" y="-371" on="0"/>
        <pt x="1355" y="-371" on="1"/>
        <pt x="1311" y="-371" on="0"/>
        <pt x="1229" y="-377" on="0"/>
        <pt x="1163" y="-387" on="0"/>
        <pt x="1117" y="-399" on="0"/>
        <pt x="1108" y="-406" on="1"/>
        <pt x="1116" y="-385" on="0"/>
        <pt x="1125" y="-351" on="0"/>
        <pt x="1130" y="-317" on="0"/>
        <pt x="1132" y="-280" on="0"/>
        <pt x="1132" y="-257" on="1"/>
        <pt x="1132" y="-194" on="0"/>
        <pt x="1118" y="-92" on="0"/>
        <pt x="1059" y="-19" on="0"/>
        <pt x="943" y="23" on="0"/>
        <pt x="841" y="25" on="1"/>
        <pt x="780" y="25" on="0"/>
        <pt x="667" y="18" on="0"/>
        <pt x="575" y="5" on="0"/>
        <pt x="508" y="-11" on="0"/>
        <pt x="493" y="-20" on="1"/>
        <pt x="481" y="26" on="0"/>
        <pt x="398" y="124" on="0"/>
        <pt x="287" y="206" on="0"/>
        <pt x="162" y="262" on="0"/>
      </contour>
      <contour>
        <pt x="853" y="220" on="1"/>
        <pt x="909" y="220" on="0"/>
        <pt x="1003" y="259" on="0"/>
        <pt x="1070" y="366" on="0"/>
        <pt x="1108" y="553" on="0"/>
        <pt x="1108" y="702" on="1"/>
        <pt x="1108" y="819" on="0"/>
        <pt x="1088" y="985" on="0"/>
        <pt x="1054" y="1098" on="0"/>
        <pt x="1006" y="1165" on="0"/>
        <pt x="949" y="1200" on="0"/>
        <pt x="886" y="1210" on="0"/>
        <pt x="853" y="1210" on="1"/>
        <pt x="820" y="1210" on="0"/>
        <pt x="757" y="1200" on="0"/>
        <pt x="700" y="1165" on="0"/>
        <pt x="652" y="1098" on="0"/>
        <pt x="618" y="985" on="0"/>
        <pt x="598" y="819" on="0"/>
        <pt x="598" y="702" on="1"/>
        <pt x="598" y="553" on="0"/>
        <pt x="635" y="366" on="0"/>
        <pt x="703" y="259" on="0"/>
        <pt x="797" y="220" on="0"/>
      </contour>
    </TTGlyph>
</ttFont>
